<?xml version="1.0" encoding="utf-8"?>
<!-- Generator: Adobe Illustrator 14.0.0, SVG Export Plug-In . SVG Version: 6.00 Build 43363)  -->
<!DOCTYPE svg PUBLIC "-//W3C//DTD SVG 1.1//EN" "http://www.w3.org/Graphics/SVG/1.1/DTD/svg11.dtd">
<svg version="1.1" id="圖層_1" xmlns="http://www.w3.org/2000/svg" xmlns:xlink="http://www.w3.org/1999/xlink" x="0px" y="0px"
	 width="172.508px" height="53.243px" viewBox="0 0 172.508 53.243" enable-background="new 0 0 172.508 53.243"
	 xml:space="preserve">
<g>
	<g>
		<g>
			<path fill="#278BC4" d="M26.384,38.385c0.09-1.782,0.139-3.092,0.139-3.94l0.632-0.75c0.083-0.104,0.749-0.957,1.983-2.58
				l3.567-4.646c0.417-0.56,0.896-1.229,1.45-2.009l-0.851-0.01l-0.842-0.02h-1.501c-1.129,0-2.321,0.05-3.583,0.145
				c0.064-0.93,0.098-1.938,0.098-3.024c0-0.209-0.007-0.492-0.021-0.845c2.041,0.015,4.192,0.025,6.477,0.025
				c2.368,0,4.408-0.012,6.117-0.025c-0.046,0.904-0.082,1.621-0.092,2.147l-0.049,1.734L39.302,25.3
				c-0.105,0.121-0.202,0.254-0.303,0.375l-6.728,8.877l1.474,0.014c0.354,0,0.859-0.006,1.524-0.014l2.965-0.078
				c0.224-0.009,0.615-0.029,1.175-0.065c-0.079,1.538-0.133,2.861-0.168,3.979c-2.286-0.021-4.357-0.024-6.22-0.024h-2.452
				l-2.77,0.011L26.384,38.385z"/>
			<path fill="#278BC4" d="M41.713,38.385l0.417-7.071l0.195-5.156l0.05-2.291c0.016-0.666,0.021-1.309,0.021-1.918l-0.008-1.242
				c1.123,0.015,1.97,0.025,2.526,0.025c0.44,0,1.193-0.012,2.285-0.025c-0.174,2.477-0.285,4.668-0.337,6.57h5.858
				c0.029-0.713,0.066-1.666,0.1-2.879c0.03-1.209,0.041-2.035,0.041-2.475c0-0.23-0.004-0.643-0.014-1.217l2.543,0.024
				c0.261,0,1.016-0.012,2.248-0.024c-0.25,4.437-0.412,7.736-0.485,9.899c-0.072,2.164-0.107,4.753-0.107,7.778l-2.346-0.026
				c-0.354,0-1.188,0.007-2.519,0.026c0.18-2.062,0.309-4.446,0.369-7.176h-5.854l-0.183,7.176l-2.489-0.026
				C43.703,38.359,42.933,38.365,41.713,38.385z"/>
			<path fill="#E0B337" d="M60.188,23.503c0.039-1.027,0.065-1.842,0.065-2.436c0-0.172-0.002-0.408-0.01-0.701
				c0.869,0.019,1.592,0.027,2.179,0.027c0.811,0,1.521-0.01,2.133-0.027c-0.022,0.271-0.035,0.494-0.046,0.678l-0.065,1.604
				c-0.009,0.24-0.015,0.528-0.015,0.855c-0.716-0.021-1.396-0.027-2.043-0.027C61.711,23.476,60.982,23.484,60.188,23.503z"/>
			<path fill="#278BC4" d="M59.513,38.385c0.096-1.053,0.174-1.922,0.226-2.606c0.048-0.679,0.096-1.552,0.141-2.614
				c0.049-1.062,0.094-2.229,0.124-3.521c0.036-1.286,0.065-2.778,0.094-4.479c0.926,0.015,1.671,0.029,2.232,0.029
				c0.509,0,1.238-0.016,2.19-0.029c-0.128,1.634-0.211,3.063-0.263,4.295c-0.056,1.233-0.093,2.547-0.105,3.929
				c-0.031,2.448-0.042,4.116-0.042,4.999c-0.857-0.021-1.592-0.025-2.202-0.025C61.294,38.359,60.498,38.365,59.513,38.385z"/>
		</g>
		<path fill="#808082" d="M23.994,0v38.385H0V0H23.994z M2.998,4.794v12.895h7.351l6.439-12.895H2.998z M15.143,17.689h5.852V5.986
			L15.143,17.689z M13.643,20.688l-6.44,12.896h13.792V20.688H13.643z M2.998,20.688v11.7l5.85-11.7H2.998z"/>
	</g>
	<g enable-background="new    ">
		<path fill="#FFFFFF" d="M0.778,49.424l4.314-5.162H1.385c-0.259,0-0.455-0.059-0.587-0.172s-0.196-0.267-0.196-0.452
			c0-0.195,0.064-0.354,0.196-0.474c0.132-0.121,0.328-0.182,0.587-0.182h4.78c0.62,0,0.928,0.289,0.928,0.865
			c0,0.273-0.051,0.494-0.154,0.658s-0.313,0.431-0.625,0.797L2.28,50.107h4.447c0.264,0,0.46,0.056,0.59,0.163
			c0.13,0.109,0.195,0.262,0.195,0.456c0,0.202-0.064,0.362-0.195,0.481c-0.13,0.116-0.326,0.176-0.59,0.176H1.273
			c-0.371,0-0.65-0.082-0.837-0.248c-0.188-0.166-0.281-0.389-0.281-0.668c0-0.096,0.016-0.184,0.046-0.264
			c0.031-0.08,0.073-0.156,0.124-0.227c0.051-0.072,0.123-0.161,0.214-0.271C0.628,49.6,0.709,49.506,0.778,49.424z"/>
		<path fill="#FFFFFF" d="M12.842,48.733H9.781c0.004,0.354,0.076,0.667,0.215,0.939c0.139,0.271,0.324,0.476,0.556,0.613
			c0.23,0.137,0.486,0.204,0.766,0.204c0.188,0,0.357-0.021,0.513-0.065c0.155-0.043,0.307-0.111,0.451-0.205
			c0.146-0.094,0.279-0.192,0.401-0.301c0.122-0.107,0.28-0.252,0.475-0.437c0.08-0.069,0.195-0.104,0.344-0.104
			c0.161,0,0.291,0.045,0.392,0.134c0.099,0.089,0.146,0.211,0.146,0.372c0,0.142-0.055,0.306-0.166,0.496
			c-0.11,0.188-0.276,0.369-0.501,0.543c-0.223,0.175-0.504,0.317-0.842,0.434s-0.727,0.173-1.166,0.173
			c-1.004,0-1.787-0.286-2.344-0.858c-0.559-0.573-0.836-1.353-0.836-2.332c0-0.463,0.068-0.895,0.207-1.289
			c0.138-0.395,0.338-0.731,0.603-1.016c0.264-0.283,0.587-0.5,0.974-0.65c0.387-0.149,0.813-0.227,1.285-0.227
			c0.61,0,1.136,0.129,1.572,0.387c0.439,0.259,0.766,0.592,0.983,1c0.217,0.408,0.326,0.824,0.326,1.25
			c0,0.394-0.113,0.647-0.339,0.766C13.567,48.674,13.25,48.733,12.842,48.733z M9.781,47.843h2.837
			c-0.038-0.534-0.182-0.935-0.433-1.2c-0.25-0.264-0.581-0.396-0.989-0.396c-0.39,0-0.709,0.135-0.96,0.402
			C9.986,46.918,9.836,47.317,9.781,47.843z"/>
		<path fill="#FFFFFF" d="M16.87,46.034v0.188c0.275-0.362,0.577-0.63,0.902-0.802c0.327-0.17,0.703-0.254,1.127-0.254
			c0.413,0,0.78,0.09,1.105,0.269c0.325,0.183,0.568,0.437,0.729,0.764c0.103,0.19,0.169,0.397,0.2,0.619
			c0.03,0.222,0.047,0.504,0.047,0.849v2.91c0,0.314-0.071,0.553-0.215,0.711c-0.144,0.16-0.33,0.241-0.559,0.241
			c-0.233,0-0.422-0.083-0.566-0.247c-0.146-0.164-0.218-0.398-0.218-0.705V47.97c0-0.517-0.071-0.91-0.215-1.185
			c-0.143-0.272-0.429-0.408-0.855-0.408c-0.279,0-0.534,0.082-0.764,0.248c-0.228,0.166-0.396,0.395-0.504,0.687
			c-0.078,0.231-0.114,0.668-0.114,1.306v1.961c0,0.316-0.073,0.557-0.222,0.713c-0.146,0.157-0.337,0.238-0.569,0.238
			c-0.227,0-0.411-0.083-0.558-0.246c-0.145-0.164-0.217-0.398-0.217-0.705v-4.521c0-0.301,0.066-0.521,0.195-0.668
			c0.13-0.146,0.308-0.223,0.532-0.223c0.139,0,0.263,0.033,0.373,0.1c0.111,0.064,0.2,0.162,0.268,0.292
			C16.836,45.686,16.87,45.846,16.87,46.034z"/>
		<path fill="#FFFFFF" d="M23.329,44.44c-0.217,0-0.404-0.066-0.56-0.201c-0.154-0.134-0.231-0.322-0.231-0.566
			c0-0.223,0.08-0.403,0.238-0.547c0.158-0.145,0.343-0.215,0.553-0.215c0.203,0,0.382,0.063,0.539,0.194
			c0.155,0.13,0.234,0.317,0.234,0.565c0,0.24-0.076,0.43-0.229,0.563C23.72,44.374,23.539,44.44,23.329,44.44z M24.102,46.056
			v4.522c0,0.313-0.074,0.551-0.224,0.709c-0.149,0.159-0.338,0.24-0.567,0.24s-0.415-0.083-0.559-0.244
			c-0.143-0.164-0.214-0.399-0.214-0.705V46.1c0-0.311,0.071-0.542,0.214-0.699c0.144-0.156,0.33-0.234,0.559-0.234
			c0.229,0,0.418,0.078,0.567,0.234C24.028,45.559,24.102,45.777,24.102,46.056z"/>
		<path fill="#FFFFFF" d="M25.804,45.306h0.172v-0.94c0-0.253,0.006-0.449,0.021-0.594c0.013-0.145,0.05-0.268,0.111-0.37
			c0.062-0.106,0.148-0.192,0.264-0.261c0.114-0.064,0.242-0.102,0.384-0.102c0.199,0,0.378,0.075,0.54,0.225
			c0.105,0.1,0.175,0.222,0.204,0.363c0.028,0.145,0.043,0.348,0.043,0.609v1.066h0.573c0.222,0,0.392,0.053,0.507,0.156
			c0.116,0.104,0.175,0.239,0.175,0.404c0,0.209-0.083,0.356-0.25,0.439c-0.167,0.084-0.403,0.127-0.713,0.127h-0.293v2.876
			c0,0.245,0.009,0.433,0.025,0.565c0.018,0.131,0.063,0.236,0.137,0.318c0.074,0.083,0.196,0.124,0.364,0.124
			c0.091,0,0.215-0.017,0.373-0.049c0.156-0.032,0.279-0.05,0.367-0.05c0.125,0,0.239,0.052,0.341,0.152
			c0.101,0.102,0.151,0.227,0.151,0.375c0,0.252-0.138,0.445-0.412,0.578c-0.275,0.135-0.669,0.2-1.188,0.2
			c-0.489,0-0.858-0.083-1.111-0.245c-0.251-0.164-0.417-0.393-0.494-0.684c-0.079-0.29-0.118-0.678-0.118-1.163V46.43H25.77
			c-0.226,0-0.396-0.055-0.517-0.16s-0.177-0.242-0.177-0.405c0-0.165,0.063-0.3,0.187-0.405
			C25.387,45.355,25.566,45.306,25.804,45.306z"/>
		<path fill="#FFFFFF" d="M31.404,43.792v2.321c0.198-0.229,0.392-0.409,0.581-0.544c0.189-0.134,0.397-0.234,0.628-0.302
			c0.229-0.065,0.476-0.101,0.74-0.101c0.396,0,0.75,0.084,1.058,0.252c0.307,0.168,0.549,0.412,0.724,0.732
			c0.111,0.188,0.187,0.396,0.225,0.628c0.039,0.229,0.058,0.498,0.058,0.8v2.998c0,0.313-0.073,0.551-0.215,0.709
			c-0.143,0.159-0.333,0.24-0.57,0.24c-0.516,0-0.772-0.316-0.772-0.949v-2.642c0-0.5-0.075-0.888-0.225-1.154
			c-0.147-0.27-0.432-0.403-0.848-0.403c-0.279,0-0.53,0.08-0.753,0.237s-0.391,0.375-0.501,0.65
			c-0.083,0.231-0.125,0.647-0.125,1.241v2.068c0,0.312-0.071,0.547-0.209,0.709c-0.139,0.16-0.333,0.243-0.582,0.243
			c-0.516,0-0.771-0.317-0.771-0.952V43.79c0-0.316,0.065-0.555,0.203-0.713c0.137-0.158,0.325-0.236,0.57-0.236
			c0.249,0,0.442,0.08,0.582,0.238C31.333,43.243,31.404,43.479,31.404,43.792z"/>
		<path fill="#FFFFFF" d="M40.916,50.647c-0.378,0.294-0.744,0.516-1.097,0.661c-0.354,0.146-0.75,0.221-1.189,0.221
			c-0.4,0-0.754-0.079-1.058-0.237c-0.304-0.156-0.538-0.373-0.702-0.645c-0.165-0.271-0.247-0.564-0.247-0.884
			c0-0.429,0.135-0.792,0.407-1.095c0.271-0.301,0.643-0.504,1.118-0.605c0.099-0.023,0.346-0.074,0.739-0.154
			c0.395-0.08,0.73-0.154,1.011-0.222c0.281-0.065,0.585-0.147,0.915-0.245c-0.02-0.411-0.103-0.714-0.25-0.906
			c-0.146-0.19-0.451-0.289-0.914-0.289c-0.396,0-0.696,0.058-0.897,0.166c-0.201,0.109-0.373,0.276-0.516,0.498
			c-0.145,0.223-0.245,0.368-0.305,0.439c-0.06,0.07-0.187,0.105-0.382,0.105c-0.175,0-0.327-0.058-0.455-0.17
			c-0.129-0.113-0.191-0.258-0.191-0.434c0-0.275,0.097-0.542,0.292-0.803c0.195-0.26,0.499-0.475,0.912-0.644
			c0.412-0.167,0.926-0.251,1.541-0.251c0.688,0,1.229,0.081,1.622,0.242c0.395,0.162,0.671,0.42,0.834,0.771
			c0.163,0.351,0.244,0.816,0.244,1.398c0,0.366-0.001,0.68-0.002,0.934c-0.002,0.258-0.006,0.543-0.01,0.855
			c0,0.294,0.05,0.602,0.146,0.919c0.098,0.318,0.146,0.522,0.146,0.615c0,0.159-0.075,0.307-0.227,0.438
			c-0.151,0.133-0.321,0.196-0.513,0.196c-0.161,0-0.318-0.073-0.477-0.228C41.257,51.151,41.093,50.933,40.916,50.647z
			 M40.814,48.381c-0.229,0.084-0.563,0.175-1,0.27c-0.438,0.094-0.74,0.162-0.908,0.205s-0.329,0.129-0.481,0.259
			c-0.152,0.128-0.229,0.306-0.229,0.534c0,0.237,0.089,0.439,0.269,0.605c0.181,0.166,0.415,0.248,0.705,0.248
			c0.311,0,0.596-0.066,0.857-0.201c0.262-0.137,0.454-0.313,0.576-0.525c0.142-0.234,0.212-0.626,0.212-1.169L40.814,48.381
			L40.814,48.381z"/>
		<path fill="#FFFFFF" d="M43.936,50.577v-6.785c0-0.313,0.069-0.551,0.208-0.711c0.139-0.158,0.328-0.238,0.564-0.238
			s0.429,0.078,0.573,0.236c0.146,0.158,0.218,0.396,0.218,0.713v6.785c0,0.317-0.073,0.558-0.221,0.715
			c-0.146,0.156-0.337,0.237-0.57,0.237c-0.229,0-0.415-0.083-0.559-0.247C44.008,51.118,43.936,50.883,43.936,50.577z"/>
		<path fill="#FFFFFF" d="M48.178,51.542c-0.253,0-0.472-0.078-0.654-0.232c-0.184-0.153-0.275-0.371-0.275-0.648
			c0-0.24,0.09-0.443,0.271-0.607c0.18-0.164,0.392-0.247,0.636-0.247c0.184,0,0.351,0.05,0.5,0.149
			c0.149,0.099,0.265,0.244,0.35,0.438c0.083,0.191,0.125,0.432,0.125,0.714c0,0.38-0.079,0.731-0.239,1.063
			c-0.161,0.33-0.356,0.593-0.587,0.783c-0.232,0.193-0.44,0.291-0.628,0.291c-0.119,0-0.216-0.039-0.289-0.117
			c-0.075-0.078-0.112-0.17-0.112-0.271c0-0.154,0.078-0.283,0.234-0.379C47.953,52.226,48.178,51.915,48.178,51.542z"/>
		<path fill="#FFFFFF" d="M55.548,43.874v2.406h3.675v-2.406c0-0.345,0.076-0.603,0.231-0.772c0.154-0.173,0.357-0.259,0.61-0.259
			c0.255,0,0.463,0.086,0.622,0.255c0.159,0.17,0.237,0.43,0.237,0.776v6.619c0,0.348-0.079,0.606-0.24,0.779
			c-0.161,0.172-0.367,0.257-0.619,0.257c-0.255,0-0.46-0.087-0.613-0.261c-0.154-0.174-0.229-0.434-0.229-0.775v-2.824h-3.675
			v2.824c0,0.348-0.08,0.606-0.24,0.779c-0.16,0.172-0.366,0.257-0.618,0.257c-0.256,0-0.46-0.087-0.614-0.261
			s-0.229-0.434-0.229-0.775v-6.619c0-0.345,0.074-0.603,0.227-0.772c0.151-0.173,0.354-0.259,0.617-0.259
			c0.255,0,0.463,0.086,0.621,0.255C55.469,43.266,55.548,43.525,55.548,43.874z"/>
		<path fill="#FFFFFF" d="M66.597,50.647c-0.378,0.294-0.744,0.516-1.1,0.661c-0.354,0.146-0.75,0.221-1.188,0.221
			c-0.401,0-0.754-0.079-1.058-0.237c-0.305-0.156-0.539-0.373-0.702-0.645s-0.246-0.564-0.246-0.884
			c0-0.429,0.135-0.792,0.406-1.095c0.271-0.301,0.645-0.504,1.117-0.605c0.101-0.023,0.347-0.074,0.74-0.154
			c0.395-0.08,0.73-0.154,1.011-0.222c0.281-0.065,0.585-0.147,0.914-0.245c-0.019-0.411-0.102-0.714-0.25-0.906
			c-0.146-0.19-0.452-0.289-0.915-0.289c-0.396,0-0.696,0.058-0.896,0.166c-0.2,0.109-0.373,0.276-0.518,0.498
			c-0.143,0.223-0.244,0.368-0.303,0.439c-0.059,0.07-0.187,0.105-0.381,0.105c-0.175,0-0.328-0.058-0.456-0.17
			c-0.128-0.113-0.191-0.258-0.191-0.434c0-0.275,0.098-0.542,0.292-0.803c0.195-0.26,0.499-0.475,0.911-0.644
			c0.413-0.167,0.927-0.251,1.542-0.251c0.688,0,1.229,0.081,1.623,0.242c0.395,0.162,0.671,0.42,0.834,0.771
			c0.162,0.352,0.244,0.816,0.244,1.398c0,0.366-0.001,0.68-0.002,0.934c-0.002,0.258-0.005,0.543-0.009,0.855
			c0,0.294,0.049,0.602,0.146,0.919c0.099,0.318,0.146,0.524,0.146,0.616c0,0.158-0.075,0.308-0.228,0.438
			c-0.15,0.133-0.32,0.198-0.513,0.198c-0.161,0-0.319-0.075-0.476-0.228C66.939,51.153,66.773,50.933,66.597,50.647z
			 M66.493,48.381c-0.229,0.084-0.563,0.175-1,0.27c-0.438,0.094-0.741,0.162-0.908,0.205c-0.168,0.043-0.328,0.129-0.48,0.259
			c-0.153,0.128-0.23,0.306-0.23,0.534c0,0.237,0.09,0.439,0.271,0.605c0.18,0.166,0.416,0.248,0.705,0.248
			c0.309,0,0.595-0.066,0.855-0.201c0.263-0.137,0.455-0.313,0.576-0.525c0.141-0.234,0.212-0.626,0.212-1.169V48.381z"/>
		<path fill="#FFFFFF" d="M71.17,49.271v1.308c0,0.317-0.074,0.557-0.223,0.713c-0.149,0.158-0.338,0.237-0.568,0.237
			c-0.225,0-0.411-0.081-0.556-0.239c-0.146-0.16-0.217-0.397-0.217-0.711v-4.355c0-0.702,0.253-1.055,0.763-1.055
			c0.259,0,0.447,0.082,0.562,0.246s0.178,0.406,0.188,0.729c0.188-0.32,0.379-0.563,0.577-0.729
			c0.197-0.164,0.459-0.246,0.788-0.246c0.328,0,0.646,0.082,0.957,0.246s0.465,0.381,0.465,0.651c0,0.192-0.066,0.351-0.198,0.474
			c-0.132,0.125-0.274,0.188-0.427,0.188c-0.058,0-0.196-0.035-0.416-0.106c-0.22-0.069-0.414-0.104-0.582-0.104
			c-0.229,0-0.417,0.062-0.562,0.181c-0.146,0.119-0.258,0.299-0.338,0.536c-0.08,0.236-0.135,0.519-0.167,0.845
			C71.185,48.402,71.17,48.801,71.17,49.271z"/>
		<path fill="#FFFFFF" d="M79.961,48.461v2.08c0,0.33-0.074,0.576-0.224,0.739c-0.148,0.164-0.346,0.247-0.59,0.247
			c-0.237,0-0.43-0.083-0.576-0.247c-0.147-0.163-0.22-0.409-0.22-0.739v-2.492c0-0.394-0.015-0.697-0.041-0.916
			c-0.027-0.219-0.1-0.396-0.218-0.535c-0.117-0.139-0.305-0.209-0.562-0.209c-0.512,0-0.849,0.176-1.011,0.525
			c-0.162,0.352-0.244,0.855-0.244,1.514v2.113c0,0.324-0.072,0.571-0.22,0.737c-0.147,0.164-0.342,0.249-0.583,0.249
			c-0.237,0-0.432-0.085-0.582-0.249c-0.15-0.166-0.227-0.413-0.227-0.737v-4.477c0-0.294,0.066-0.518,0.204-0.67
			c0.135-0.152,0.313-0.229,0.537-0.229c0.213,0,0.393,0.071,0.535,0.215c0.144,0.145,0.216,0.341,0.216,0.594v0.148
			c0.271-0.326,0.561-0.563,0.87-0.718c0.311-0.151,0.654-0.229,1.032-0.229c0.394,0,0.73,0.077,1.014,0.233
			c0.284,0.156,0.517,0.395,0.699,0.711c0.263-0.32,0.546-0.56,0.848-0.715c0.302-0.154,0.637-0.229,1.002-0.229
			c0.429,0,0.797,0.084,1.107,0.252c0.31,0.167,0.541,0.407,0.691,0.722c0.136,0.283,0.201,0.729,0.201,1.336v3.055
			c0,0.328-0.074,0.574-0.223,0.738c-0.15,0.164-0.346,0.247-0.59,0.247c-0.237,0-0.433-0.085-0.583-0.249
			c-0.151-0.166-0.228-0.413-0.228-0.736v-2.631c0-0.336-0.014-0.604-0.043-0.809c-0.027-0.202-0.105-0.372-0.23-0.51
			c-0.126-0.139-0.317-0.207-0.573-0.207c-0.207,0-0.402,0.063-0.587,0.185c-0.186,0.123-0.33,0.285-0.434,0.493
			C80.018,47.329,79.961,47.793,79.961,48.461z"/>
		<path fill="#FFFFFF" d="M90.999,48.349c0,0.466-0.073,0.896-0.219,1.289c-0.146,0.393-0.354,0.731-0.63,1.015
			c-0.274,0.282-0.604,0.5-0.986,0.649s-0.813,0.227-1.289,0.227c-0.474,0-0.898-0.077-1.277-0.229
			c-0.378-0.151-0.705-0.37-0.982-0.655c-0.277-0.283-0.488-0.62-0.63-1.008c-0.145-0.388-0.214-0.816-0.214-1.286
			c0-0.475,0.07-0.909,0.217-1.303c0.145-0.393,0.354-0.729,0.625-1.008c0.27-0.278,0.599-0.494,0.985-0.646
			s0.813-0.228,1.277-0.228c0.474,0,0.903,0.076,1.289,0.229s0.716,0.37,0.992,0.652c0.275,0.283,0.483,0.619,0.627,1.009
			C90.927,47.448,90.999,47.877,90.999,48.349z M89.428,48.349c0-0.64-0.141-1.136-0.422-1.49c-0.28-0.354-0.658-0.532-1.132-0.532
			c-0.306,0-0.575,0.079-0.808,0.236c-0.232,0.159-0.413,0.395-0.539,0.703c-0.125,0.311-0.189,0.67-0.189,1.083
			c0,0.407,0.063,0.766,0.188,1.069c0.124,0.307,0.301,0.541,0.533,0.703c0.23,0.162,0.503,0.243,0.815,0.243
			c0.474,0,0.852-0.179,1.132-0.536C89.289,49.473,89.428,48.979,89.428,48.349z"/>
		<path fill="#FFFFFF" d="M93.651,46.034v0.188c0.274-0.362,0.576-0.63,0.902-0.802c0.326-0.17,0.702-0.254,1.127-0.254
			c0.411,0,0.78,0.09,1.104,0.269c0.324,0.183,0.567,0.437,0.729,0.764c0.104,0.19,0.171,0.397,0.2,0.619s0.047,0.504,0.047,0.849
			v2.91c0,0.314-0.071,0.553-0.217,0.711c-0.144,0.16-0.329,0.241-0.559,0.241c-0.232,0-0.423-0.083-0.566-0.247
			c-0.146-0.164-0.219-0.398-0.219-0.705V47.97c0-0.517-0.071-0.91-0.216-1.185c-0.144-0.272-0.429-0.408-0.855-0.408
			c-0.277,0-0.532,0.082-0.763,0.248c-0.229,0.166-0.396,0.395-0.504,0.687c-0.076,0.231-0.114,0.668-0.114,1.306v1.961
			c0,0.316-0.073,0.557-0.222,0.713c-0.146,0.157-0.338,0.238-0.569,0.238c-0.227,0-0.41-0.083-0.558-0.246
			c-0.146-0.164-0.217-0.398-0.217-0.705v-4.521c0-0.301,0.063-0.521,0.193-0.668c0.131-0.146,0.309-0.223,0.534-0.223
			c0.137,0,0.261,0.033,0.372,0.1c0.109,0.064,0.198,0.162,0.266,0.292C93.619,45.686,93.651,45.846,93.651,46.034z"/>
		<path fill="#FFFFFF" d="M100.11,44.44c-0.218,0-0.403-0.066-0.56-0.201c-0.154-0.134-0.231-0.322-0.231-0.566
			c0-0.223,0.08-0.403,0.238-0.547c0.158-0.145,0.343-0.215,0.553-0.215c0.202,0,0.382,0.063,0.538,0.194
			c0.156,0.13,0.233,0.317,0.233,0.565c0,0.24-0.075,0.43-0.229,0.563C100.502,44.374,100.32,44.44,100.11,44.44z M100.885,46.056
			v4.522c0,0.313-0.073,0.551-0.225,0.709c-0.146,0.159-0.338,0.24-0.565,0.24c-0.23,0-0.415-0.083-0.561-0.244
			c-0.143-0.164-0.215-0.399-0.215-0.705V46.1c0-0.311,0.072-0.542,0.215-0.699c0.146-0.156,0.329-0.234,0.561-0.234
			c0.229,0,0.419,0.078,0.565,0.234C100.808,45.559,100.885,45.777,100.885,46.056z"/>
		<path fill="#FFFFFF" d="M108.111,49.592c0,0.193-0.06,0.402-0.176,0.623c-0.115,0.223-0.293,0.434-0.531,0.635
			c-0.239,0.201-0.54,0.361-0.902,0.482c-0.363,0.123-0.771,0.186-1.227,0.186c-0.968,0-1.725-0.281-2.267-0.846
			c-0.542-0.563-0.813-1.319-0.813-2.268c0-0.643,0.124-1.209,0.373-1.701c0.249-0.494,0.604-0.875,1.077-1.146
			c0.47-0.271,1.029-0.402,1.686-0.402c0.404,0,0.775,0.06,1.114,0.177c0.338,0.119,0.624,0.272,0.858,0.459
			c0.233,0.188,0.415,0.388,0.537,0.6c0.124,0.213,0.188,0.411,0.188,0.593c0,0.188-0.069,0.347-0.209,0.478
			c-0.141,0.131-0.31,0.194-0.508,0.194c-0.131,0-0.237-0.032-0.323-0.1s-0.183-0.177-0.29-0.325c-0.19-0.29-0.391-0.507-0.6-0.652
			c-0.208-0.146-0.473-0.218-0.793-0.218c-0.462,0-0.835,0.181-1.117,0.541s-0.424,0.854-0.424,1.481
			c0,0.295,0.034,0.563,0.106,0.812s0.18,0.456,0.315,0.63c0.138,0.176,0.304,0.307,0.499,0.396c0.192,0.09,0.407,0.135,0.643,0.135
			c0.313,0,0.581-0.072,0.805-0.218c0.225-0.146,0.422-0.366,0.594-0.664c0.097-0.177,0.197-0.313,0.311-0.412
			c0.11-0.101,0.247-0.149,0.407-0.149c0.188,0,0.349,0.072,0.476,0.219C108.048,49.273,108.111,49.427,108.111,49.592z"/>
		<path fill="#FFFFFF" d="M110.088,51.542c-0.252,0-0.47-0.078-0.652-0.232c-0.183-0.153-0.274-0.371-0.274-0.648
			c0-0.24,0.091-0.443,0.271-0.607s0.392-0.247,0.637-0.247c0.184,0,0.351,0.05,0.498,0.149s0.268,0.244,0.352,0.438
			c0.083,0.191,0.125,0.432,0.125,0.714c0,0.38-0.08,0.731-0.239,1.063c-0.161,0.332-0.356,0.593-0.589,0.783
			c-0.231,0.193-0.439,0.291-0.627,0.291c-0.119,0-0.215-0.039-0.289-0.117c-0.073-0.078-0.111-0.17-0.111-0.271
			c0-0.154,0.079-0.283,0.234-0.379C109.865,52.226,110.088,51.915,110.088,51.542z"/>
		<path fill="#FFFFFF" d="M115.812,50.491v-6.619c0-0.344,0.078-0.602,0.234-0.772c0.155-0.171,0.358-0.257,0.606-0.257
			c0.256,0,0.463,0.084,0.622,0.255c0.158,0.17,0.237,0.429,0.237,0.774v6.619c0,0.35-0.079,0.607-0.237,0.779
			c-0.159,0.172-0.366,0.259-0.622,0.259c-0.244,0-0.446-0.087-0.604-0.262C115.892,51.094,115.812,50.834,115.812,50.491z"/>
		<path fill="#FFFFFF" d="M120.73,46.034v0.188c0.273-0.362,0.576-0.63,0.901-0.802c0.326-0.17,0.701-0.254,1.126-0.254
			c0.413,0,0.781,0.09,1.107,0.269c0.323,0.183,0.566,0.437,0.728,0.764c0.104,0.19,0.17,0.397,0.201,0.619
			c0.03,0.222,0.045,0.504,0.045,0.849v2.91c0,0.314-0.069,0.553-0.215,0.711c-0.145,0.16-0.33,0.241-0.56,0.241
			c-0.232,0-0.422-0.083-0.567-0.247c-0.145-0.164-0.217-0.398-0.217-0.705V47.97c0-0.517-0.071-0.91-0.215-1.185
			c-0.146-0.272-0.432-0.408-0.856-0.408c-0.279,0-0.533,0.082-0.763,0.248s-0.397,0.395-0.504,0.687
			c-0.076,0.231-0.115,0.668-0.115,1.306v1.961c0,0.316-0.073,0.557-0.22,0.713c-0.147,0.157-0.338,0.238-0.57,0.238
			c-0.227,0-0.41-0.083-0.557-0.246c-0.147-0.164-0.218-0.398-0.218-0.705v-4.521c0-0.301,0.063-0.521,0.193-0.668
			s0.31-0.223,0.533-0.223c0.137,0,0.262,0.033,0.371,0.1c0.112,0.063,0.2,0.162,0.268,0.292
			C120.696,45.686,120.73,45.846,120.73,46.034z"/>
		<path fill="#FFFFFF" d="M127.818,46.034v0.188c0.275-0.362,0.577-0.63,0.902-0.802c0.326-0.17,0.702-0.254,1.127-0.254
			c0.411,0,0.78,0.09,1.105,0.269c0.324,0.183,0.566,0.437,0.729,0.764c0.104,0.19,0.17,0.397,0.199,0.619s0.047,0.504,0.047,0.849
			v2.91c0,0.314-0.071,0.553-0.216,0.711c-0.144,0.16-0.329,0.241-0.56,0.241c-0.231,0-0.423-0.083-0.566-0.247
			c-0.146-0.164-0.219-0.398-0.219-0.705V47.97c0-0.517-0.071-0.91-0.215-1.185c-0.143-0.272-0.429-0.408-0.855-0.408
			c-0.278,0-0.532,0.082-0.763,0.248c-0.229,0.166-0.396,0.395-0.504,0.687c-0.077,0.231-0.115,0.668-0.115,1.306v1.961
			c0,0.316-0.072,0.557-0.221,0.713c-0.148,0.157-0.338,0.238-0.57,0.238c-0.226,0-0.41-0.083-0.557-0.246
			c-0.146-0.164-0.218-0.398-0.218-0.705v-4.521c0-0.301,0.064-0.521,0.194-0.668s0.309-0.223,0.533-0.223
			c0.138,0,0.262,0.033,0.372,0.1c0.11,0.064,0.199,0.162,0.267,0.292C127.786,45.686,127.818,45.846,127.818,46.034z"/>
		<path fill="#FFFFFF" d="M139.344,48.349c0,0.466-0.071,0.896-0.219,1.289c-0.146,0.396-0.354,0.731-0.63,1.015
			c-0.276,0.284-0.604,0.5-0.986,0.649c-0.381,0.149-0.813,0.227-1.287,0.227c-0.476,0-0.899-0.077-1.277-0.229
			c-0.379-0.151-0.707-0.37-0.983-0.655c-0.275-0.283-0.485-0.62-0.63-1.008c-0.144-0.388-0.216-0.816-0.216-1.286
			c0-0.475,0.073-0.909,0.218-1.303c0.146-0.393,0.355-0.729,0.624-1.008c0.272-0.278,0.603-0.494,0.987-0.646
			s0.811-0.228,1.277-0.228c0.473,0,0.901,0.076,1.287,0.229c0.388,0.152,0.719,0.37,0.991,0.652
			c0.276,0.283,0.485,0.619,0.628,1.009C139.273,47.448,139.344,47.877,139.344,48.349z M137.775,48.349
			c0-0.64-0.143-1.136-0.422-1.49c-0.281-0.354-0.659-0.532-1.132-0.532c-0.309,0-0.574,0.079-0.81,0.236
			c-0.231,0.159-0.413,0.395-0.539,0.703c-0.127,0.309-0.188,0.67-0.188,1.083c0,0.407,0.063,0.766,0.187,1.069
			c0.124,0.307,0.302,0.541,0.532,0.703s0.504,0.243,0.817,0.243c0.473,0,0.851-0.179,1.132-0.536
			C137.634,49.473,137.775,48.979,137.775,48.349z"/>
		<path fill="#FFFFFF" d="M141.528,46.142l1.268,3.552l1.363-3.707c0.105-0.299,0.213-0.51,0.313-0.634
			c0.104-0.123,0.26-0.187,0.471-0.187c0.199,0,0.367,0.066,0.508,0.199c0.141,0.135,0.208,0.289,0.208,0.465
			c0,0.068-0.012,0.148-0.036,0.24c-0.023,0.092-0.054,0.18-0.086,0.26s-0.069,0.17-0.112,0.272l-1.502,3.728
			c-0.041,0.104-0.096,0.241-0.161,0.404c-0.066,0.164-0.142,0.307-0.225,0.424c-0.082,0.114-0.185,0.206-0.304,0.271
			c-0.121,0.063-0.269,0.098-0.438,0.098c-0.223,0-0.398-0.05-0.53-0.151s-0.229-0.211-0.291-0.332
			c-0.063-0.119-0.172-0.355-0.318-0.713l-1.49-3.686c-0.033-0.092-0.068-0.186-0.104-0.273c-0.035-0.093-0.065-0.188-0.093-0.281
			c-0.023-0.096-0.037-0.178-0.037-0.247c0-0.105,0.033-0.212,0.1-0.316c0.063-0.104,0.153-0.19,0.269-0.259
			c0.116-0.066,0.239-0.102,0.373-0.102c0.261,0,0.439,0.074,0.536,0.225C141.301,45.542,141.409,45.792,141.528,46.142z"/>
		<path fill="#FFFFFF" d="M150.582,50.647c-0.378,0.294-0.743,0.516-1.098,0.661s-0.75,0.221-1.188,0.221
			c-0.4,0-0.753-0.079-1.058-0.237c-0.305-0.156-0.539-0.373-0.703-0.645c-0.163-0.271-0.246-0.564-0.246-0.884
			c0-0.429,0.137-0.792,0.406-1.095c0.271-0.301,0.646-0.504,1.118-0.605c0.099-0.023,0.346-0.074,0.738-0.154
			c0.394-0.08,0.73-0.154,1.013-0.222c0.279-0.065,0.585-0.147,0.914-0.245c-0.021-0.411-0.104-0.714-0.25-0.906
			c-0.146-0.19-0.451-0.289-0.913-0.289c-0.396,0-0.697,0.058-0.896,0.166c-0.202,0.109-0.373,0.276-0.519,0.498
			c-0.144,0.223-0.244,0.368-0.303,0.439c-0.062,0.07-0.188,0.105-0.382,0.105c-0.176,0-0.327-0.058-0.454-0.17
			c-0.131-0.113-0.192-0.258-0.192-0.434c0-0.275,0.098-0.542,0.292-0.803c0.194-0.26,0.498-0.475,0.91-0.644
			c0.413-0.167,0.927-0.251,1.543-0.251c0.688,0,1.228,0.081,1.621,0.242c0.394,0.162,0.672,0.42,0.834,0.771
			c0.162,0.351,0.243,0.816,0.243,1.398c0,0.366,0,0.68-0.003,0.934c-0.002,0.258-0.006,0.543-0.01,0.855
			c0,0.294,0.05,0.602,0.146,0.919c0.098,0.318,0.146,0.524,0.146,0.616c0,0.158-0.075,0.308-0.227,0.438
			c-0.151,0.133-0.321,0.198-0.514,0.198c-0.16,0-0.318-0.075-0.478-0.228C150.919,51.153,150.759,50.933,150.582,50.647z
			 M150.479,48.381c-0.23,0.084-0.564,0.175-1.001,0.27c-0.438,0.094-0.74,0.162-0.908,0.205s-0.328,0.129-0.48,0.259
			c-0.151,0.128-0.229,0.306-0.229,0.534c0,0.237,0.091,0.439,0.271,0.605s0.414,0.248,0.705,0.248c0.311,0,0.596-0.066,0.855-0.201
			c0.262-0.137,0.453-0.313,0.575-0.525c0.143-0.234,0.213-0.626,0.213-1.169V48.381L150.479,48.381z"/>
		<path fill="#FFFFFF" d="M153.396,45.306h0.173v-0.94c0-0.253,0.007-0.449,0.021-0.594c0.015-0.145,0.052-0.268,0.111-0.37
			c0.062-0.106,0.148-0.192,0.264-0.261c0.115-0.066,0.241-0.102,0.386-0.102c0.196,0,0.379,0.075,0.538,0.225
			c0.104,0.1,0.175,0.222,0.201,0.363c0.028,0.145,0.043,0.348,0.043,0.609v1.066h0.573c0.222,0,0.393,0.053,0.507,0.156
			c0.117,0.104,0.177,0.239,0.177,0.404c0,0.209-0.084,0.356-0.25,0.439c-0.166,0.084-0.402,0.127-0.714,0.127h-0.293v2.876
			c0,0.245,0.012,0.433,0.027,0.565c0.017,0.131,0.063,0.236,0.137,0.318c0.074,0.083,0.195,0.124,0.364,0.124
			c0.091,0,0.215-0.017,0.372-0.049c0.156-0.032,0.277-0.05,0.367-0.05c0.126,0,0.238,0.052,0.341,0.152
			c0.101,0.102,0.15,0.227,0.15,0.375c0,0.252-0.138,0.445-0.413,0.578c-0.273,0.135-0.67,0.2-1.187,0.2
			c-0.488,0-0.857-0.083-1.111-0.245c-0.252-0.164-0.416-0.393-0.494-0.684c-0.078-0.29-0.117-0.678-0.117-1.163V46.43h-0.207
			c-0.227,0-0.397-0.055-0.517-0.16s-0.179-0.242-0.179-0.405c0-0.165,0.063-0.3,0.188-0.405
			C152.979,45.355,153.159,45.306,153.396,45.306z"/>
		<path fill="#FFFFFF" d="M158.256,44.44c-0.217,0-0.403-0.066-0.559-0.201c-0.155-0.134-0.232-0.322-0.232-0.566
			c0-0.223,0.08-0.403,0.238-0.547c0.158-0.145,0.343-0.215,0.553-0.215c0.202,0,0.383,0.063,0.539,0.194
			c0.156,0.13,0.234,0.317,0.234,0.565c0,0.24-0.076,0.43-0.229,0.563C158.647,44.374,158.466,44.44,158.256,44.44z M159.03,46.056
			v4.522c0,0.313-0.074,0.551-0.224,0.709c-0.148,0.159-0.34,0.24-0.567,0.24s-0.415-0.083-0.559-0.244
			c-0.145-0.164-0.217-0.399-0.217-0.705V46.1c0-0.311,0.072-0.542,0.217-0.699c0.144-0.156,0.328-0.234,0.559-0.234
			s0.419,0.078,0.567,0.234C158.955,45.559,159.03,45.777,159.03,46.056z"/>
		<path fill="#FFFFFF" d="M161.752,46.142l1.267,3.552l1.364-3.707c0.105-0.299,0.212-0.51,0.313-0.634
			c0.104-0.123,0.26-0.187,0.472-0.187c0.196,0,0.367,0.066,0.507,0.199c0.14,0.135,0.209,0.289,0.209,0.465
			c0,0.068-0.014,0.148-0.036,0.24c-0.025,0.092-0.056,0.18-0.086,0.26c-0.033,0.08-0.07,0.17-0.111,0.272l-1.502,3.728
			c-0.042,0.104-0.098,0.241-0.163,0.404c-0.066,0.164-0.144,0.307-0.225,0.424c-0.082,0.114-0.184,0.206-0.305,0.271
			c-0.119,0.063-0.267,0.098-0.438,0.098c-0.222,0-0.396-0.05-0.529-0.151c-0.132-0.102-0.229-0.211-0.293-0.332
			c-0.063-0.119-0.168-0.355-0.316-0.713l-1.488-3.686c-0.035-0.092-0.07-0.186-0.106-0.273c-0.036-0.093-0.065-0.188-0.092-0.281
			c-0.024-0.096-0.037-0.178-0.037-0.247c0-0.105,0.031-0.212,0.098-0.316c0.065-0.104,0.155-0.19,0.271-0.259
			c0.115-0.066,0.239-0.102,0.372-0.102c0.261,0,0.438,0.074,0.536,0.225C161.526,45.542,161.634,45.792,161.752,46.142z"/>
		<path fill="#FFFFFF" d="M171.219,48.733h-3.061c0.004,0.354,0.075,0.667,0.215,0.939c0.142,0.271,0.324,0.476,0.558,0.613
			c0.229,0.137,0.484,0.204,0.766,0.204c0.187,0,0.358-0.021,0.513-0.065c0.155-0.043,0.307-0.111,0.45-0.205
			c0.146-0.094,0.278-0.192,0.401-0.301c0.122-0.107,0.278-0.252,0.476-0.437c0.08-0.069,0.194-0.104,0.343-0.104
			c0.161,0,0.291,0.045,0.392,0.134c0.101,0.088,0.147,0.211,0.147,0.372c0,0.142-0.055,0.306-0.166,0.496
			c-0.108,0.188-0.275,0.369-0.502,0.543c-0.223,0.175-0.503,0.317-0.842,0.434c-0.338,0.115-0.727,0.173-1.166,0.173
			c-1.005,0-1.786-0.286-2.345-0.858c-0.559-0.573-0.836-1.353-0.836-2.332c0-0.463,0.067-0.895,0.206-1.289
			c0.138-0.394,0.339-0.731,0.603-1.016c0.264-0.283,0.588-0.5,0.976-0.65c0.386-0.149,0.813-0.227,1.282-0.227
			c0.61,0,1.138,0.129,1.572,0.387c0.438,0.259,0.766,0.592,0.981,1c0.22,0.408,0.326,0.824,0.326,1.25
			c0,0.394-0.11,0.647-0.338,0.766C171.944,48.674,171.628,48.733,171.219,48.733z M168.158,47.843h2.837
			c-0.038-0.534-0.183-0.935-0.433-1.2c-0.249-0.264-0.58-0.396-0.988-0.396c-0.39,0-0.71,0.135-0.961,0.402
			C168.364,46.918,168.212,47.317,168.158,47.843z"/>
	</g>
	<g>
		<g id="LWPOLYLINE_65_">
			<polyline fill="#FFFFFF" points="135.521,20.768 134.793,22.281 139.29,22.281 139.29,20.768 135.521,20.768 			"/>
		</g>
		<g id="LWPOLYLINE_64_">
			<polyline fill="#FFFFFF" points="172.288,22.281 157.402,22.281 157.402,20.768 170.038,20.768 170.447,20.791 170.848,20.886 
				171.229,21.048 171.581,21.283 171.874,21.57 172.109,21.908 172.288,22.281 			"/>
		</g>
		<g id="LWPOLYLINE_63_">
			<polygon fill="#FFFFFF" points="153.604,20.768 153.993,20.818 154.359,20.933 154.706,21.103 155.014,21.332 155.292,21.607 
				155.506,21.927 155.67,22.281 141.008,22.281 141.172,21.927 141.402,21.607 141.667,21.332 141.984,21.103 142.318,20.933 
				142.702,20.818 143.081,20.768 			"/>
		</g>
		<g id="LWPOLYLINE_62_">
			<polyline fill="#FFFFFF" points="124.654,22.281 123.926,20.768 120.165,20.768 120.165,22.281 124.654,22.281 			"/>
		</g>
		<g id="LWPOLYLINE_61_">
			<polyline fill="#FFFFFF" points="112.95,22.281 112.348,20.768 107.584,20.768 106.978,22.281 112.95,22.281 			"/>
		</g>
		<g id="LWPOLYLINE_60_">
			<polyline fill="#FFFFFF" points="134.545,22.789 133.803,24.298 139.29,24.298 139.29,22.789 134.545,22.789 			"/>
		</g>
		<g id="LWPOLYLINE_59_">
			<polyline fill="#FFFFFF" points="172.508,24.298 172.508,22.789 157.402,22.789 157.402,24.298 172.508,24.298 			"/>
		</g>
		<g id="LWPOLYLINE_58_">
			<polyline fill="#FFFFFF" points="155.897,24.298 155.897,22.789 140.792,22.789 140.792,24.298 155.897,24.298 			"/>
		</g>
		<g id="LWPOLYLINE_57_">
			<polyline fill="#FFFFFF" points="113.758,24.298 113.154,22.789 106.771,22.789 106.172,24.298 113.758,24.298 			"/>
		</g>
		<g id="LWPOLYLINE_56_">
			<polyline fill="#FFFFFF" points="133.566,24.794 132.834,26.305 139.29,26.305 139.29,24.794 133.566,24.794 			"/>
		</g>
		<g id="LWPOLYLINE_55_">
			<polyline fill="#FFFFFF" points="172.508,26.305 172.508,24.794 168.734,24.794 168.734,26.305 172.508,26.305 			"/>
		</g>
		<g id="LWPOLYLINE_54_">
			<polyline fill="#FFFFFF" points="161.184,26.305 161.184,24.794 157.402,24.794 157.402,26.305 161.184,26.305 			"/>
		</g>
		<g id="LWPOLYLINE_53_">
			<polyline fill="#FFFFFF" points="155.897,26.305 155.897,24.794 152.12,24.794 152.12,26.305 155.897,26.305 			"/>
		</g>
		<g id="LWPOLYLINE_52_">
			<polyline fill="#FFFFFF" points="126.616,26.305 125.885,24.794 120.165,24.794 120.165,26.305 126.616,26.305 			"/>
		</g>
		<g id="LWPOLYLINE_51_">
			<polyline fill="#FFFFFF" points="114.559,26.305 113.952,24.794 105.971,24.794 105.366,26.305 109.645,26.305 109.963,25.496 
				110.284,26.305 114.559,26.305 			"/>
		</g>
		<g id="LWPOLYLINE_50_">
			<polyline fill="#FFFFFF" points="172.508,28.32 172.508,26.81 168.734,26.81 168.734,28.32 172.508,28.32 			"/>
		</g>
		<g id="LWPOLYLINE_49_">
			<polyline fill="#FFFFFF" points="161.184,28.32 161.184,26.81 157.402,26.81 157.402,28.32 161.184,28.32 			"/>
		</g>
		<g id="LWPOLYLINE_48_">
			<polyline fill="#FFFFFF" points="155.897,28.32 155.897,26.81 152.12,26.81 152.12,28.32 155.897,28.32 			"/>
		</g>
		<g id="LWPOLYLINE_47_">
			<polyline fill="#FFFFFF" points="144.564,28.32 144.564,26.81 140.792,26.81 140.792,28.32 144.564,28.32 			"/>
		</g>
		<g id="LWPOLYLINE_46_">
			<polyline fill="#FFFFFF" points="139.29,28.32 139.29,26.81 132.594,26.81 131.848,28.32 139.29,28.32 			"/>
		</g>
		<g id="LWPOLYLINE_45_">
			<polyline fill="#FFFFFF" points="127.6,28.32 126.859,26.81 120.165,26.81 120.165,28.32 127.6,28.32 			"/>
		</g>
		<g id="LWPOLYLINE_44_">
			<polyline fill="#FFFFFF" points="115.364,28.32 114.764,26.81 110.493,26.81 111.092,28.32 115.364,28.32 			"/>
		</g>
		<g id="LWPOLYLINE_43_">
			<polyline fill="#FFFFFF" points="108.829,28.32 109.434,26.81 105.161,26.81 104.559,28.32 108.829,28.32 			"/>
		</g>
		<g id="LWPOLYLINE_42_">
			<polyline fill="#FFFFFF" points="157.402,28.824 157.402,30.333 161.184,30.333 161.184,28.824 157.402,28.824 			"/>
		</g>
		<g id="LWPOLYLINE_41_">
			<polyline fill="#FFFFFF" points="172.508,30.333 172.508,28.824 168.734,28.824 168.734,30.333 172.508,30.333 			"/>
		</g>
		<g id="LWPOLYLINE_40_">
			<polyline fill="#FFFFFF" points="155.897,30.333 155.897,28.824 152.12,28.824 152.12,30.333 155.897,30.333 			"/>
		</g>
		<g id="LWPOLYLINE_39_">
			<polyline fill="#FFFFFF" points="144.564,30.333 144.564,28.824 140.792,28.824 140.792,30.333 144.564,30.333 			"/>
		</g>
		<g id="LWPOLYLINE_38_">
			<polyline fill="#FFFFFF" points="135.512,30.333 139.29,30.333 139.29,28.824 131.609,28.824 130.874,30.333 135.159,30.333 
				135.512,29.6 135.512,30.333 			"/>
		</g>
		<g id="LWPOLYLINE_37_">
			<polyline fill="#FFFFFF" points="123.934,29.6 124.29,30.333 128.572,30.333 127.84,28.824 120.165,28.824 120.165,30.333 
				123.934,30.333 123.934,29.6 			"/>
		</g>
		<g id="LWPOLYLINE_36_">
			<polyline fill="#FFFFFF" points="116.163,30.333 115.564,28.824 111.295,28.824 111.904,30.333 116.163,30.333 			"/>
		</g>
		<g id="LWPOLYLINE_35_">
			<polyline fill="#FFFFFF" points="108.023,30.333 108.626,28.824 104.359,28.824 103.751,30.333 108.023,30.333 			"/>
		</g>
		<g id="LWPOLYLINE_34_">
			<polyline fill="#FFFFFF" points="130.635,30.836 129.893,32.343 134.176,32.343 134.918,30.836 130.635,30.836 			"/>
		</g>
		<g id="LWPOLYLINE_33_">
			<polyline fill="#FFFFFF" points="152.12,30.836 152.12,32.343 155.897,32.343 155.897,30.836 152.12,30.836 			"/>
		</g>
		<g id="LWPOLYLINE_32_">
			<polyline fill="#FFFFFF" points="172.508,32.343 172.508,30.836 168.734,30.836 168.734,32.343 172.508,32.343 			"/>
		</g>
		<g id="LWPOLYLINE_31_">
			<polyline fill="#FFFFFF" points="161.184,32.343 161.184,30.836 157.402,30.836 157.402,32.343 161.184,32.343 			"/>
		</g>
		<g id="LWPOLYLINE_30_">
			<polyline fill="#FFFFFF" points="144.564,32.343 144.564,30.836 140.792,30.836 140.792,32.343 144.564,32.343 			"/>
		</g>
		<g id="LWPOLYLINE_29_">
			<polyline fill="#FFFFFF" points="139.29,32.343 139.29,30.836 135.512,30.836 135.512,32.343 139.29,32.343 			"/>
		</g>
		<g id="LWPOLYLINE_28_">
			<polyline fill="#FFFFFF" points="129.557,32.343 128.816,30.836 124.538,30.836 125.266,32.343 129.557,32.343 			"/>
		</g>
		<g id="LWPOLYLINE_27_">
			<polyline fill="#FFFFFF" points="123.934,32.343 123.934,30.836 120.165,30.836 120.165,32.343 123.934,32.343 			"/>
		</g>
		<g id="LWPOLYLINE_26_">
			<polyline fill="#FFFFFF" points="116.977,32.343 116.374,30.836 103.547,30.836 102.95,32.343 116.977,32.343 			"/>
		</g>
		<g id="LWPOLYLINE_25_">
			<polyline fill="#FFFFFF" points="135.512,32.846 135.512,34.359 139.29,34.359 139.29,32.846 135.512,32.846 			"/>
		</g>
		<g id="LWPOLYLINE_24_">
			<polyline fill="#FFFFFF" points="152.12,32.846 152.12,34.359 155.897,34.359 155.897,32.846 152.12,32.846 			"/>
		</g>
		<g id="LWPOLYLINE_23_">
			<polyline fill="#FFFFFF" points="172.508,34.359 172.508,32.846 168.734,32.846 168.734,34.359 172.508,34.359 			"/>
		</g>
		<g id="LWPOLYLINE_22_">
			<polyline fill="#FFFFFF" points="161.184,34.359 161.184,32.846 157.402,32.846 157.402,34.359 161.184,34.359 			"/>
		</g>
		<g id="LWPOLYLINE_21_">
			<polyline fill="#FFFFFF" points="144.564,34.359 144.564,32.846 140.792,32.846 140.792,34.359 144.564,34.359 			"/>
		</g>
		<g id="LWPOLYLINE_20_">
			<polyline fill="#FFFFFF" points="133.204,34.359 133.936,32.846 125.521,32.846 126.251,34.359 133.204,34.359 			"/>
		</g>
		<g id="LWPOLYLINE_19_">
			<polyline fill="#FFFFFF" points="123.934,34.359 123.934,32.846 120.165,32.846 120.165,34.359 123.934,34.359 			"/>
		</g>
		<g id="LWPOLYLINE_18_">
			<polyline fill="#FFFFFF" points="117.773,34.359 117.174,32.846 102.749,32.846 102.135,34.359 117.773,34.359 			"/>
		</g>
		<g id="LWPOLYLINE_17_">
			<polyline fill="#FFFFFF" points="172.508,34.859 157.402,34.859 157.402,36.374 172.508,36.374 172.508,34.859 			"/>
		</g>
		<g id="LWPOLYLINE_16_">
			<polyline fill="#FFFFFF" points="155.897,36.374 155.897,34.859 140.792,34.859 140.792,36.374 155.897,36.374 			"/>
		</g>
		<g id="LWPOLYLINE_15_">
			<polyline fill="#FFFFFF" points="139.29,36.374 139.29,34.859 135.512,34.859 135.512,36.374 139.29,36.374 			"/>
		</g>
		<g id="LWPOLYLINE_14_">
			<polyline fill="#FFFFFF" points="132.219,36.374 132.959,34.859 126.488,34.859 127.221,36.374 132.219,36.374 			"/>
		</g>
		<g id="LWPOLYLINE_13_">
			<polyline fill="#FFFFFF" points="123.934,36.374 123.934,34.859 120.165,34.859 120.165,36.374 123.934,36.374 			"/>
		</g>
		<g id="LWPOLYLINE_12_">
			<polyline fill="#FFFFFF" points="118.586,36.374 117.982,34.859 113.709,34.859 114.314,36.374 118.586,36.374 			"/>
		</g>
		<g id="LWPOLYLINE_11_">
			<polyline fill="#FFFFFF" points="105.616,36.374 106.215,34.859 101.943,34.859 101.338,36.374 105.616,36.374 			"/>
		</g>
		<g id="LWPOLYLINE_10_">
			<polyline fill="#FFFFFF" points="135.512,36.875 135.512,38.385 139.29,38.385 139.29,36.875 135.512,36.875 			"/>
		</g>
		<g id="LWPOLYLINE_9_">
			<polyline fill="#FFFFFF" points="131.245,38.385 131.973,36.875 127.48,36.875 128.202,38.385 131.245,38.385 			"/>
		</g>
		<g id="LWPOLYLINE_8_">
			<polyline fill="#FFFFFF" points="123.934,38.385 123.934,36.875 120.165,36.875 120.165,38.385 123.934,38.385 			"/>
		</g>
		<g id="LWPOLYLINE_7_">
			<polyline fill="#FFFFFF" points="119.391,38.385 118.786,36.875 114.521,36.875 115.12,38.385 119.391,38.385 			"/>
		</g>
		<g id="LWPOLYLINE_6_">
			<polyline fill="#FFFFFF" points="104.803,38.385 105.409,36.875 101.133,36.875 100.531,38.385 104.803,38.385 			"/>
		</g>
		<g id="LWPOLYLINE_5_">
			<polyline fill="#FFFFFF" points="120.165,22.789 124.898,22.789 125.639,24.298 120.165,24.298 120.165,22.789 			"/>
		</g>
		<g id="LWPOLYLINE_4_">
			<polyline fill="#FFFFFF" points="140.792,24.794 144.564,24.794 144.564,26.305 140.792,26.305 140.792,24.794 			"/>
		</g>
		<g id="ELLIPSE_1_">
			<path fill="#FFFFFF" d="M106.081,18.019c0,0.68,1.744,1.229,3.899,1.229c2.162,0,3.91-0.551,3.91-1.229
				c0-0.682-1.748-1.225-3.91-1.225C107.825,16.794,106.081,17.337,106.081,18.019L106.081,18.019"/>
		</g>
		<g id="LWPOLYLINE_3_">
			<g id="XMLID_1_">
				<g>
					<polygon fill="#FFFFFF" points="116.071,12.513 116.071,12.67 116.057,12.828 114.061,17.223 112.061,16.641 109.972,16.455 
						107.892,16.666 105.868,17.267 103.877,12.828 103.842,12.67 103.842,12.513 103.877,12.355 103.881,12.335 103.917,12.305 
						103.94,12.277 103.979,12.277 104.01,12.251 104.04,12.238 104.079,12.238 104.112,12.256 104.147,12.277 104.168,12.277 
						105.719,14.429 105.764,14.478 105.829,14.518 105.874,14.542 105.945,14.572 106.029,14.582 106.09,14.572 106.143,14.542 
						106.217,14.523 106.275,14.478 106.379,14.361 106.463,14.227 106.522,14.089 106.557,13.927 106.557,13.769 106.073,11.217 
						106.09,11.182 106.09,11.123 106.124,11.084 106.159,11.044 106.204,11.019 106.252,11.005 106.292,11 106.345,11 
						106.389,11.005 106.429,11.019 106.473,11.044 106.502,11.098 107.685,13.799 107.76,13.887 107.857,13.961 107.946,14.02 
						108.064,14.06 108.178,14.08 108.301,14.08 108.411,14.045 108.518,13.996 108.627,13.941 108.695,13.848 109.064,13.311 
						109.327,12.734 109.508,12.119 109.774,9.734 109.786,9.669 109.813,9.65 109.838,9.591 109.87,9.571 109.913,9.532 
						109.952,9.527 110.011,9.527 110.06,9.527 110.095,9.532 110.159,9.532 110.188,9.576 110.209,9.615 110.243,9.659 
						110.267,9.694 110.405,12.119 110.602,12.734 110.854,13.311 111.209,13.848 111.307,13.941 111.396,13.996 111.51,14.045 
						111.627,14.08 111.735,14.08 111.844,14.06 111.977,14.02 112.077,13.961 112.149,13.887 112.232,13.799 113.405,11.098 
						113.445,11.044 113.479,11.019 113.534,11.005 113.573,11 113.624,11 113.682,11.005 113.721,11.019 113.756,11.044 
						113.792,11.084 113.819,11.123 113.834,11.182 113.84,11.217 113.372,13.769 113.372,13.927 113.396,14.089 113.456,14.227 
						113.54,14.361 113.646,14.478 113.696,14.523 113.766,14.542 113.834,14.572 113.898,14.582 113.967,14.572 114.038,14.542 
						114.096,14.518 114.145,14.478 114.2,14.429 115.747,12.277 115.78,12.277 115.805,12.256 115.84,12.238 115.876,12.238 
						115.924,12.251 115.948,12.277 115.982,12.277 115.999,12.305 116.034,12.335 116.057,12.355 					"/>
				</g>
			</g>
		</g>
		<g id="LWPOLYLINE_2_">
			<polyline fill="#FFFFFF" points="172.288,36.875 157.402,36.875 157.402,38.385 170.038,38.385 170.447,38.365 170.848,38.267 
				171.229,38.105 171.581,37.872 171.874,37.586 172.109,37.247 172.288,36.875 			"/>
		</g>
		<g id="LWPOLYLINE_1_">
			<polygon fill="#FFFFFF" points="153.604,38.385 153.993,38.338 154.359,38.224 154.706,38.045 155.014,37.822 155.292,37.542 
				155.506,37.226 155.67,36.875 141.008,36.875 141.172,37.226 141.402,37.542 141.667,37.822 141.984,38.045 142.318,38.224 
				142.702,38.338 143.081,38.385 			"/>
		</g>
	</g>
</g>
</svg>
