<?xml version="1.0" encoding="utf-8"?>
<!-- Generator: Adobe Illustrator 14.0.0, SVG Export Plug-In . SVG Version: 6.00 Build 43363)  -->
<!DOCTYPE svg PUBLIC "-//W3C//DTD SVG 1.1//EN" "http://www.w3.org/Graphics/SVG/1.1/DTD/svg11.dtd">
<svg version="1.1" id="圖層_1" xmlns="http://www.w3.org/2000/svg" xmlns:xlink="http://www.w3.org/1999/xlink" x="0px" y="0px"
	 width="58.085px" height="13.342px" viewBox="0 0 58.085 13.342" enable-background="new 0 0 58.085 13.342" xml:space="preserve">
<g>
	<path fill="#FFFFFF" d="M54.951,13.068c-0.016-1.246-0.025-2.485-0.046-3.727c-0.018-1.239-0.018-2.484-0.018-3.724
		c-0.426-0.006-0.854-0.01-1.276-0.018c0-0.594,0-1.181,0-1.773c1.485,0.004,2.974,0.004,4.475,0.004c0,0.614,0,1.22,0,1.824
		c-0.422-0.004-0.85-0.01-1.267-0.014c0,1.255,0.014,2.519,0.027,3.775c0.018,1.251,0.033,2.517,0.041,3.775
		C56.245,13.15,55.595,13.111,54.951,13.068 M47.284,12.505c-0.021-1.448-0.045-2.893-0.056-4.341
		c-0.012-1.442-0.006-2.889-0.006-4.339c0.729,0,1.458,0.004,2.189,0.004c0.155,0.601,0.319,1.2,0.488,1.799
		c0.166,0.604,0.335,1.212,0.511,1.816c0.122,0.404,0.232,0.815,0.339,1.251c0.11,0.43,0.223,0.889,0.331,1.37
		c-0.063-0.453-0.122-0.908-0.147-1.354c-0.036-0.449-0.056-0.97-0.056-1.561c0-0.552,0-1.104,0-1.659c0-0.55,0-1.102,0-1.661
		c0.629,0.004,1.256,0.004,1.886,0.004c0,1.515-0.004,3.03,0.004,4.546c0.021,1.513,0.046,3.03,0.067,4.545
		c-0.71-0.053-1.409-0.104-2.101-0.155c-0.199-0.658-0.395-1.305-0.593-1.958c-0.195-0.643-0.381-1.291-0.576-1.936
		c-0.124-0.408-0.234-0.821-0.339-1.251c-0.103-0.426-0.19-0.871-0.277-1.338c0.057,0.658,0.091,1.28,0.124,1.868
		c0.037,0.585,0.071,1.127,0.073,1.631c0.006,0.475,0.014,0.956,0.016,1.431c0.002,0.471,0.012,0.954,0.018,1.431
		C48.544,12.602,47.915,12.55,47.284,12.505z M44.009,12.271c-0.015-1.407-0.044-2.818-0.054-4.225c-0.016-1.409,0-2.818,0-4.225
		c0.645,0,1.293,0.002,1.94,0.002c0,1.431-0.008,2.86,0.007,4.291c0.016,1.429,0.031,2.861,0.057,4.288
		C45.313,12.36,44.651,12.317,44.009,12.271z M37.597,6.205c0-0.829,0.219-1.454,0.645-1.872c0.428-0.419,1.067-0.63,1.917-0.63
		c0.861,0,1.495,0.213,1.921,0.64c0.426,0.426,0.65,1.082,0.65,1.938c0,0.577-0.012,1.148,0,1.724
		c0.004,0.573,0.018,1.149,0.025,1.719c0.014,0.858-0.207,1.499-0.622,1.905c-0.426,0.409-1.068,0.583-1.926,0.536
		c-0.847-0.046-1.479-0.282-1.915-0.724s-0.664-1.073-0.672-1.905c-0.004-0.556-0.016-1.104-0.02-1.665
		C37.595,7.318,37.597,6.761,37.597,6.205z M39.56,5.928c0,0.666,0,1.33,0.004,1.988c0.016,0.661,0.016,1.323,0.025,1.985
		c0.008,0.267,0.059,0.462,0.151,0.585c0.101,0.123,0.248,0.188,0.465,0.197c0.205,0.01,0.359-0.041,0.447-0.161
		c0.095-0.12,0.139-0.31,0.133-0.575c-0.009-0.666-0.015-1.338-0.019-2.004c-0.012-0.664-0.012-1.332-0.012-2
		c0-0.271-0.051-0.469-0.144-0.59c-0.097-0.122-0.254-0.185-0.459-0.187c-0.207,0-0.354,0.057-0.453,0.177
		C39.607,5.469,39.56,5.665,39.56,5.928z M33.458,7.226c0.033,0.004,0.064,0.012,0.099,0.014c0.035,0,0.086,0,0.155,0
		c0.341,0.004,0.575-0.055,0.721-0.171c0.146-0.12,0.223-0.313,0.223-0.577c0-0.16,0-0.315,0-0.472c0-0.283-0.074-0.484-0.227-0.603
		c-0.146-0.114-0.405-0.171-0.784-0.171c-0.068,0-0.122,0-0.185,0C33.458,5.903,33.458,6.563,33.458,7.226z M31.558,11.841
		c-0.017-1.338-0.034-2.674-0.042-4.01c-0.006-1.336,0-2.678,0-4.016c0.925,0,1.839,0,2.769,0c0.78,0,1.359,0.173,1.746,0.51
		c0.394,0.335,0.577,0.848,0.577,1.535c0,0.264,0,0.522,0,0.786c0,0.66-0.18,1.162-0.534,1.512c-0.347,0.349-0.856,0.52-1.521,0.514
		c-0.369-0.004-0.724-0.004-1.082-0.006c0.008,0.53,0.016,1.057,0.023,1.594c0.004,0.522,0,1.053,0.008,1.589
		C32.862,11.837,32.208,11.839,31.558,11.841z M26.046,11.992c-0.014-1.363-0.025-2.725-0.031-4.093c-0.006-1.361,0-2.723,0-4.086
		c1.444,0,2.896-0.002,4.353-0.002c0,0.516,0,1.036,0,1.559c-0.808,0.002-1.61,0.004-2.41,0.01c0,0.542,0,1.073,0,1.611
		c0.71-0.01,1.419-0.021,2.128-0.023c0,0.515,0.006,1.022,0.006,1.537c-0.709,0.012-1.408,0.018-2.122,0.031
		c0.01,0.606,0.01,1.21,0.015,1.816c0.829-0.023,1.658-0.035,2.482-0.051c0.01,0.517,0.01,1.036,0.018,1.555
		C29.006,11.89,27.526,11.938,26.046,11.992z M24.795,9.622c0.008,0.847-0.211,1.489-0.633,1.935
		c-0.422,0.457-1.056,0.701-1.913,0.751c-0.85,0.045-1.487-0.126-1.927-0.55c-0.428-0.418-0.646-1.063-0.652-1.937
		c-0.01-0.58-0.014-1.161-0.016-1.744c-0.004-0.583,0-1.165,0-1.75c0-0.867,0.211-1.524,0.642-1.962
		c0.434-0.439,1.072-0.66,1.916-0.66c0.854,0,1.499,0.215,1.925,0.634c0.424,0.42,0.641,1.055,0.641,1.903c0,0.211,0,0.42,0,0.637
		c-0.66,0.012-1.318,0.023-1.971,0.039c0-0.316,0-0.636,0-0.953c0-0.27-0.047-0.465-0.144-0.589
		c-0.097-0.122-0.249-0.184-0.457-0.178c-0.203,0-0.348,0.062-0.443,0.188c-0.095,0.126-0.139,0.325-0.139,0.599
		c0,0.674-0.006,1.352,0,2.033c0.002,0.674,0.01,1.354,0.012,2.034c0.003,0.275,0.046,0.465,0.146,0.589
		c0.101,0.12,0.238,0.172,0.449,0.161c0.211-0.012,0.36-0.078,0.457-0.204c0.089-0.127,0.14-0.323,0.138-0.598
		c-0.004-0.378-0.012-0.761-0.012-1.143c0.66-0.023,1.314-0.039,1.971-0.062C24.795,9.074,24.795,9.346,24.795,9.622z
		 M12.882,12.753c-0.014-1.487-0.021-2.976-0.023-4.459c-0.002-1.489,0-2.978,0-4.467c0.723,0,1.45,0,2.183,0
		c0.164,0.593,0.327,1.186,0.493,1.775c0.165,0.591,0.337,1.18,0.515,1.765c0.116,0.387,0.225,0.785,0.328,1.196
		c0.11,0.414,0.213,0.85,0.312,1.301c-0.059-0.43-0.103-0.861-0.128-1.299c-0.025-0.434-0.047-0.938-0.047-1.511
		c0-0.538,0-1.074,0-1.61c0-0.542,0-1.077,0-1.617c0.626,0,1.259,0,1.888,0c0,1.431-0.004,2.86,0,4.293
		c0.008,1.431,0.02,2.857,0.025,4.29c-0.707,0.041-1.401,0.085-2.104,0.128c-0.195-0.614-0.378-1.228-0.567-1.843
		c-0.188-0.616-0.381-1.243-0.565-1.857c-0.124-0.395-0.234-0.803-0.333-1.218c-0.101-0.422-0.193-0.863-0.274-1.324
		c0.054,0.652,0.097,1.272,0.129,1.862c0.029,0.581,0.049,1.117,0.049,1.619c0,0.48,0.01,0.958,0.01,1.433s0,0.956,0.004,1.431
		C14.137,12.672,13.507,12.711,12.882,12.753z M6.493,6.552c0-0.939,0.221-1.659,0.65-2.136C7.574,3.938,8.21,3.705,9.068,3.705
		c0.854,0,1.495,0.232,1.917,0.689c0.418,0.467,0.635,1.154,0.635,2.084c0,0.615,0.004,1.236,0.01,1.851
		c0,0.611-0.006,1.231,0,1.845c0.002,0.922-0.209,1.631-0.633,2.124c-0.426,0.49-1.058,0.759-1.917,0.804
		c-0.848,0.045-1.494-0.159-1.929-0.623c-0.43-0.465-0.648-1.168-0.648-2.118c0-0.634-0.004-1.267-0.01-1.897
		C6.491,7.821,6.493,7.188,6.493,6.552z M8.47,6.193c0,0.743,0,1.483,0,2.221c0,0.743,0.006,1.487,0.006,2.225
		c0,0.3,0.046,0.51,0.139,0.641c0.093,0.13,0.244,0.188,0.457,0.181c0.211-0.012,0.354-0.078,0.455-0.221
		c0.093-0.136,0.138-0.354,0.138-0.647c-0.004-0.735-0.01-1.473-0.01-2.207c0-0.733,0-1.471,0-2.207
		c0-0.296-0.045-0.511-0.144-0.646C9.417,5.399,9.267,5.33,9.05,5.336c-0.195,0-0.354,0.069-0.441,0.207
		C8.518,5.677,8.47,5.897,8.47,6.193z M5.347,10.385c0,0.957-0.217,1.685-0.638,2.177c-0.422,0.503-1.066,0.761-1.922,0.78
		c-0.841,0.02-1.491-0.221-1.931-0.711c-0.426-0.482-0.645-1.206-0.645-2.166c0-0.648,0-1.292,0-1.933c0-0.645,0-1.293,0-1.933
		c0-0.964,0.221-1.688,0.646-2.174c0.434-0.482,1.072-0.725,1.923-0.725c0.861,0,1.506,0.238,1.93,0.713
		C5.13,4.887,5.339,5.61,5.339,6.562c0,0.241,0,0.483,0,0.724c-0.65,0.01-1.306,0.018-1.962,0.023c0-0.354,0-0.709,0-1.066
		c0-0.303-0.048-0.523-0.146-0.664C3.134,5.444,2.983,5.374,2.772,5.374C2.573,5.376,2.423,5.446,2.329,5.582
		C2.234,5.725,2.183,5.945,2.183,6.246c0,0.761,0,1.52,0,2.278c0,0.757,0,1.515,0,2.271c0,0.308,0.051,0.524,0.146,0.662
		c0.095,0.134,0.244,0.201,0.453,0.193c0.211-0.002,0.359-0.067,0.457-0.213c0.093-0.136,0.139-0.36,0.139-0.666
		c0-0.424,0-0.854,0-1.28c0.656-0.006,1.312-0.024,1.97-0.034C5.347,9.77,5.347,10.075,5.347,10.385z"/>
	<ellipse fill="#FFFFFF" cx="45.098" cy="1.472" rx="1.512" ry="1.472"/>
</g>
</svg>
