<?xml version="1.0" encoding="utf-8"?>
<!-- Generator: Adobe Illustrator 14.0.0, SVG Export Plug-In . SVG Version: 6.00 Build 43363)  -->
<!DOCTYPE svg PUBLIC "-//W3C//DTD SVG 1.1//EN" "http://www.w3.org/Graphics/SVG/1.1/DTD/svg11.dtd">
<svg version="1.1" id="圖層_1" xmlns="http://www.w3.org/2000/svg" xmlns:xlink="http://www.w3.org/1999/xlink" x="0px" y="0px"
	 width="49.189px" height="11.34px" viewBox="0 0 49.189 11.34" enable-background="new 0 0 49.189 11.34" xml:space="preserve">
<g>
	<path fill="#2983B7" d="M46.525,11.107c-0.014-1.057-0.022-2.112-0.039-3.166C46.47,6.887,46.47,5.829,46.47,4.774
		c-0.361-0.004-0.726-0.008-1.084-0.014c0-0.504,0-1.003,0-1.507c1.262,0.004,2.528,0.004,3.803,0.004c0,0.521,0,1.035,0,1.55
		c-0.358-0.004-0.722-0.009-1.076-0.011c0,1.067,0.011,2.14,0.023,3.208c0.014,1.064,0.028,2.139,0.036,3.209
		C47.625,11.178,47.072,11.145,46.525,11.107 M40.008,10.629c-0.018-1.23-0.038-2.459-0.047-3.689
		c-0.01-1.227-0.004-2.457-0.004-3.688c0.619,0,1.238,0.002,1.859,0.002c0.133,0.511,0.273,1.021,0.416,1.53
		c0.141,0.513,0.285,1.029,0.434,1.543c0.104,0.344,0.197,0.694,0.289,1.063c0.094,0.366,0.188,0.756,0.281,1.164
		c-0.055-0.384-0.104-0.771-0.127-1.15c-0.029-0.381-0.047-0.824-0.047-1.326c0-0.469,0-0.938,0-1.409c0-0.468,0-0.938,0-1.412
		c0.535,0.003,1.068,0.003,1.604,0.003c0,1.287-0.004,2.575,0.004,3.863c0.017,1.287,0.037,2.576,0.056,3.863
		c-0.603-0.045-1.197-0.088-1.785-0.131c-0.17-0.56-0.336-1.109-0.504-1.666c-0.166-0.545-0.324-1.096-0.49-1.644
		c-0.104-0.346-0.198-0.698-0.288-1.063c-0.087-0.362-0.162-0.741-0.236-1.137c0.049,0.558,0.078,1.088,0.106,1.586
		c0.031,0.498,0.06,0.959,0.063,1.387c0.004,0.404,0.01,0.813,0.012,1.216c0.002,0.401,0.01,0.812,0.016,1.217
		C41.081,10.711,40.545,10.668,40.008,10.629z M37.225,10.43c-0.012-1.195-0.037-2.396-0.046-3.591c-0.013-1.197,0-2.395,0-3.592
		c0.548,0,1.099,0.002,1.651,0.002c0,1.216-0.008,2.431,0.004,3.647c0.013,1.215,0.027,2.433,0.049,3.646
		C38.333,10.507,37.77,10.469,37.225,10.43z M31.775,5.274c0-0.705,0.187-1.236,0.547-1.592c0.363-0.355,0.908-0.535,1.63-0.535
		c0.731,0,1.271,0.182,1.633,0.545c0.362,0.361,0.553,0.918,0.553,1.646c0,0.49-0.01,0.977,0,1.465
		c0.002,0.487,0.015,0.977,0.021,1.461c0.012,0.73-0.175,1.275-0.529,1.619c-0.362,0.35-0.907,0.496-1.635,0.455
		c-0.722-0.037-1.259-0.238-1.629-0.613c-0.369-0.375-0.564-0.914-0.57-1.619c-0.004-0.473-0.015-0.939-0.017-1.416
		C31.774,6.221,31.775,5.747,31.775,5.274z M33.443,5.038c0,0.566,0,1.131,0.004,1.69c0.013,0.563,0.013,1.125,0.021,1.689
		c0.006,0.225,0.05,0.391,0.129,0.496c0.086,0.104,0.211,0.16,0.395,0.168c0.174,0.008,0.305-0.035,0.381-0.137
		c0.08-0.102,0.116-0.262,0.112-0.49c-0.008-0.566-0.013-1.135-0.015-1.703c-0.01-0.564-0.01-1.131-0.01-1.699
		c0-0.23-0.043-0.398-0.123-0.5c-0.082-0.105-0.215-0.158-0.39-0.16c-0.176,0-0.301,0.049-0.385,0.151
		C33.483,4.647,33.443,4.815,33.443,5.038z M28.256,6.141c0.029,0.005,0.055,0.011,0.084,0.013c0.031,0,0.074,0,0.132,0
		c0.289,0.002,0.489-0.047,0.614-0.146c0.123-0.103,0.188-0.267,0.188-0.492c0-0.134,0-0.267,0-0.399
		c0-0.241-0.063-0.412-0.192-0.512c-0.123-0.097-0.345-0.146-0.666-0.146c-0.06,0-0.104,0-0.158,0
		C28.256,5.019,28.256,5.579,28.256,6.141z M26.641,10.064c-0.012-1.137-0.027-2.273-0.035-3.408c-0.004-1.136,0-2.276,0-3.413
		c0.785,0,1.563,0,2.354,0c0.664,0,1.156,0.146,1.484,0.434c0.334,0.285,0.49,0.721,0.49,1.305c0,0.223,0,0.444,0,0.668
		c0,0.56-0.152,0.987-0.453,1.284c-0.295,0.297-0.729,0.442-1.293,0.438c-0.313-0.004-0.615-0.004-0.92-0.006
		c0.006,0.451,0.014,0.898,0.02,1.354c0.004,0.445,0,0.895,0.008,1.35C27.75,10.061,27.195,10.063,26.641,10.064z M21.958,10.193
		c-0.012-1.159-0.022-2.316-0.027-3.478c-0.004-1.157,0-2.315,0-3.474c1.228,0,2.462-0.002,3.7-0.002c0,0.44,0,0.882,0,1.324
		c-0.688,0.002-1.37,0.004-2.048,0.01c0,0.459,0,0.912,0,1.369c0.601-0.008,1.205-0.017,1.808-0.019
		c0,0.436,0.004,0.869,0.004,1.305c-0.601,0.01-1.197,0.016-1.802,0.028C23.6,7.771,23.6,8.284,23.604,8.8
		c0.704-0.021,1.409-0.03,2.111-0.043c0.007,0.438,0.007,0.88,0.014,1.32C24.472,10.105,23.216,10.146,21.958,10.193z M20.894,8.178
		c0.007,0.721-0.178,1.268-0.537,1.645c-0.359,0.388-0.898,0.597-1.627,0.638c-0.721,0.039-1.264-0.108-1.637-0.468
		c-0.365-0.354-0.549-0.901-0.555-1.645c-0.008-0.492-0.011-0.986-0.013-1.482c-0.004-0.496,0-0.991,0-1.488
		c0-0.736,0.179-1.297,0.545-1.667c0.368-0.375,0.912-0.562,1.629-0.562c0.726,0,1.274,0.182,1.636,0.539
		c0.359,0.357,0.545,0.896,0.545,1.618c0,0.179,0,0.356,0,0.54c-0.563,0.01-1.121,0.021-1.676,0.034c0-0.269,0-0.54,0-0.81
		c0-0.229-0.039-0.396-0.121-0.5s-0.211-0.156-0.389-0.152c-0.174,0-0.296,0.052-0.377,0.16C18.236,4.684,18.2,4.854,18.2,5.086
		c0,0.573-0.005,1.15,0,1.729c0.002,0.574,0.008,1.151,0.01,1.729c0.002,0.234,0.039,0.396,0.123,0.5
		c0.086,0.102,0.203,0.145,0.383,0.137c0.179-0.01,0.305-0.066,0.387-0.174C19.179,8.9,19.222,8.732,19.22,8.5
		c-0.002-0.322-0.008-0.646-0.008-0.971c0.56-0.02,1.117-0.035,1.674-0.053C20.894,7.713,20.894,7.943,20.894,8.178z M10.768,10.84
		c-0.011-1.265-0.017-2.529-0.019-3.791c-0.002-1.265,0-2.53,0-3.796c0.614,0,1.232,0,1.854,0c0.14,0.504,0.28,1.008,0.42,1.51
		c0.14,0.501,0.285,1.001,0.437,1.499c0.098,0.329,0.191,0.668,0.279,1.018C13.833,7.631,13.921,8,14.005,8.385
		c-0.051-0.365-0.088-0.732-0.11-1.104c-0.022-0.369-0.041-0.797-0.041-1.285c0-0.457,0-0.913,0-1.369c0-0.459,0-0.915,0-1.374
		c0.534,0,1.071,0,1.606,0c0,1.216-0.004,2.431,0,3.649c0.006,1.215,0.016,2.428,0.021,3.646c-0.6,0.035-1.191,0.073-1.789,0.108
		c-0.165-0.521-0.32-1.043-0.482-1.565c-0.158-0.524-0.324-1.056-0.481-1.579c-0.104-0.334-0.199-0.682-0.282-1.035
		c-0.086-0.358-0.165-0.733-0.232-1.127c0.045,0.556,0.082,1.084,0.107,1.584c0.025,0.494,0.043,0.95,0.043,1.377
		c0,0.408,0.008,0.813,0.008,1.217c0,0.404,0,0.813,0.004,1.216C11.835,10.771,11.3,10.805,10.768,10.84z M5.337,5.569
		c0-0.799,0.188-1.41,0.553-1.815C6.257,3.347,6.798,3.15,7.526,3.15s1.271,0.197,1.629,0.586c0.356,0.396,0.54,0.981,0.54,1.771
		c0,0.523,0.004,1.05,0.008,1.572c0,0.521-0.004,1.048,0,1.567c0.002,0.785-0.178,1.388-0.537,1.806
		c-0.363,0.418-0.9,0.646-1.629,0.685c-0.721,0.037-1.27-0.137-1.64-0.529c-0.366-0.396-0.552-0.994-0.552-1.801
		c0-0.539-0.002-1.076-0.008-1.613C5.335,6.648,5.337,6.11,5.337,5.569z M7.019,5.265c0,0.631,0,1.26,0,1.887
		c0,0.631,0.005,1.265,0.005,1.89c0,0.256,0.038,0.435,0.117,0.545s0.208,0.16,0.389,0.154C7.709,9.73,7.832,9.674,7.916,9.553
		c0.08-0.115,0.118-0.301,0.118-0.551C8.03,8.377,8.025,7.752,8.025,7.127c0-0.624,0-1.25,0-1.877c0-0.251-0.038-0.433-0.122-0.548
		C7.822,4.59,7.695,4.53,7.511,4.536c-0.166,0-0.299,0.059-0.375,0.176C7.058,4.825,7.019,5.012,7.019,5.265z M4.364,8.827
		c0,0.813-0.185,1.431-0.542,1.851c-0.359,0.426-0.906,0.646-1.634,0.662c-0.714,0.018-1.267-0.188-1.64-0.604
		C0.186,10.325,0,9.711,0,8.895c0-0.551,0-1.099,0-1.642c0-0.549,0-1.1,0-1.645c0-0.817,0.187-1.433,0.549-1.846
		c0.369-0.41,0.912-0.617,1.635-0.617c0.732,0,1.279,0.203,1.639,0.607C4.18,4.154,4.358,4.768,4.358,5.578c0,0.203,0,0.41,0,0.613
		C3.804,6.2,3.248,6.207,2.689,6.212c0-0.301,0-0.604,0-0.906c0-0.258-0.04-0.445-0.124-0.564c-0.081-0.115-0.21-0.174-0.39-0.174
		C2.007,4.569,1.88,4.629,1.798,4.745C1.718,4.866,1.675,5.054,1.675,5.31c0,0.646,0,1.292,0,1.936c0,0.643,0,1.287,0,1.93
		c0,0.262,0.043,0.445,0.123,0.563C1.88,9.854,2.007,9.909,2.183,9.904c0.179-0.002,0.306-0.059,0.389-0.182
		c0.079-0.115,0.117-0.306,0.117-0.566c0-0.36,0-0.727,0-1.088c0.559-0.006,1.115-0.02,1.675-0.028
		C4.364,8.305,4.364,8.564,4.364,8.827z"/>
	<ellipse fill="#FFC83C" cx="38.15" cy="1.251" rx="1.285" ry="1.251"/>
</g>
</svg>
