<?xml version="1.0" encoding="utf-8"?>
<!-- Generator: Adobe Illustrator 14.0.0, SVG Export Plug-In . SVG Version: 6.00 Build 43363)  -->
<!DOCTYPE svg PUBLIC "-//W3C//DTD SVG 1.1//EN" "http://www.w3.org/Graphics/SVG/1.1/DTD/svg11.dtd">
<svg version="1.1" id="圖層_1" xmlns="http://www.w3.org/2000/svg" xmlns:xlink="http://www.w3.org/1999/xlink" x="0px" y="0px"
	 width="17.396px" height="5.338px" viewBox="0 0 17.396 5.338" enable-background="new 0 0 17.396 5.338" xml:space="preserve">
<g>
	<path fill="#FFFFFF" d="M3.99,2.738c0,0.448-0.056,0.831-0.167,1.149c-0.111,0.318-0.27,0.578-0.479,0.778
		c-0.207,0.202-0.46,0.349-0.758,0.443C2.289,5.204,1.935,5.251,1.524,5.251H0.417c-0.079,0-0.145-0.024-0.199-0.073
		c-0.054-0.05-0.081-0.129-0.081-0.239V0.683c0-0.11,0.027-0.19,0.081-0.239S0.338,0.37,0.417,0.37h1.19
		c0.414,0,0.764,0.051,1.052,0.152s0.531,0.252,0.728,0.452c0.197,0.2,0.347,0.447,0.449,0.741C3.938,2.011,3.99,2.351,3.99,2.738z
		 M3.015,2.772c0-0.231-0.026-0.447-0.076-0.646C2.887,1.929,2.804,1.756,2.69,1.611C2.577,1.465,2.432,1.351,2.252,1.27
		c-0.177-0.082-0.411-0.123-0.7-0.123H1.076v3.32h0.491c0.258,0,0.475-0.036,0.652-0.106c0.177-0.07,0.325-0.177,0.443-0.319
		C2.78,3.899,2.869,3.724,2.926,3.512C2.985,3.301,3.015,3.054,3.015,2.772z"/>
	<path fill="#FFFFFF" d="M7.663,3.342c0,0.116-0.024,0.201-0.073,0.257C7.541,3.653,7.474,3.682,7.387,3.682H5.442
		c0,0.143,0.016,0.273,0.048,0.391C5.521,4.188,5.573,4.288,5.644,4.37s0.161,0.145,0.272,0.187C6.026,4.6,6.16,4.621,6.315,4.621
		c0.158,0,0.296-0.012,0.417-0.035c0.119-0.024,0.222-0.051,0.309-0.08C7.128,4.478,7.201,4.45,7.259,4.427
		c0.057-0.023,0.104-0.036,0.139-0.036c0.021,0,0.04,0.005,0.054,0.015c0.014,0.007,0.025,0.023,0.036,0.046
		c0.009,0.022,0.015,0.055,0.02,0.097c0.003,0.041,0.004,0.093,0.004,0.155c0,0.056-0.001,0.104-0.003,0.143
		c-0.003,0.039-0.006,0.072-0.011,0.1C7.494,4.973,7.485,4.997,7.477,5.015C7.468,5.034,7.455,5.052,7.439,5.07
		C7.424,5.088,7.381,5.111,7.313,5.142c-0.07,0.03-0.159,0.06-0.267,0.089c-0.107,0.028-0.23,0.054-0.369,0.076
		C6.539,5.327,6.391,5.338,6.233,5.338C5.949,5.338,5.7,5.3,5.486,5.225C5.272,5.149,5.094,5.035,4.951,4.881
		C4.808,4.728,4.7,4.535,4.628,4.3C4.559,4.066,4.523,3.792,4.523,3.479c0-0.3,0.038-0.569,0.111-0.81
		c0.075-0.24,0.182-0.445,0.322-0.611c0.141-0.167,0.312-0.296,0.515-0.383c0.202-0.088,0.429-0.133,0.683-0.133
		c0.267,0,0.496,0.042,0.686,0.124c0.19,0.084,0.347,0.199,0.468,0.347s0.21,0.321,0.268,0.521c0.058,0.201,0.086,0.421,0.086,0.657
		V3.342z M6.789,3.07c0.007-0.267-0.043-0.477-0.152-0.628C6.527,2.29,6.36,2.214,6.132,2.214c-0.114,0-0.213,0.022-0.299,0.068
		c-0.085,0.046-0.155,0.106-0.21,0.183c-0.057,0.076-0.1,0.167-0.129,0.271C5.463,2.841,5.446,2.952,5.442,3.07H6.789z"/>
	<path fill="#FFFFFF" d="M10.655,4.172c0,0.191-0.033,0.359-0.102,0.506c-0.068,0.146-0.163,0.268-0.289,0.366
		c-0.124,0.098-0.27,0.172-0.44,0.221C9.654,5.313,9.47,5.338,9.273,5.338c-0.119,0-0.235-0.009-0.342-0.028
		C8.822,5.291,8.724,5.268,8.638,5.237C8.552,5.209,8.481,5.18,8.424,5.149c-0.057-0.03-0.099-0.06-0.125-0.085
		C8.271,5.038,8.251,4.997,8.237,4.94C8.223,4.884,8.215,4.799,8.215,4.688c0-0.072,0.001-0.131,0.008-0.175
		c0.005-0.045,0.011-0.079,0.02-0.105c0.01-0.026,0.021-0.045,0.037-0.053c0.015-0.009,0.033-0.014,0.053-0.014
		c0.026,0,0.064,0.016,0.117,0.048c0.052,0.03,0.115,0.065,0.192,0.103C8.718,4.53,8.808,4.565,8.91,4.599
		c0.101,0.032,0.216,0.049,0.345,0.049c0.082,0,0.153-0.009,0.217-0.026c0.063-0.019,0.118-0.043,0.165-0.075
		c0.045-0.033,0.082-0.075,0.105-0.125C9.766,4.37,9.777,4.313,9.777,4.247c0-0.075-0.021-0.14-0.065-0.194
		C9.666,3.999,9.608,3.952,9.535,3.911c-0.072-0.04-0.156-0.078-0.247-0.112C9.197,3.763,9.101,3.724,9.005,3.682
		C8.91,3.639,8.813,3.59,8.722,3.534C8.631,3.479,8.548,3.411,8.476,3.331C8.402,3.25,8.344,3.153,8.3,3.04
		C8.255,2.928,8.233,2.791,8.233,2.633c0-0.161,0.03-0.309,0.089-0.443S8.468,1.94,8.582,1.845c0.111-0.096,0.249-0.17,0.409-0.223
		c0.161-0.053,0.342-0.08,0.542-0.08c0.102,0,0.199,0.009,0.292,0.023C9.92,1.58,10.006,1.6,10.081,1.622
		c0.078,0.022,0.141,0.047,0.194,0.073c0.054,0.026,0.091,0.049,0.112,0.067c0.024,0.02,0.04,0.038,0.049,0.058
		c0.01,0.019,0.017,0.041,0.022,0.067c0.005,0.026,0.008,0.059,0.013,0.098c0.003,0.039,0.004,0.088,0.004,0.146
		c0,0.069-0.001,0.123-0.004,0.167c-0.004,0.042-0.011,0.075-0.018,0.102c-0.009,0.024-0.02,0.042-0.034,0.051
		c-0.015,0.009-0.032,0.013-0.051,0.013c-0.021,0-0.054-0.013-0.1-0.04c-0.047-0.025-0.103-0.054-0.171-0.084
		C10.031,2.31,9.951,2.28,9.862,2.254c-0.09-0.026-0.191-0.04-0.307-0.04c-0.082,0-0.152,0.009-0.212,0.026
		C9.285,2.259,9.235,2.283,9.197,2.315C9.159,2.349,9.129,2.388,9.112,2.431c-0.02,0.044-0.031,0.092-0.031,0.142
		c0,0.079,0.024,0.143,0.069,0.197c0.045,0.052,0.106,0.099,0.181,0.139c0.073,0.041,0.157,0.079,0.251,0.113
		c0.094,0.035,0.19,0.073,0.288,0.116c0.096,0.04,0.192,0.089,0.286,0.145c0.096,0.055,0.179,0.123,0.252,0.204
		c0.075,0.079,0.135,0.176,0.18,0.287C10.633,3.887,10.655,4.019,10.655,4.172z"/>
	<path fill="#FFFFFF" d="M13.751,4.588c0,0.063-0.001,0.119-0.006,0.163c-0.003,0.045-0.007,0.081-0.014,0.111
		c-0.006,0.03-0.013,0.055-0.021,0.074c-0.008,0.019-0.026,0.042-0.057,0.071c-0.026,0.029-0.076,0.063-0.146,0.105
		s-0.147,0.078-0.237,0.111c-0.088,0.033-0.185,0.06-0.287,0.08c-0.104,0.02-0.212,0.029-0.321,0.029
		c-0.247,0-0.465-0.039-0.654-0.12c-0.19-0.08-0.351-0.199-0.478-0.357c-0.13-0.157-0.228-0.349-0.293-0.575
		c-0.065-0.226-0.099-0.485-0.099-0.777c0-0.336,0.04-0.627,0.119-0.873c0.08-0.246,0.192-0.448,0.336-0.609s0.313-0.28,0.51-0.358
		c0.195-0.078,0.41-0.117,0.645-0.117c0.095,0,0.189,0.009,0.282,0.027c0.091,0.018,0.177,0.041,0.258,0.071
		c0.08,0.03,0.151,0.064,0.215,0.102c0.063,0.038,0.107,0.07,0.135,0.099c0.025,0.026,0.044,0.051,0.054,0.069
		c0.011,0.019,0.021,0.044,0.026,0.074c0.006,0.029,0.01,0.066,0.014,0.111c0.004,0.043,0.007,0.097,0.007,0.16
		c0,0.146-0.013,0.248-0.036,0.308c-0.024,0.059-0.056,0.088-0.094,0.088c-0.04,0-0.084-0.017-0.129-0.053
		c-0.046-0.035-0.1-0.074-0.161-0.117c-0.063-0.042-0.137-0.081-0.224-0.116c-0.085-0.035-0.188-0.054-0.307-0.054
		c-0.235,0-0.414,0.096-0.537,0.286c-0.126,0.189-0.188,0.468-0.188,0.835c0,0.181,0.017,0.341,0.046,0.479
		c0.032,0.138,0.077,0.254,0.14,0.346c0.061,0.095,0.137,0.164,0.228,0.21c0.093,0.047,0.199,0.069,0.322,0.069
		c0.124,0,0.231-0.02,0.32-0.059c0.09-0.038,0.167-0.081,0.234-0.13c0.067-0.047,0.124-0.091,0.169-0.13
		c0.046-0.039,0.084-0.058,0.115-0.058c0.021,0,0.038,0.006,0.053,0.019c0.014,0.013,0.024,0.036,0.034,0.069
		c0.008,0.034,0.015,0.078,0.019,0.13C13.75,4.437,13.751,4.504,13.751,4.588z"/>
	<path fill="#FFFFFF" d="M17.457,5.123c0,0.025-0.008,0.047-0.021,0.065c-0.014,0.02-0.038,0.035-0.071,0.048
		c-0.034,0.012-0.079,0.022-0.138,0.028c-0.06,0.006-0.131,0.009-0.217,0.009c-0.09,0-0.163-0.003-0.221-0.009
		c-0.06-0.006-0.104-0.017-0.138-0.028c-0.033-0.013-0.057-0.028-0.073-0.048c-0.013-0.019-0.021-0.04-0.021-0.065V3.202
		c0-0.162-0.01-0.291-0.033-0.384c-0.022-0.095-0.056-0.174-0.098-0.24c-0.044-0.066-0.1-0.118-0.167-0.155
		c-0.068-0.035-0.147-0.054-0.239-0.054c-0.112,0-0.23,0.044-0.348,0.132c-0.117,0.089-0.239,0.217-0.365,0.384v2.238
		c0,0.025-0.007,0.047-0.021,0.065c-0.016,0.02-0.039,0.035-0.073,0.048c-0.036,0.012-0.082,0.022-0.14,0.028
		c-0.055,0.006-0.128,0.009-0.218,0.009c-0.088,0-0.162-0.003-0.219-0.009c-0.058-0.006-0.104-0.017-0.138-0.028
		c-0.033-0.013-0.06-0.028-0.073-0.048c-0.015-0.019-0.022-0.04-0.022-0.065V0.162c0-0.025,0.008-0.048,0.022-0.068
		c0.014-0.02,0.04-0.037,0.073-0.051s0.08-0.024,0.138-0.032C14.693,0.004,14.768,0,14.855,0c0.09,0,0.163,0.004,0.218,0.011
		c0.058,0.008,0.104,0.019,0.14,0.032c0.034,0.014,0.058,0.031,0.073,0.051c0.014,0.021,0.021,0.043,0.021,0.068v1.859
		c0.156-0.161,0.313-0.281,0.475-0.359c0.161-0.08,0.33-0.12,0.504-0.12c0.219,0,0.401,0.038,0.55,0.113
		c0.149,0.076,0.271,0.179,0.362,0.31c0.093,0.131,0.159,0.284,0.198,0.458c0.042,0.176,0.062,0.387,0.062,0.637V5.123z"/>
</g>
</svg>
