<?xml version="1.0" encoding="utf-8"?>
<!-- Generator: Adobe Illustrator 14.0.0, SVG Export Plug-In . SVG Version: 6.00 Build 43363)  -->
<!DOCTYPE svg PUBLIC "-//W3C//DTD SVG 1.1//EN" "http://www.w3.org/Graphics/SVG/1.1/DTD/svg11.dtd">
<svg version="1.1" id="圖層_1" xmlns="http://www.w3.org/2000/svg" xmlns:xlink="http://www.w3.org/1999/xlink" x="0px" y="0px"
	 width="42.52px" height="13.182px" viewBox="0 0 42.52 13.182" enable-background="new 0 0 42.52 13.182" xml:space="preserve">
<g>
	<g>
		<g id="LWPOLYLINE_65_">
			<polyline fill="#FFFFFF" points="20.847,6.039 20.553,6.648 22.382,6.648 22.382,6.039 20.847,6.039 			"/>
		</g>
		<g id="LWPOLYLINE_64_">
			<polyline fill="#FFFFFF" points="35.765,6.648 29.724,6.648 29.724,6.039 34.851,6.039 35.017,6.044 35.183,6.092 35.333,6.152 
				35.476,6.244 35.593,6.361 35.693,6.498 35.765,6.648 			"/>
		</g>
		<g id="LWPOLYLINE_63_">
			<polygon fill="#FFFFFF" points="28.183,6.039 28.341,6.058 28.495,6.107 28.634,6.179 28.757,6.263 28.87,6.378 28.956,6.508 
				29.017,6.648 23.079,6.648 23.146,6.508 23.243,6.378 23.345,6.263 23.468,6.179 23.609,6.107 23.767,6.058 23.919,6.039 			"/>
		</g>
		<g id="LWPOLYLINE_62_">
			<polyline fill="#FFFFFF" points="16.448,6.648 16.153,6.039 14.624,6.039 14.624,6.648 16.448,6.648 			"/>
		</g>
		<g id="LWPOLYLINE_61_">
			<polyline fill="#FFFFFF" points="11.701,6.648 11.459,6.039 9.524,6.039 9.281,6.648 11.701,6.648 			"/>
		</g>
		<g id="LWPOLYLINE_60_">
			<polyline fill="#FFFFFF" points="20.457,6.853 20.153,7.469 22.382,7.469 22.382,6.853 20.457,6.853 			"/>
		</g>
		<g id="LWPOLYLINE_59_">
			<polyline fill="#FFFFFF" points="35.855,7.469 35.855,6.853 29.724,6.853 29.724,7.469 35.855,7.469 			"/>
		</g>
		<g id="LWPOLYLINE_58_">
			<polyline fill="#FFFFFF" points="29.113,7.469 29.113,6.853 22.991,6.853 22.991,7.469 29.113,7.469 			"/>
		</g>
		<g id="LWPOLYLINE_57_">
			<polyline fill="#FFFFFF" points="12.024,7.469 11.781,6.853 9.198,6.853 8.948,7.469 12.024,7.469 			"/>
		</g>
		<g id="LWPOLYLINE_56_">
			<polyline fill="#FFFFFF" points="20.056,7.668 19.764,8.281 22.382,8.281 22.382,7.668 20.056,7.668 			"/>
		</g>
		<g id="LWPOLYLINE_55_">
			<polyline fill="#FFFFFF" points="35.855,8.281 35.855,7.668 34.322,7.668 34.322,8.281 35.855,8.281 			"/>
		</g>
		<g id="LWPOLYLINE_54_">
			<polyline fill="#FFFFFF" points="31.259,8.281 31.259,7.668 29.724,7.668 29.724,8.281 31.259,8.281 			"/>
		</g>
		<g id="LWPOLYLINE_53_">
			<polyline fill="#FFFFFF" points="29.113,8.281 29.113,7.668 27.585,7.668 27.585,8.281 29.113,8.281 			"/>
		</g>
		<g id="LWPOLYLINE_52_">
			<polyline fill="#FFFFFF" points="17.242,8.281 16.947,7.668 14.624,7.668 14.624,8.281 17.242,8.281 			"/>
		</g>
		<g id="LWPOLYLINE_51_">
			<polyline fill="#FFFFFF" points="12.353,8.281 12.109,7.668 8.868,7.668 8.624,8.281 10.36,8.281 10.486,7.957 10.62,8.281 
				12.353,8.281 			"/>
		</g>
		<g id="LWPOLYLINE_50_">
			<polyline fill="#FFFFFF" points="35.855,9.101 35.855,8.482 34.322,8.482 34.322,9.101 35.855,9.101 			"/>
		</g>
		<g id="LWPOLYLINE_49_">
			<polyline fill="#FFFFFF" points="31.259,9.101 31.259,8.482 29.724,8.482 29.724,9.101 31.259,9.101 			"/>
		</g>
		<g id="LWPOLYLINE_48_">
			<polyline fill="#FFFFFF" points="29.113,9.101 29.113,8.482 27.585,8.482 27.585,9.101 29.113,9.101 			"/>
		</g>
		<g id="LWPOLYLINE_47_">
			<polyline fill="#FFFFFF" points="24.525,9.101 24.525,8.482 22.991,8.482 22.991,9.101 24.525,9.101 			"/>
		</g>
		<g id="LWPOLYLINE_46_">
			<polyline fill="#FFFFFF" points="22.382,9.101 22.382,8.482 19.669,8.482 19.361,9.101 22.382,9.101 			"/>
		</g>
		<g id="LWPOLYLINE_45_">
			<polyline fill="#FFFFFF" points="17.642,9.101 17.343,8.482 14.624,8.482 14.624,9.101 17.642,9.101 			"/>
		</g>
		<g id="LWPOLYLINE_44_">
			<polyline fill="#FFFFFF" points="12.676,9.101 12.434,8.482 10.7,8.482 10.945,9.101 12.676,9.101 			"/>
		</g>
		<g id="LWPOLYLINE_43_">
			<polyline fill="#FFFFFF" points="10.033,9.101 10.275,8.482 8.543,8.482 8.297,9.101 10.033,9.101 			"/>
		</g>
		<g id="LWPOLYLINE_42_">
			<polyline fill="#FFFFFF" points="29.724,9.304 29.724,9.918 31.259,9.918 31.259,9.304 29.724,9.304 			"/>
		</g>
		<g id="LWPOLYLINE_41_">
			<polyline fill="#FFFFFF" points="35.855,9.918 35.855,9.304 34.322,9.304 34.322,9.918 35.855,9.918 			"/>
		</g>
		<g id="LWPOLYLINE_40_">
			<polyline fill="#FFFFFF" points="29.113,9.918 29.113,9.304 27.585,9.304 27.585,9.918 29.113,9.918 			"/>
		</g>
		<g id="LWPOLYLINE_39_">
			<polyline fill="#FFFFFF" points="24.525,9.918 24.525,9.304 22.991,9.304 22.991,9.918 24.525,9.918 			"/>
		</g>
		<g id="LWPOLYLINE_38_">
			<polyline fill="#FFFFFF" points="20.847,9.918 22.382,9.918 22.382,9.304 19.265,9.304 18.973,9.918 20.709,9.918 20.847,9.617 
				20.847,9.918 			"/>
		</g>
		<g id="LWPOLYLINE_37_">
			<polyline fill="#FFFFFF" points="16.153,9.617 16.297,9.918 18.033,9.918 17.733,9.304 14.624,9.304 14.624,9.918 16.153,9.918 
				16.153,9.617 			"/>
		</g>
		<g id="LWPOLYLINE_36_">
			<polyline fill="#FFFFFF" points="13.001,9.918 12.762,9.304 11.035,9.304 11.278,9.918 13.001,9.918 			"/>
		</g>
		<g id="LWPOLYLINE_35_">
			<polyline fill="#FFFFFF" points="9.695,9.918 9.947,9.304 8.214,9.304 7.969,9.918 9.695,9.918 			"/>
		</g>
		<g id="LWPOLYLINE_34_">
			<polyline fill="#FFFFFF" points="18.87,10.123 18.573,10.732 20.308,10.732 20.606,10.123 18.87,10.123 			"/>
		</g>
		<g id="LWPOLYLINE_33_">
			<polyline fill="#FFFFFF" points="27.585,10.123 27.585,10.732 29.113,10.732 29.113,10.123 27.585,10.123 			"/>
		</g>
		<g id="LWPOLYLINE_32_">
			<polyline fill="#FFFFFF" points="35.855,10.732 35.855,10.123 34.322,10.123 34.322,10.732 35.855,10.732 			"/>
		</g>
		<g id="LWPOLYLINE_31_">
			<polyline fill="#FFFFFF" points="31.259,10.732 31.259,10.123 29.724,10.123 29.724,10.732 31.259,10.732 			"/>
		</g>
		<g id="LWPOLYLINE_30_">
			<polyline fill="#FFFFFF" points="24.525,10.732 24.525,10.123 22.991,10.123 22.991,10.732 24.525,10.732 			"/>
		</g>
		<g id="LWPOLYLINE_29_">
			<polyline fill="#FFFFFF" points="22.382,10.732 22.382,10.123 20.847,10.123 20.847,10.732 22.382,10.732 			"/>
		</g>
		<g id="LWPOLYLINE_28_">
			<polyline fill="#FFFFFF" points="18.431,10.732 18.134,10.123 16.401,10.123 16.693,10.732 18.431,10.732 			"/>
		</g>
		<g id="LWPOLYLINE_27_">
			<polyline fill="#FFFFFF" points="16.153,10.732 16.153,10.123 14.624,10.123 14.624,10.732 16.153,10.732 			"/>
		</g>
		<g id="LWPOLYLINE_26_">
			<polyline fill="#FFFFFF" points="13.331,10.732 13.082,10.123 7.888,10.123 7.649,10.732 13.331,10.732 			"/>
		</g>
		<g id="LWPOLYLINE_25_">
			<polyline fill="#FFFFFF" points="20.847,10.937 20.847,11.547 22.382,11.547 22.382,10.937 20.847,10.937 			"/>
		</g>
		<g id="LWPOLYLINE_24_">
			<polyline fill="#FFFFFF" points="27.585,10.937 27.585,11.547 29.113,11.547 29.113,10.937 27.585,10.937 			"/>
		</g>
		<g id="LWPOLYLINE_23_">
			<polyline fill="#FFFFFF" points="35.855,11.547 35.855,10.937 34.322,10.937 34.322,11.547 35.855,11.547 			"/>
		</g>
		<g id="LWPOLYLINE_22_">
			<polyline fill="#FFFFFF" points="31.259,11.547 31.259,10.937 29.724,10.937 29.724,11.547 31.259,11.547 			"/>
		</g>
		<g id="LWPOLYLINE_21_">
			<polyline fill="#FFFFFF" points="24.525,11.547 24.525,10.937 22.991,10.937 22.991,11.547 24.525,11.547 			"/>
		</g>
		<g id="LWPOLYLINE_20_">
			<polyline fill="#FFFFFF" points="19.913,11.547 20.213,10.937 16.799,10.937 17.098,11.547 19.913,11.547 			"/>
		</g>
		<g id="LWPOLYLINE_19_">
			<polyline fill="#FFFFFF" points="16.153,11.547 16.153,10.937 14.624,10.937 14.624,11.547 16.153,11.547 			"/>
		</g>
		<g id="LWPOLYLINE_18_">
			<polyline fill="#FFFFFF" points="13.654,11.547 13.414,10.937 7.563,10.937 7.311,11.547 13.654,11.547 			"/>
		</g>
		<g id="LWPOLYLINE_17_">
			<polyline fill="#FFFFFF" points="35.855,11.752 29.724,11.752 29.724,12.361 35.855,12.361 35.855,11.752 			"/>
		</g>
		<g id="LWPOLYLINE_16_">
			<polyline fill="#FFFFFF" points="29.113,12.361 29.113,11.752 22.991,11.752 22.991,12.361 29.113,12.361 			"/>
		</g>
		<g id="LWPOLYLINE_15_">
			<polyline fill="#FFFFFF" points="22.382,12.361 22.382,11.752 20.847,11.752 20.847,12.361 22.382,12.361 			"/>
		</g>
		<g id="LWPOLYLINE_14_">
			<polyline fill="#FFFFFF" points="19.517,12.361 19.81,11.752 17.189,11.752 17.486,12.361 19.517,12.361 			"/>
		</g>
		<g id="LWPOLYLINE_13_">
			<polyline fill="#FFFFFF" points="16.153,12.361 16.153,11.752 14.624,11.752 14.624,12.361 16.153,12.361 			"/>
		</g>
		<g id="LWPOLYLINE_12_">
			<polyline fill="#FFFFFF" points="13.987,12.361 13.735,11.752 12.008,11.752 12.25,12.361 13.987,12.361 			"/>
		</g>
		<g id="LWPOLYLINE_11_">
			<polyline fill="#FFFFFF" points="8.732,12.361 8.974,11.752 7.238,11.752 6.989,12.361 8.732,12.361 			"/>
		</g>
		<g id="LWPOLYLINE_10_">
			<polyline fill="#FFFFFF" points="20.847,12.562 20.847,13.181 22.382,13.181 22.382,12.562 20.847,12.562 			"/>
		</g>
		<g id="LWPOLYLINE_9_">
			<polyline fill="#FFFFFF" points="19.119,13.181 19.417,12.562 17.6,12.562 17.89,13.181 19.119,13.181 			"/>
		</g>
		<g id="LWPOLYLINE_8_">
			<polyline fill="#FFFFFF" points="16.153,13.181 16.153,12.562 14.624,12.562 14.624,13.181 16.153,13.181 			"/>
		</g>
		<g id="LWPOLYLINE_7_">
			<polyline fill="#FFFFFF" points="14.312,13.181 14.069,12.562 12.336,12.562 12.585,13.181 14.312,13.181 			"/>
		</g>
		<g id="LWPOLYLINE_6_">
			<polyline fill="#FFFFFF" points="8.397,13.181 8.637,12.562 6.906,12.562 6.664,13.181 8.397,13.181 			"/>
		</g>
		<g id="LWPOLYLINE_5_">
			<polyline fill="#FFFFFF" points="14.624,6.853 16.541,6.853 16.852,7.469 14.624,7.469 14.624,6.853 			"/>
		</g>
		<g id="LWPOLYLINE_4_">
			<polyline fill="#FFFFFF" points="22.991,7.668 24.525,7.668 24.525,8.281 22.991,8.281 22.991,7.668 			"/>
		</g>
		<g id="ELLIPSE_1_">
			<path fill="#FFFFFF" d="M8.911,4.926c0,0.276,0.713,0.491,1.583,0.491c0.879,0,1.587-0.215,1.587-0.491
				c0-0.279-0.708-0.5-1.587-0.5C9.624,4.426,8.911,4.646,8.911,4.926L8.911,4.926"/>
		</g>
		<g id="LWPOLYLINE_3_">
			<g id="XMLID_1_">
				<g>
					<polygon fill="#FFFFFF" points="12.969,2.687 12.969,2.75 12.958,2.816 12.152,4.597 11.343,4.365 10.486,4.285 9.65,4.373 
						8.828,4.617 8.027,2.816 8.002,2.75 8.002,2.687 8.027,2.627 8.027,2.613 8.035,2.609 8.047,2.594 8.062,2.594 8.072,2.588 
						8.088,2.582 8.102,2.582 8.116,2.588 8.13,2.594 8.143,2.594 8.768,3.469 8.788,3.488 8.819,3.502 8.831,3.517 8.861,3.523 
						8.889,3.529 8.921,3.523 8.939,3.517 8.974,3.506 8.997,3.488 9.04,3.443 9.065,3.381 9.085,3.33 9.118,3.265 9.118,3.197 
						8.906,2.162 8.921,2.156 8.921,2.127 8.929,2.117 8.947,2.088 8.965,2.084 8.982,2.078 9.002,2.076 9.02,2.076 9.042,2.078 
						9.055,2.084 9.073,2.088 9.085,2.117 9.564,3.215 9.595,3.244 9.63,3.275 9.675,3.301 9.72,3.314 9.766,3.328 9.813,3.328 
						9.854,3.31 9.906,3.289 9.947,3.265 9.972,3.232 10.131,3.017 10.232,2.781 10.307,2.529 10.413,1.56 10.418,1.537 
						10.426,1.531 10.444,1.511 10.451,1.498 10.464,1.478 10.486,1.478 10.514,1.478 10.531,1.478 10.539,1.478 10.572,1.478 
						10.577,1.498 10.592,1.515 10.6,1.533 10.612,1.554 10.673,2.529 10.748,2.781 10.849,3.017 10.995,3.232 11.035,3.265 
						11.076,3.289 11.121,3.31 11.164,3.328 11.207,3.328 11.26,3.314 11.3,3.301 11.345,3.275 11.373,3.244 11.416,3.215 
						11.887,2.117 11.9,2.088 11.91,2.084 11.933,2.078 11.953,2.076 11.978,2.076 11.998,2.078 12.013,2.084 12.024,2.088 
						12.046,2.117 12.052,2.127 12.059,2.156 12.064,2.162 11.867,3.197 11.867,3.265 11.885,3.33 11.91,3.381 11.938,3.443 
						11.978,3.488 11.998,3.506 12.031,3.517 12.059,3.523 12.086,3.529 12.112,3.523 12.137,3.517 12.162,3.502 12.179,3.488 
						12.202,3.469 12.835,2.594 12.847,2.594 12.857,2.588 12.872,2.582 12.88,2.582 12.903,2.588 12.916,2.594 12.928,2.594 
						12.938,2.609 12.948,2.613 12.958,2.627 					"/>
				</g>
			</g>
		</g>
		<g id="LWPOLYLINE_2_">
			<polyline fill="#FFFFFF" points="35.765,12.562 29.724,12.562 29.724,13.181 34.851,13.181 35.017,13.174 35.183,13.128 
				35.333,13.064 35.476,12.97 35.593,12.859 35.693,12.722 35.765,12.562 			"/>
		</g>
		<g id="LWPOLYLINE_1_">
			<polygon fill="#FFFFFF" points="28.183,13.181 28.341,13.162 28.495,13.111 28.634,13.039 28.757,12.945 28.87,12.834 
				28.956,12.715 29.017,12.562 23.079,12.562 23.146,12.715 23.243,12.834 23.345,12.945 23.468,13.039 23.609,13.111 
				23.767,13.162 23.919,13.181 			"/>
		</g>
	</g>
</g>
</svg>
