<?xml version="1.0" encoding="utf-8"?>
<!-- Generator: Adobe Illustrator 14.0.0, SVG Export Plug-In . SVG Version: 6.00 Build 43363)  -->
<!DOCTYPE svg PUBLIC "-//W3C//DTD SVG 1.1//EN" "http://www.w3.org/Graphics/SVG/1.1/DTD/svg11.dtd">
<svg version="1.1" id="圖層_1" xmlns="http://www.w3.org/2000/svg" xmlns:xlink="http://www.w3.org/1999/xlink" x="0px" y="0px"
	 width="19.891px" height="4.805px" viewBox="0 0 19.891 4.805" enable-background="new 0 0 19.891 4.805" xml:space="preserve">
<g>
	<path fill="#FFFFFF" d="M3.215,4.61c0,0.024-0.008,0.045-0.02,0.063c-0.01,0.017-0.029,0.032-0.057,0.043
		C3.112,4.728,3.073,4.735,3.028,4.74C2.979,4.744,2.922,4.748,2.854,4.748c-0.074,0-0.133-0.004-0.178-0.008
		C2.629,4.735,2.592,4.728,2.565,4.716C2.534,4.705,2.514,4.689,2.502,4.673c-0.012-0.018-0.02-0.038-0.02-0.063v-0.34
		c-0.158,0.169-0.322,0.3-0.496,0.394C1.815,4.758,1.624,4.805,1.413,4.805c-0.232,0-0.432-0.044-0.592-0.136
		c-0.16-0.09-0.293-0.21-0.395-0.365C0.325,4.151,0.25,3.972,0.206,3.769C0.159,3.563,0.137,3.347,0.137,3.121
		c0-0.272,0.029-0.518,0.086-0.735c0.061-0.216,0.145-0.4,0.256-0.556c0.113-0.151,0.254-0.27,0.42-0.352
		c0.166-0.084,0.359-0.125,0.576-0.125c0.17,0,0.326,0.036,0.467,0.105c0.139,0.069,0.277,0.172,0.414,0.308V0.108
		c0-0.022,0.006-0.043,0.02-0.062C2.387,0.027,2.411,0.014,2.444,0C2.477-0.012,2.52-0.021,2.577-0.028
		c0.055-0.008,0.125-0.01,0.209-0.01s0.154,0.002,0.209,0.01C3.049-0.021,3.092-0.012,3.125,0C3.157,0.014,3.18,0.027,3.194,0.047
		c0.014,0.019,0.021,0.039,0.021,0.062V4.61z M2.356,2.565C2.233,2.41,2.116,2.29,2,2.207C1.889,2.126,1.768,2.085,1.645,2.085
		c-0.111,0-0.207,0.027-0.289,0.084C1.276,2.226,1.209,2.3,1.161,2.395C1.112,2.487,1.075,2.593,1.051,2.707
		C1.026,2.822,1.014,2.942,1.014,3.062c0,0.129,0.012,0.254,0.031,0.374C1.067,3.558,1.1,3.667,1.147,3.76
		c0.047,0.096,0.111,0.171,0.188,0.229C1.413,4.046,1.51,4.074,1.629,4.074c0.061,0,0.117-0.009,0.174-0.025
		c0.057-0.018,0.113-0.045,0.17-0.084c0.059-0.039,0.119-0.09,0.182-0.152c0.061-0.063,0.129-0.14,0.201-0.232V2.565z"/>
	<path fill="#FFFFFF" d="M6.764,3.396c0,0.232-0.043,0.438-0.129,0.613C6.547,4.186,6.43,4.332,6.28,4.449
		c-0.146,0.119-0.32,0.208-0.521,0.267c-0.197,0.06-0.41,0.089-0.637,0.089c-0.154,0-0.297-0.013-0.428-0.036
		C4.563,4.742,4.446,4.712,4.346,4.676c-0.1-0.035-0.186-0.071-0.252-0.111C4.026,4.525,3.979,4.491,3.948,4.462
		C3.918,4.433,3.897,4.389,3.885,4.334c-0.014-0.057-0.02-0.138-0.02-0.242c0-0.07,0.004-0.131,0.008-0.179s0.012-0.087,0.021-0.116
		c0.01-0.03,0.023-0.052,0.041-0.064c0.018-0.012,0.037-0.018,0.061-0.018c0.031,0,0.078,0.018,0.135,0.057
		C4.19,3.81,4.264,3.851,4.356,3.896c0.092,0.047,0.201,0.088,0.328,0.127c0.129,0.036,0.273,0.056,0.441,0.056
		c0.109,0,0.207-0.014,0.295-0.04c0.086-0.026,0.16-0.063,0.221-0.11C5.702,3.879,5.747,3.819,5.78,3.749
		c0.033-0.071,0.049-0.15,0.049-0.237c0-0.101-0.027-0.187-0.084-0.259C5.69,3.182,5.62,3.116,5.532,3.061S5.342,2.952,5.231,2.903
		C5.12,2.854,5.004,2.802,4.885,2.747S4.651,2.63,4.54,2.561C4.426,2.49,4.325,2.406,4.239,2.31
		c-0.088-0.098-0.16-0.213-0.215-0.345C3.969,1.832,3.942,1.674,3.942,1.488c0-0.213,0.039-0.399,0.119-0.562
		c0.078-0.161,0.184-0.294,0.318-0.401C4.512,0.42,4.67,0.34,4.852,0.287S5.227,0.208,5.43,0.208c0.105,0,0.211,0.008,0.314,0.024
		C5.852,0.248,5.95,0.271,6.04,0.298c0.094,0.027,0.174,0.058,0.244,0.091c0.07,0.035,0.119,0.064,0.143,0.088
		c0.021,0.022,0.037,0.041,0.045,0.059c0.01,0.016,0.014,0.036,0.021,0.063c0.006,0.027,0.01,0.061,0.012,0.099
		c0.002,0.041,0.004,0.092,0.004,0.15c0,0.066-0.002,0.122-0.006,0.168C6.499,1.06,6.493,1.098,6.485,1.127
		C6.477,1.158,6.467,1.18,6.452,1.193S6.417,1.214,6.391,1.214S6.325,1.198,6.27,1.166C6.217,1.133,6.149,1.099,6.069,1.06
		c-0.08-0.037-0.174-0.07-0.277-0.103c-0.107-0.03-0.223-0.045-0.348-0.045c-0.098,0-0.184,0.013-0.258,0.035
		C5.114,0.971,5.053,1.005,5.002,1.046C4.954,1.09,4.917,1.14,4.893,1.2C4.87,1.26,4.858,1.322,4.858,1.39
		c0,0.098,0.025,0.182,0.08,0.254S5.063,1.78,5.155,1.836c0.09,0.056,0.191,0.109,0.307,0.158c0.113,0.049,0.23,0.102,0.35,0.156
		s0.236,0.116,0.35,0.187C6.276,2.406,6.377,2.49,6.467,2.588C6.555,2.685,6.627,2.8,6.682,2.931S6.764,3.218,6.764,3.396"/>
	<path fill="#FFFFFF" d="M9.215,4.307c0,0.102-0.008,0.18-0.02,0.232C9.182,4.593,9.167,4.632,9.145,4.653
		c-0.02,0.021-0.051,0.041-0.09,0.057C9.014,4.729,8.967,4.743,8.915,4.756C8.86,4.769,8.801,4.778,8.739,4.785
		S8.614,4.796,8.547,4.796c-0.17,0-0.32-0.022-0.443-0.066c-0.127-0.043-0.23-0.11-0.314-0.2c-0.082-0.09-0.143-0.204-0.18-0.341
		c-0.041-0.139-0.059-0.3-0.059-0.487V2.132H7.182c-0.043,0-0.076-0.026-0.098-0.079c-0.023-0.054-0.035-0.144-0.035-0.27
		c0-0.067,0.002-0.123,0.008-0.168c0.006-0.046,0.016-0.082,0.027-0.108S7.11,1.461,7.127,1.451
		c0.016-0.013,0.037-0.018,0.059-0.018h0.365V0.75c0-0.022,0.006-0.043,0.018-0.062c0.014-0.02,0.035-0.033,0.068-0.047
		C7.672,0.629,7.715,0.62,7.772,0.614C7.829,0.61,7.897,0.606,7.979,0.606c0.084,0,0.156,0.004,0.211,0.008
		c0.057,0.006,0.1,0.015,0.133,0.027c0.031,0.014,0.055,0.027,0.068,0.047c0.014,0.019,0.02,0.039,0.02,0.062v0.684h0.668
		c0.021,0,0.041,0.005,0.059,0.018c0.018,0.01,0.031,0.029,0.041,0.056c0.014,0.026,0.023,0.063,0.027,0.108
		c0.006,0.045,0.01,0.101,0.01,0.168c0,0.126-0.012,0.216-0.037,0.27C9.157,2.105,9.124,2.132,9.081,2.132h-0.67V3.57
		c0,0.167,0.027,0.292,0.08,0.377c0.053,0.082,0.146,0.124,0.281,0.124c0.047,0,0.088-0.005,0.123-0.013
		c0.037-0.007,0.07-0.017,0.098-0.027c0.029-0.009,0.053-0.02,0.072-0.026c0.02-0.009,0.037-0.014,0.053-0.014
		s0.027,0.005,0.039,0.014C9.17,4.012,9.178,4.028,9.188,4.053c0.004,0.023,0.014,0.056,0.018,0.099
		C9.211,4.192,9.215,4.244,9.215,4.307"/>
	<path fill="#FFFFFF" d="M12.444,4.62c0,0.032-0.008,0.058-0.033,0.075c-0.021,0.019-0.057,0.031-0.107,0.039
		c-0.049,0.009-0.121,0.014-0.217,0.014c-0.105,0-0.178-0.005-0.225-0.014c-0.049-0.008-0.08-0.021-0.1-0.039
		c-0.021-0.018-0.029-0.043-0.029-0.075V4.377c-0.125,0.135-0.271,0.24-0.432,0.315c-0.16,0.076-0.34,0.112-0.537,0.112
		c-0.16,0-0.311-0.021-0.447-0.063C10.18,4.7,10.063,4.637,9.963,4.553C9.866,4.47,9.788,4.366,9.731,4.242
		C9.678,4.119,9.649,3.975,9.649,3.811c0-0.179,0.035-0.333,0.105-0.464c0.07-0.134,0.174-0.24,0.313-0.327
		c0.139-0.085,0.311-0.149,0.516-0.19c0.207-0.041,0.445-0.062,0.719-0.062h0.297V2.582c0-0.096-0.01-0.179-0.029-0.252
		c-0.02-0.072-0.051-0.132-0.096-0.18c-0.043-0.049-0.104-0.083-0.178-0.107c-0.074-0.022-0.166-0.034-0.277-0.034
		c-0.145,0-0.271,0.017-0.385,0.048c-0.113,0.032-0.213,0.067-0.301,0.107c-0.088,0.039-0.16,0.075-0.219,0.105
		c-0.057,0.032-0.105,0.05-0.143,0.05c-0.023,0-0.045-0.01-0.064-0.025S9.87,2.255,9.858,2.226C9.844,2.196,9.834,2.159,9.829,2.116
		c-0.008-0.045-0.01-0.091-0.01-0.145c0-0.071,0.006-0.127,0.016-0.169c0.012-0.04,0.033-0.077,0.066-0.11
		c0.031-0.033,0.088-0.07,0.168-0.11s0.174-0.078,0.281-0.112s0.225-0.062,0.352-0.083s0.258-0.033,0.393-0.033
		c0.24,0,0.445,0.023,0.617,0.071c0.17,0.047,0.309,0.118,0.418,0.215c0.111,0.099,0.191,0.224,0.24,0.377
		c0.053,0.153,0.074,0.334,0.074,0.545V4.62z M11.598,3.311H11.27c-0.141,0-0.26,0.009-0.357,0.03
		c-0.098,0.021-0.178,0.052-0.24,0.093s-0.107,0.091-0.137,0.148c-0.027,0.058-0.041,0.125-0.041,0.201
		c0,0.129,0.041,0.229,0.121,0.302c0.08,0.074,0.193,0.11,0.338,0.11c0.121,0,0.232-0.03,0.334-0.094
		c0.104-0.062,0.205-0.151,0.311-0.271V3.311z"/>
	<path fill="#FFFFFF" d="M16.231,4.61c0,0.022-0.008,0.043-0.021,0.059c-0.014,0.018-0.037,0.032-0.068,0.043
		c-0.033,0.014-0.076,0.021-0.133,0.027c-0.057,0.004-0.125,0.009-0.207,0.009c-0.084,0-0.154-0.005-0.211-0.009
		c-0.057-0.006-0.1-0.014-0.133-0.027c-0.033-0.011-0.055-0.025-0.068-0.043c-0.014-0.016-0.021-0.036-0.021-0.059V2.863
		c0-0.149-0.01-0.264-0.031-0.35c-0.021-0.084-0.055-0.157-0.094-0.218c-0.043-0.062-0.096-0.106-0.16-0.141
		c-0.066-0.032-0.143-0.05-0.229-0.05c-0.109,0-0.221,0.04-0.332,0.12s-0.23,0.196-0.35,0.35V4.61c0,0.022-0.008,0.043-0.021,0.059
		c-0.014,0.018-0.037,0.032-0.07,0.043c-0.035,0.014-0.078,0.021-0.133,0.027c-0.055,0.004-0.125,0.009-0.209,0.009
		s-0.154-0.005-0.209-0.009c-0.055-0.006-0.1-0.014-0.131-0.027c-0.033-0.011-0.059-0.025-0.072-0.043
		c-0.014-0.016-0.02-0.036-0.02-0.059V1.55c0-0.022,0.004-0.043,0.018-0.061c0.01-0.017,0.031-0.03,0.061-0.042
		S13.454,1.427,13.5,1.42c0.047-0.005,0.105-0.008,0.176-0.008c0.074,0,0.135,0.003,0.184,0.008
		c0.047,0.007,0.086,0.016,0.109,0.027c0.027,0.012,0.047,0.025,0.059,0.042c0.01,0.018,0.018,0.038,0.018,0.061v0.354
		c0.168-0.184,0.34-0.32,0.516-0.411c0.174-0.093,0.357-0.139,0.547-0.139c0.209,0,0.383,0.036,0.527,0.103
		c0.143,0.07,0.258,0.163,0.346,0.28c0.088,0.119,0.152,0.256,0.189,0.414c0.041,0.158,0.061,0.347,0.061,0.568V4.61z"/>
	<path fill="#FFFFFF" d="M19.979,4.61c0,0.024-0.006,0.045-0.016,0.063c-0.012,0.017-0.031,0.032-0.061,0.043
		c-0.025,0.012-0.063,0.02-0.109,0.024c-0.049,0.004-0.105,0.008-0.174,0.008c-0.074,0-0.133-0.004-0.178-0.008
		c-0.047-0.005-0.084-0.013-0.111-0.024c-0.031-0.011-0.051-0.026-0.063-0.043c-0.014-0.018-0.02-0.038-0.02-0.063v-0.34
		c-0.158,0.169-0.324,0.3-0.496,0.394s-0.363,0.141-0.574,0.141c-0.232,0-0.43-0.044-0.592-0.136c-0.16-0.09-0.293-0.21-0.395-0.365
		c-0.102-0.152-0.176-0.332-0.221-0.535c-0.045-0.205-0.07-0.422-0.07-0.647c0-0.272,0.031-0.518,0.088-0.735
		c0.061-0.216,0.145-0.4,0.256-0.556c0.113-0.151,0.252-0.27,0.42-0.352c0.166-0.084,0.357-0.125,0.576-0.125
		c0.17,0,0.326,0.036,0.467,0.105c0.139,0.069,0.277,0.172,0.414,0.308V0.108c0-0.022,0.006-0.043,0.02-0.062
		c0.012-0.02,0.035-0.033,0.068-0.047c0.033-0.012,0.076-0.021,0.131-0.028c0.057-0.008,0.125-0.01,0.211-0.01
		c0.084,0,0.154,0.002,0.209,0.01C19.815-0.021,19.858-0.012,19.891,0c0.031,0.014,0.055,0.027,0.068,0.047
		c0.014,0.019,0.02,0.039,0.02,0.062V4.61z M19.122,2.565c-0.123-0.155-0.24-0.275-0.355-0.358c-0.113-0.081-0.23-0.122-0.355-0.122
		c-0.113,0-0.207,0.027-0.289,0.084c-0.08,0.057-0.146,0.131-0.195,0.226c-0.049,0.093-0.086,0.198-0.109,0.313
		c-0.025,0.115-0.037,0.235-0.037,0.354c0,0.129,0.012,0.254,0.031,0.374c0.02,0.122,0.055,0.231,0.102,0.324
		c0.047,0.096,0.109,0.171,0.188,0.229c0.078,0.057,0.176,0.085,0.293,0.085c0.061,0,0.119-0.009,0.176-0.025
		c0.055-0.018,0.111-0.045,0.17-0.084s0.119-0.09,0.182-0.152c0.061-0.063,0.129-0.14,0.201-0.232V2.565z"/>
</g>
</svg>
