<?xml version="1.0" encoding="utf-8"?>
<!-- Generator: Adobe Illustrator 14.0.0, SVG Export Plug-In . SVG Version: 6.00 Build 43363)  -->
<!DOCTYPE svg PUBLIC "-//W3C//DTD SVG 1.1//EN" "http://www.w3.org/Graphics/SVG/1.1/DTD/svg11.dtd">
<svg version="1.1" id="圖層_1" xmlns="http://www.w3.org/2000/svg" xmlns:xlink="http://www.w3.org/1999/xlink" x="0px" y="0px"
	 width="42.52px" height="13.182px" viewBox="0 0 42.52 13.182" enable-background="new 0 0 42.52 13.182" xml:space="preserve">
<g>
	<g>
		<path fill="#E60000" d="M10.937,8.569c0,0.796-0.099,1.476-0.295,2.041c-0.199,0.563-0.483,1.024-0.854,1.382
			c-0.365,0.357-0.816,0.62-1.347,0.786c-0.525,0.166-1.155,0.25-1.888,0.25H4.59c-0.139,0-0.257-0.041-0.352-0.129
			c-0.096-0.088-0.144-0.229-0.144-0.425V4.919c0-0.193,0.048-0.338,0.144-0.424C4.333,4.409,4.451,4.365,4.59,4.365h2.111
			c0.732,0,1.357,0.09,1.869,0.27c0.514,0.183,0.945,0.449,1.29,0.804c0.354,0.354,0.618,0.795,0.8,1.315
			C10.844,7.274,10.937,7.882,10.937,8.569z M9.204,8.628c0-0.408-0.046-0.791-0.131-1.146C8.979,7.128,8.831,6.823,8.627,6.569
			C8.426,6.308,8.169,6.101,7.85,5.962C7.538,5.816,7.123,5.743,6.608,5.743H5.764v5.896h0.872c0.457,0,0.842-0.064,1.154-0.188
			c0.316-0.127,0.58-0.318,0.792-0.57c0.207-0.248,0.361-0.563,0.466-0.938C9.15,9.567,9.204,9.13,9.204,8.628z"/>
		<path fill="#A6A6A6" d="M17.454,9.64c0,0.203-0.04,0.354-0.129,0.455c-0.085,0.097-0.203,0.146-0.359,0.146h-3.45
			c0,0.254,0.025,0.485,0.083,0.694c0.056,0.2,0.146,0.383,0.272,0.526c0.126,0.145,0.286,0.256,0.482,0.33s0.438,0.115,0.708,0.115
			c0.282,0,0.526-0.021,0.741-0.063c0.212-0.043,0.391-0.092,0.549-0.143c0.159-0.05,0.282-0.101,0.392-0.142
			c0.099-0.046,0.185-0.063,0.244-0.063c0.038,0,0.068,0.01,0.098,0.024c0.021,0.015,0.042,0.041,0.063,0.08
			c0.015,0.041,0.025,0.099,0.035,0.174c0.005,0.069,0.007,0.162,0.007,0.274c0,0.099-0.002,0.185-0.004,0.252
			c-0.005,0.07-0.013,0.129-0.021,0.179s-0.022,0.093-0.038,0.125c-0.014,0.03-0.038,0.063-0.068,0.099
			c-0.027,0.03-0.104,0.071-0.224,0.123c-0.121,0.057-0.28,0.106-0.473,0.159c-0.192,0.05-0.41,0.099-0.656,0.136
			c-0.245,0.037-0.507,0.055-0.786,0.055c-0.504,0-0.947-0.065-1.328-0.2c-0.378-0.134-0.693-0.339-0.947-0.608
			c-0.257-0.271-0.445-0.615-0.575-1.029c-0.118-0.416-0.186-0.901-0.186-1.457c0-0.535,0.066-1.014,0.196-1.44
			c0.133-0.425,0.323-0.791,0.572-1.086c0.25-0.295,0.554-0.522,0.915-0.683c0.358-0.151,0.763-0.233,1.209-0.233
			c0.476,0,0.883,0.075,1.222,0.224c0.337,0.147,0.615,0.354,0.828,0.617c0.218,0.26,0.379,0.566,0.477,0.922
			c0.104,0.36,0.151,0.752,0.151,1.17V9.64z M15.903,9.157c0.015-0.477-0.075-0.845-0.27-1.113c-0.194-0.27-0.491-0.407-0.895-0.407
			c-0.204,0-0.381,0.041-0.53,0.117c-0.149,0.088-0.277,0.193-0.373,0.328c-0.103,0.137-0.181,0.299-0.232,0.481
			C13.55,8.75,13.52,8.949,13.515,9.156L15.903,9.157L15.903,9.157z"/>
		<path fill="#A6A6A6" d="M22.77,11.112c0,0.343-0.059,0.642-0.182,0.899c-0.121,0.261-0.293,0.476-0.512,0.648
			c-0.226,0.172-0.48,0.305-0.781,0.395c-0.308,0.084-0.629,0.127-0.98,0.127c-0.211,0-0.418-0.018-0.604-0.049
			c-0.195-0.033-0.369-0.074-0.521-0.129c-0.149-0.047-0.279-0.104-0.383-0.156c-0.099-0.053-0.177-0.104-0.225-0.146
			c-0.045-0.05-0.078-0.121-0.108-0.225c-0.024-0.1-0.038-0.25-0.038-0.445c0-0.128,0.005-0.232,0.014-0.313
			c0.014-0.078,0.021-0.141,0.037-0.184c0.02-0.05,0.038-0.082,0.068-0.097c0.021-0.017,0.056-0.024,0.093-0.024
			c0.043,0,0.113,0.028,0.209,0.086c0.092,0.055,0.199,0.115,0.342,0.182c0.132,0.068,0.295,0.132,0.471,0.188
			c0.18,0.063,0.383,0.086,0.615,0.086c0.145,0,0.271-0.017,0.385-0.045c0.114-0.029,0.207-0.076,0.293-0.134
			c0.078-0.062,0.145-0.136,0.186-0.224c0.045-0.09,0.064-0.19,0.064-0.307c0-0.138-0.039-0.248-0.113-0.347
			c-0.084-0.097-0.188-0.181-0.313-0.254c-0.129-0.067-0.277-0.136-0.441-0.196c-0.158-0.066-0.332-0.136-0.5-0.209
			c-0.174-0.074-0.342-0.164-0.5-0.261c-0.167-0.099-0.315-0.224-0.441-0.362c-0.129-0.144-0.233-0.314-0.313-0.516
			c-0.078-0.199-0.116-0.44-0.116-0.722c0-0.287,0.051-0.549,0.154-0.789c0.106-0.237,0.262-0.44,0.464-0.61
			c0.195-0.17,0.44-0.308,0.723-0.396C20.102,6.49,20.422,6.44,20.78,6.44c0.183,0,0.355,0.021,0.521,0.043
			c0.166,0.026,0.318,0.062,0.453,0.103C21.889,6.63,22,6.671,22.094,6.718c0.094,0.045,0.158,0.086,0.201,0.119
			c0.041,0.033,0.072,0.065,0.086,0.104c0.018,0.03,0.031,0.071,0.041,0.116c0.008,0.05,0.012,0.104,0.021,0.173
			c0.002,0.071,0.002,0.161,0.002,0.263c0,0.12,0,0.217-0.002,0.297c-0.01,0.073-0.02,0.135-0.03,0.18
			c-0.019,0.041-0.035,0.076-0.063,0.088c-0.027,0.02-0.055,0.025-0.092,0.025c-0.033,0-0.096-0.025-0.172-0.076
			c-0.088-0.043-0.189-0.092-0.31-0.146c-0.121-0.052-0.262-0.104-0.42-0.151c-0.157-0.045-0.338-0.07-0.545-0.07
			c-0.143,0-0.27,0.018-0.375,0.05c-0.1,0.028-0.188,0.071-0.256,0.131c-0.074,0.063-0.125,0.128-0.154,0.205
			c-0.034,0.075-0.053,0.162-0.053,0.252c0,0.14,0.043,0.252,0.121,0.349c0.082,0.094,0.188,0.178,0.32,0.248
			c0.127,0.069,0.274,0.139,0.444,0.199c0.166,0.063,0.338,0.133,0.513,0.204c0.17,0.073,0.34,0.162,0.506,0.265
			c0.172,0.096,0.315,0.213,0.447,0.356c0.135,0.142,0.241,0.31,0.319,0.513C22.727,10.608,22.77,10.839,22.77,11.112z"/>
		<path fill="#A6A6A6" d="M28.266,11.849c0,0.113-0.006,0.214-0.014,0.289c-0.002,0.084-0.01,0.146-0.021,0.199
			c-0.014,0.058-0.021,0.101-0.037,0.135c-0.018,0.029-0.047,0.07-0.102,0.125c-0.049,0.052-0.137,0.113-0.26,0.188
			c-0.121,0.071-0.265,0.139-0.418,0.194c-0.156,0.062-0.332,0.108-0.513,0.146c-0.186,0.035-0.377,0.053-0.565,0.053
			c-0.445,0-0.832-0.069-1.168-0.215c-0.338-0.144-0.621-0.353-0.847-0.635c-0.231-0.279-0.403-0.619-0.52-1.021
			c-0.116-0.401-0.178-0.864-0.178-1.381c0-0.598,0.074-1.114,0.215-1.551s0.34-0.793,0.594-1.082
			c0.256-0.285,0.56-0.498,0.906-0.637c0.352-0.14,0.727-0.205,1.145-0.205c0.166,0,0.338,0.014,0.5,0.047
			c0.16,0.028,0.314,0.069,0.459,0.129c0.142,0.047,0.271,0.11,0.382,0.176c0.112,0.066,0.19,0.127,0.239,0.179
			c0.043,0.047,0.078,0.091,0.097,0.123c0.016,0.032,0.034,0.073,0.045,0.133c0.01,0.05,0.018,0.117,0.024,0.197
			c0.008,0.071,0.013,0.17,0.013,0.278c0,0.262-0.023,0.443-0.066,0.551C28.139,8.37,28.08,8.42,28.012,8.42
			c-0.07,0-0.148-0.031-0.227-0.094c-0.084-0.063-0.181-0.134-0.287-0.209c-0.115-0.074-0.242-0.143-0.398-0.205
			c-0.149-0.063-0.332-0.097-0.543-0.097c-0.418,0-0.736,0.17-0.953,0.511c-0.225,0.336-0.334,0.83-0.334,1.479
			c0,0.322,0.029,0.607,0.082,0.854c0.058,0.245,0.14,0.45,0.248,0.61c0.107,0.172,0.242,0.293,0.402,0.377
			c0.162,0.086,0.354,0.123,0.572,0.123c0.221,0,0.409-0.033,0.569-0.104c0.158-0.066,0.293-0.146,0.416-0.232
			c0.117-0.079,0.219-0.161,0.299-0.227c0.082-0.074,0.146-0.104,0.205-0.104c0.035,0,0.064,0.011,0.095,0.029
			c0.021,0.025,0.045,0.065,0.061,0.127c0.018,0.062,0.027,0.14,0.035,0.232C28.26,11.581,28.266,11.702,28.266,11.849z"/>
		<path fill="#A6A6A6" d="M34.844,12.799c0,0.049-0.018,0.086-0.039,0.117c-0.022,0.037-0.066,0.063-0.127,0.088
			c-0.063,0.019-0.139,0.037-0.244,0.051c-0.104,0.011-0.229,0.018-0.385,0.018c-0.158,0-0.287-0.007-0.393-0.018
			c-0.105-0.014-0.187-0.032-0.242-0.051c-0.062-0.024-0.101-0.051-0.131-0.088c-0.023-0.031-0.039-0.068-0.039-0.117V9.392
			c0-0.288-0.017-0.52-0.062-0.682c-0.039-0.172-0.096-0.312-0.172-0.43c-0.078-0.115-0.176-0.205-0.299-0.277
			c-0.117-0.062-0.258-0.092-0.422-0.092c-0.199,0-0.41,0.08-0.615,0.233c-0.211,0.153-0.426,0.386-0.65,0.683v3.971
			c0,0.049-0.014,0.086-0.037,0.117c-0.026,0.037-0.067,0.063-0.129,0.088c-0.063,0.019-0.145,0.037-0.25,0.051
			c-0.098,0.011-0.223,0.017-0.387,0.017c-0.154,0-0.287-0.006-0.387-0.017c-0.105-0.014-0.185-0.032-0.246-0.051
			c-0.06-0.024-0.104-0.051-0.127-0.088c-0.027-0.031-0.039-0.068-0.039-0.117V3.993c0-0.043,0.012-0.082,0.039-0.119
			c0.022-0.033,0.067-0.068,0.127-0.092c0.063-0.023,0.141-0.043,0.246-0.057c0.1-0.014,0.231-0.021,0.387-0.021
			c0.164,0,0.289,0.01,0.387,0.021c0.105,0.014,0.187,0.031,0.25,0.057c0.062,0.021,0.103,0.059,0.129,0.092
			c0.023,0.037,0.037,0.076,0.037,0.119v3.303c0.277-0.285,0.558-0.498,0.843-0.639c0.288-0.143,0.588-0.216,0.893-0.216
			c0.391,0,0.717,0.069,0.979,0.205c0.271,0.134,0.48,0.317,0.646,0.549c0.166,0.231,0.283,0.505,0.354,0.81
			c0.07,0.318,0.107,0.688,0.107,1.137L34.844,12.799L34.844,12.799z"/>
		<path fill="#A6A6A6" d="M36.08,4.958c0-0.609,0.459-1.07,1.045-1.07c0.58,0,1.045,0.461,1.045,1.07
			c0,0.621-0.465,1.074-1.045,1.074C36.539,6.032,36.08,5.579,36.08,4.958 M37.125,6.245c0.701,0,1.301-0.543,1.301-1.287
			c0-0.736-0.6-1.281-1.301-1.281c-0.703,0-1.308,0.545-1.308,1.281C35.819,5.702,36.422,6.245,37.125,6.245 M36.854,5.056h0.258
			l0.394,0.646h0.256L37.338,5.05c0.213-0.026,0.385-0.141,0.385-0.408c0-0.293-0.176-0.42-0.524-0.42h-0.566v1.48h0.225V5.056
			H36.854z M36.854,4.87V4.413h0.31c0.151,0,0.319,0.035,0.319,0.213c0,0.229-0.174,0.244-0.36,0.244H36.854z"/>
	</g>
</g>
</svg>
