<?xml version="1.0" encoding="utf-8"?>
<!-- Generator: Adobe Illustrator 14.0.0, SVG Export Plug-In . SVG Version: 6.00 Build 43363)  -->
<!DOCTYPE svg PUBLIC "-//W3C//DTD SVG 1.1//EN" "http://www.w3.org/Graphics/SVG/1.1/DTD/svg11.dtd">
<svg version="1.1" id="圖層_1" xmlns="http://www.w3.org/2000/svg" xmlns:xlink="http://www.w3.org/1999/xlink" x="0px" y="0px"
	 width="42.52px" height="13.182px" viewBox="0 0 42.52 13.182" enable-background="new 0 0 42.52 13.182" xml:space="preserve">
<g>
	<path fill="#E60000" d="M6.042,12.798c0,0.051-0.013,0.092-0.04,0.127c-0.017,0.035-0.057,0.06-0.111,0.082
		c-0.053,0.021-0.126,0.041-0.219,0.049c-0.091,0.009-0.204,0.011-0.337,0.011c-0.145,0-0.262-0.002-0.354-0.011
		c-0.088-0.008-0.163-0.025-0.217-0.049c-0.058-0.022-0.096-0.047-0.122-0.082c-0.023-0.035-0.034-0.076-0.034-0.127v-0.666
		c-0.311,0.334-0.639,0.592-0.979,0.771c-0.335,0.188-0.71,0.278-1.124,0.278c-0.459,0-0.845-0.09-1.162-0.264
		c-0.316-0.183-0.575-0.418-0.775-0.717c-0.198-0.302-0.344-0.654-0.432-1.056C0.043,10.74,0,10.321,0,9.874
		c0-0.533,0.056-1.017,0.171-1.441c0.111-0.426,0.282-0.788,0.501-1.088c0.219-0.301,0.494-0.533,0.822-0.691
		C1.821,6.49,2.198,6.41,2.626,6.41c0.338,0,0.64,0.064,0.917,0.202c0.271,0.14,0.544,0.339,0.811,0.603v-3.25
		c0-0.043,0.015-0.085,0.041-0.123C4.418,3.805,4.463,3.776,4.53,3.75c0.064-0.021,0.15-0.042,0.258-0.056
		C4.894,3.681,5.034,3.673,5.2,3.673c0.163,0,0.3,0.01,0.407,0.021c0.11,0.014,0.19,0.033,0.255,0.056
		C5.929,3.776,5.976,3.806,6,3.842c0.027,0.038,0.043,0.08,0.043,0.123L6.042,12.798L6.042,12.798z M4.356,8.788
		c-0.24-0.308-0.473-0.543-0.694-0.703c-0.227-0.16-0.457-0.242-0.696-0.242c-0.225,0-0.413,0.058-0.57,0.166
		C2.238,8.118,2.109,8.264,2.01,8.448C1.914,8.634,1.843,8.837,1.793,9.063C1.748,9.29,1.725,9.522,1.725,9.76
		c0,0.252,0.021,0.5,0.063,0.734c0.04,0.237,0.104,0.45,0.198,0.635c0.091,0.188,0.215,0.34,0.364,0.451
		c0.153,0.106,0.35,0.166,0.58,0.166c0.113,0,0.232-0.013,0.34-0.047c0.111-0.039,0.226-0.093,0.334-0.164
		c0.116-0.082,0.229-0.181,0.355-0.304c0.124-0.121,0.254-0.276,0.396-0.453L4.356,8.788L4.356,8.788z"/>
	<path fill="#A6A6A6" d="M13.009,10.411c0,0.461-0.086,0.866-0.257,1.207c-0.168,0.348-0.4,0.639-0.693,0.864
		c-0.292,0.233-0.632,0.405-1.021,0.522s-0.813,0.176-1.252,0.176c-0.305,0-0.58-0.021-0.84-0.073
		c-0.258-0.052-0.485-0.11-0.687-0.181c-0.194-0.067-0.359-0.14-0.491-0.216c-0.134-0.076-0.229-0.146-0.287-0.203
		c-0.055-0.059-0.104-0.141-0.12-0.25c-0.03-0.112-0.04-0.271-0.04-0.477c0-0.141,0.006-0.259,0.013-0.354
		c0.007-0.092,0.027-0.17,0.043-0.229c0.02-0.056,0.051-0.1,0.083-0.121c0.033-0.025,0.069-0.037,0.116-0.037
		c0.063,0,0.149,0.037,0.265,0.11c0.116,0.071,0.262,0.155,0.443,0.244c0.179,0.09,0.396,0.177,0.64,0.245
		c0.252,0.074,0.542,0.109,0.87,0.109c0.214,0,0.406-0.021,0.577-0.074c0.171-0.053,0.315-0.125,0.436-0.221
		c0.118-0.097,0.208-0.209,0.271-0.349c0.063-0.142,0.096-0.293,0.096-0.468c0-0.198-0.056-0.366-0.164-0.508
		c-0.111-0.141-0.25-0.266-0.418-0.379c-0.176-0.108-0.373-0.209-0.592-0.312c-0.22-0.095-0.45-0.192-0.681-0.302
		C9.084,9.035,8.857,8.911,8.64,8.773C8.42,8.639,8.224,8.471,8.05,8.281C7.881,8.092,7.736,7.865,7.629,7.607
		C7.521,7.345,7.466,7.037,7.466,6.673c0-0.42,0.075-0.785,0.237-1.103c0.149-0.317,0.358-0.58,0.622-0.788
		C8.587,4.574,8.9,4.418,9.255,4.314c0.354-0.104,0.736-0.155,1.134-0.155c0.207,0,0.414,0.018,0.62,0.045
		c0.204,0.032,0.4,0.078,0.577,0.129c0.182,0.055,0.34,0.116,0.479,0.184c0.144,0.067,0.232,0.127,0.275,0.17
		c0.048,0.043,0.081,0.086,0.091,0.109c0.02,0.036,0.033,0.079,0.042,0.127c0.014,0.052,0.021,0.118,0.023,0.196
		c0.004,0.08,0.007,0.179,0.007,0.292c0,0.131-0.005,0.239-0.007,0.33c-0.009,0.09-0.02,0.163-0.036,0.225
		c-0.021,0.058-0.038,0.099-0.068,0.125c-0.025,0.029-0.065,0.041-0.117,0.041c-0.048,0-0.132-0.033-0.236-0.096
		c-0.106-0.064-0.237-0.129-0.395-0.203c-0.158-0.076-0.338-0.142-0.549-0.203c-0.204-0.06-0.434-0.09-0.678-0.09
		c-0.191,0-0.361,0.022-0.501,0.069C9.768,5.659,9.65,5.722,9.55,5.806C9.457,5.888,9.382,5.987,9.338,6.102
		C9.291,6.22,9.265,6.345,9.265,6.474c0,0.195,0.052,0.361,0.159,0.503C9.53,7.116,9.671,7.245,9.85,7.35
		c0.173,0.113,0.375,0.223,0.604,0.313c0.222,0.098,0.45,0.201,0.686,0.305c0.234,0.109,0.463,0.232,0.687,0.365
		c0.225,0.141,0.421,0.31,0.6,0.494c0.173,0.19,0.315,0.416,0.423,0.676C12.954,9.76,13.009,10.067,13.009,10.411"/>
	<path fill="#A6A6A6" d="M17.814,12.206c0,0.196-0.011,0.35-0.034,0.453c-0.027,0.105-0.059,0.18-0.1,0.225
		c-0.039,0.043-0.101,0.078-0.182,0.111c-0.078,0.035-0.168,0.063-0.274,0.09c-0.103,0.022-0.219,0.043-0.343,0.06
		c-0.121,0.015-0.249,0.019-0.375,0.019c-0.335,0-0.627-0.037-0.872-0.129c-0.249-0.084-0.451-0.216-0.615-0.395
		c-0.16-0.178-0.281-0.398-0.356-0.67c-0.073-0.268-0.111-0.588-0.111-0.953v-3.08H13.83c-0.085,0-0.151-0.054-0.196-0.158
		C13.589,7.675,13.566,7.5,13.566,7.25c0-0.127,0.006-0.239,0.017-0.331c0.016-0.088,0.03-0.158,0.053-0.209
		c0.021-0.053,0.048-0.088,0.083-0.113c0.033-0.02,0.076-0.034,0.119-0.034h0.715V5.222c0-0.043,0.01-0.083,0.038-0.117
		c0.022-0.038,0.068-0.065,0.134-0.095c0.063-0.024,0.151-0.04,0.263-0.055c0.107-0.006,0.243-0.017,0.402-0.017
		c0.169,0,0.312,0.011,0.418,0.017c0.106,0.015,0.197,0.028,0.259,0.055c0.063,0.027,0.106,0.057,0.136,0.095
		c0.026,0.033,0.041,0.074,0.041,0.117v1.339h1.308c0.043,0,0.08,0.017,0.115,0.034c0.03,0.025,0.061,0.063,0.086,0.113
		c0.021,0.051,0.038,0.121,0.051,0.209c0.013,0.092,0.015,0.204,0.015,0.331c0,0.25-0.021,0.426-0.063,0.528
		c-0.045,0.104-0.11,0.158-0.199,0.158h-1.31v2.821c0,0.328,0.053,0.572,0.154,0.736c0.104,0.161,0.282,0.245,0.555,0.245
		c0.086,0,0.168-0.006,0.237-0.022c0.073-0.014,0.14-0.033,0.193-0.057c0.054-0.02,0.104-0.035,0.142-0.052
		c0.037-0.019,0.07-0.022,0.103-0.022s0.058,0.006,0.081,0.022s0.045,0.047,0.053,0.095c0.02,0.049,0.03,0.11,0.043,0.192
		C17.812,11.977,17.814,12.083,17.814,12.206"/>
	<path fill="#A6A6A6" d="M24.157,12.817c0,0.063-0.027,0.11-0.068,0.147c-0.043,0.039-0.113,0.063-0.213,0.076
		c-0.094,0.018-0.238,0.022-0.422,0.022c-0.207,0-0.354-0.007-0.447-0.022c-0.09-0.015-0.156-0.037-0.195-0.076
		c-0.036-0.037-0.059-0.084-0.059-0.147v-0.476c-0.244,0.263-0.527,0.47-0.842,0.617c-0.318,0.147-0.67,0.223-1.054,0.223
		c-0.319,0-0.612-0.043-0.878-0.125c-0.267-0.082-0.502-0.202-0.696-0.37c-0.19-0.162-0.347-0.365-0.453-0.608
		c-0.106-0.242-0.161-0.523-0.161-0.849c0-0.351,0.067-0.655,0.204-0.912c0.141-0.256,0.343-0.472,0.613-0.64
		c0.271-0.17,0.612-0.295,1.017-0.373c0.399-0.08,0.867-0.123,1.406-0.123h0.582v-0.36c0-0.19-0.018-0.356-0.059-0.495
		c-0.037-0.143-0.098-0.259-0.188-0.355c-0.088-0.092-0.203-0.164-0.354-0.207C21.749,7.718,21.567,7.7,21.353,7.7
		c-0.282,0-0.534,0.025-0.76,0.094c-0.221,0.06-0.416,0.131-0.586,0.209c-0.17,0.072-0.315,0.142-0.427,0.207
		c-0.119,0.063-0.207,0.092-0.282,0.092c-0.049,0-0.094-0.012-0.131-0.045c-0.041-0.028-0.068-0.078-0.097-0.133
		c-0.021-0.06-0.044-0.131-0.058-0.217c-0.015-0.087-0.02-0.182-0.02-0.285c0-0.138,0.01-0.246,0.031-0.328
		c0.024-0.08,0.067-0.152,0.129-0.219c0.065-0.068,0.175-0.139,0.337-0.219c0.155-0.075,0.336-0.147,0.549-0.22
		c0.209-0.064,0.44-0.118,0.692-0.162c0.25-0.047,0.504-0.063,0.769-0.063c0.471,0,0.875,0.045,1.209,0.139
		c0.334,0.088,0.608,0.23,0.821,0.422c0.218,0.19,0.38,0.438,0.478,0.737c0.099,0.301,0.146,0.658,0.146,1.072v4.034H24.157z
		 M22.491,10.245h-0.646c-0.271,0-0.506,0.022-0.697,0.063c-0.189,0.037-0.35,0.1-0.471,0.184c-0.123,0.079-0.211,0.176-0.27,0.293
		c-0.055,0.11-0.08,0.246-0.08,0.395c0,0.246,0.077,0.445,0.241,0.593c0.151,0.142,0.377,0.213,0.657,0.213
		c0.238,0,0.457-0.063,0.656-0.181c0.199-0.121,0.4-0.299,0.606-0.534L22.491,10.245L22.491,10.245z"/>
	<path fill="#A6A6A6" d="M31.579,12.798c0,0.045-0.013,0.086-0.039,0.121c-0.025,0.033-0.07,0.06-0.136,0.08
		c-0.063,0.024-0.147,0.041-0.259,0.051c-0.107,0.015-0.247,0.017-0.402,0.017c-0.17,0-0.311-0.002-0.416-0.017
		c-0.109-0.01-0.197-0.024-0.264-0.051c-0.063-0.021-0.104-0.047-0.135-0.08c-0.024-0.035-0.037-0.076-0.037-0.121V9.374
		c0-0.293-0.021-0.521-0.063-0.688c-0.047-0.164-0.105-0.312-0.188-0.429c-0.076-0.119-0.184-0.213-0.313-0.278
		c-0.127-0.063-0.277-0.099-0.449-0.099c-0.215,0-0.43,0.084-0.654,0.24c-0.218,0.152-0.444,0.385-0.685,0.682v3.994
		c0,0.045-0.011,0.086-0.039,0.121c-0.025,0.033-0.072,0.06-0.138,0.08c-0.065,0.024-0.149,0.041-0.263,0.051
		c-0.104,0.015-0.239,0.017-0.412,0.017c-0.161,0-0.301-0.002-0.404-0.017c-0.107-0.01-0.195-0.024-0.266-0.051
		c-0.063-0.021-0.105-0.047-0.133-0.08c-0.028-0.035-0.041-0.076-0.041-0.121V6.793c0-0.047,0.013-0.084,0.035-0.117
		C25.9,6.64,25.946,6.613,26,6.592c0.057-0.024,0.131-0.041,0.221-0.049c0.099-0.017,0.209-0.021,0.354-0.021
		s0.262,0.004,0.355,0.021c0.092,0.008,0.166,0.022,0.217,0.049c0.057,0.021,0.089,0.049,0.113,0.084
		c0.021,0.033,0.033,0.07,0.033,0.117v0.693c0.332-0.358,0.668-0.631,1.016-0.81c0.341-0.18,0.697-0.268,1.07-0.268
		c0.41,0,0.754,0.064,1.035,0.2c0.276,0.136,0.506,0.313,0.68,0.548c0.172,0.23,0.297,0.504,0.371,0.811
		c0.076,0.313,0.113,0.688,0.113,1.117L31.579,12.798L31.579,12.798z"/>
	<path fill="#A6A6A6" d="M38.94,12.798c0,0.051-0.012,0.092-0.034,0.127s-0.062,0.06-0.112,0.082
		c-0.053,0.021-0.127,0.041-0.219,0.049c-0.094,0.009-0.207,0.011-0.339,0.011c-0.146,0-0.267-0.002-0.354-0.011
		c-0.09-0.008-0.164-0.025-0.219-0.049c-0.059-0.022-0.097-0.047-0.119-0.082c-0.027-0.035-0.037-0.076-0.037-0.127v-0.666
		c-0.313,0.334-0.639,0.592-0.975,0.771c-0.337,0.188-0.719,0.278-1.125,0.278c-0.457,0-0.852-0.09-1.164-0.264
		c-0.314-0.183-0.572-0.418-0.773-0.717c-0.199-0.302-0.346-0.654-0.43-1.056c-0.095-0.405-0.143-0.824-0.143-1.271
		c0-0.533,0.061-1.017,0.178-1.441c0.107-0.426,0.275-0.788,0.498-1.088c0.223-0.301,0.495-0.533,0.82-0.691
		c0.33-0.163,0.703-0.243,1.132-0.243c0.341,0,0.644,0.064,0.913,0.202c0.277,0.14,0.548,0.339,0.814,0.603v-3.25
		c0-0.043,0.012-0.085,0.039-0.123c0.021-0.036,0.067-0.065,0.135-0.092c0.068-0.021,0.15-0.042,0.26-0.056
		c0.105-0.014,0.24-0.021,0.414-0.021c0.16,0,0.302,0.01,0.404,0.021c0.106,0.014,0.19,0.033,0.258,0.056
		c0.063,0.024,0.107,0.056,0.133,0.092c0.027,0.038,0.043,0.08,0.043,0.123L38.94,12.798L38.94,12.798z M37.255,8.788
		c-0.24-0.308-0.471-0.543-0.693-0.703c-0.225-0.16-0.454-0.242-0.693-0.242c-0.227,0-0.41,0.058-0.572,0.166
		c-0.158,0.109-0.283,0.256-0.383,0.439c-0.097,0.186-0.168,0.389-0.218,0.614c-0.045,0.228-0.069,0.459-0.069,0.696
		c0,0.252,0.018,0.5,0.063,0.734c0.039,0.237,0.104,0.45,0.199,0.635c0.094,0.188,0.209,0.34,0.365,0.451
		c0.154,0.106,0.346,0.166,0.58,0.166c0.115,0,0.23-0.013,0.34-0.047c0.109-0.039,0.221-0.093,0.332-0.164
		c0.119-0.082,0.231-0.181,0.354-0.304c0.125-0.121,0.255-0.276,0.396-0.453L37.255,8.788L37.255,8.788z"/>
	<path fill="#A6A6A6" d="M40.175,4.957c0-0.608,0.459-1.066,1.049-1.066c0.578,0,1.041,0.458,1.041,1.066
		c0,0.62-0.463,1.075-1.041,1.075C40.634,6.031,40.175,5.576,40.175,4.957 M41.223,6.246c0.701,0,1.297-0.545,1.297-1.29
		c0-0.736-0.596-1.283-1.297-1.283c-0.709,0-1.309,0.547-1.309,1.283C39.915,5.701,40.514,6.246,41.223,6.246 M40.948,5.055h0.26
		l0.389,0.646h0.254l-0.42-0.652c0.22-0.027,0.383-0.142,0.383-0.405c0-0.296-0.17-0.424-0.521-0.424h-0.563v1.481h0.223
		L40.948,5.055L40.948,5.055z M40.948,4.87V4.412h0.309c0.152,0,0.324,0.035,0.324,0.214c0,0.228-0.179,0.244-0.363,0.244H40.948z"
		/>
</g>
</svg>
