<?xml version="1.0" encoding="utf-8"?>
<!-- Generator: Adobe Illustrator 14.0.0, SVG Export Plug-In . SVG Version: 6.00 Build 43363)  -->
<!DOCTYPE svg PUBLIC "-//W3C//DTD SVG 1.1//EN" "http://www.w3.org/Graphics/SVG/1.1/DTD/svg11.dtd">
<svg version="1.1" id="圖層_1" xmlns="http://www.w3.org/2000/svg" xmlns:xlink="http://www.w3.org/1999/xlink" x="0px" y="0px"
	 width="27.347px" height="6.733px" viewBox="0 0 27.347 6.733" enable-background="new 0 0 27.347 6.733" xml:space="preserve">
<g>
	<g>
		<g>
			<path fill="#FFFFFF" d="M4.63,6.733c0.015-0.313,0.024-0.54,0.024-0.69l0.11-0.133c0.014-0.018,0.13-0.166,0.348-0.45
				l0.626-0.817c0.074-0.1,0.155-0.215,0.253-0.352H5.843L5.695,4.287H5.432c-0.197,0-0.406,0.007-0.628,0.023
				C4.815,4.147,4.82,3.972,4.82,3.783c0-0.041,0-0.09-0.004-0.149c0.36,0.001,0.735,0.001,1.137,0.001c0.415,0,0.772,0,1.074-0.001
				C7.017,3.791,7.013,3.92,7.011,4.008L7.003,4.313L6.896,4.438C6.877,4.46,6.86,4.483,6.842,4.506L5.661,6.062l0.26,0.004
				c0.062,0,0.149-0.002,0.267-0.004l0.521-0.015c0.04,0,0.107-0.004,0.206-0.009c-0.016,0.269-0.024,0.5-0.029,0.696
				C6.484,6.73,6.119,6.73,5.793,6.73h-0.43H4.877L4.63,6.733z"/>
			<path fill="#FFFFFF" d="M7.318,6.733l0.074-1.241L7.426,4.59l0.009-0.402c0.003-0.117,0.003-0.23,0.003-0.336V3.634
				c0.196,0.001,0.347,0.001,0.443,0.001c0.077,0,0.209,0,0.401-0.001c-0.033,0.431-0.051,0.817-0.06,1.152h1.026
				c0.004-0.126,0.012-0.292,0.02-0.507c0.005-0.212,0.005-0.356,0.005-0.432c0-0.042,0-0.115-0.001-0.214l0.445,0.001
				c0.045,0,0.179,0,0.395-0.001c-0.044,0.777-0.071,1.356-0.084,1.736c-0.014,0.378-0.02,0.833-0.02,1.363L9.596,6.73
				c-0.061,0-0.207,0-0.44,0.003C9.186,6.369,9.21,5.954,9.22,5.475H8.193L8.159,6.733L7.725,6.73
				C7.667,6.73,7.532,6.73,7.318,6.733z"/>
			<path fill="#FFFFFF" d="M10.56,4.123c0.008-0.181,0.012-0.32,0.012-0.43c0-0.027,0-0.068-0.002-0.12
				c0.153,0.003,0.28,0.003,0.384,0.003c0.142,0,0.267,0,0.374-0.003c-0.004,0.047-0.009,0.085-0.009,0.119l-0.013,0.282
				c-0.001,0.043-0.001,0.09-0.001,0.148c-0.128-0.003-0.245-0.004-0.36-0.004C10.825,4.119,10.699,4.121,10.56,4.123z"/>
			<path fill="#FFFFFF" d="M10.44,6.733c0.019-0.185,0.031-0.335,0.04-0.456c0.009-0.122,0.019-0.271,0.024-0.459
				c0.009-0.188,0.018-0.392,0.024-0.618c0.004-0.228,0.009-0.487,0.014-0.784c0.164,0,0.293,0.003,0.394,0.003
				c0.09,0,0.217-0.003,0.382-0.003c-0.021,0.283-0.035,0.536-0.044,0.754c-0.01,0.215-0.018,0.447-0.019,0.688
				c-0.006,0.428-0.009,0.721-0.009,0.876C11.098,6.73,10.969,6.73,10.861,6.73C10.753,6.73,10.615,6.73,10.44,6.733z"/>
		</g>
		<path fill="#FFFFFF" d="M4.21,0v6.733H0V0H4.21z M0.526,0.842v2.261h1.29l1.129-2.261H0.526z M2.657,3.103h1.025V1.049
			L2.657,3.103z M2.395,3.63L1.263,5.893h2.42V3.63H2.395z M0.526,3.63v2.052L1.554,3.63H0.526z"/>
	</g>
	<g>
		<g id="LWPOLYLINE_65_">
			<polyline fill="#FFFFFF" points="20.854,3.644 20.726,3.908 21.517,3.908 21.517,3.644 20.854,3.644 			"/>
		</g>
		<g id="LWPOLYLINE_64_">
			<polyline fill="#FFFFFF" points="27.308,3.908 24.694,3.908 24.694,3.644 26.913,3.644 26.985,3.646 27.055,3.666 27.122,3.693 
				27.182,3.732 27.234,3.783 27.276,3.842 27.308,3.908 			"/>
		</g>
		<g id="LWPOLYLINE_63_">
			<polygon fill="#FFFFFF" points="24.027,3.644 24.096,3.652 24.164,3.674 24.223,3.705 24.276,3.742 24.325,3.791 24.362,3.848 
				24.389,3.908 21.82,3.908 21.849,3.848 21.891,3.791 21.935,3.742 21.989,3.705 22.048,3.674 22.116,3.652 22.182,3.644 			"/>
		</g>
		<g id="LWPOLYLINE_62_">
			<polyline fill="#FFFFFF" points="18.95,3.908 18.823,3.644 18.162,3.644 18.162,3.908 18.95,3.908 			"/>
		</g>
		<g id="LWPOLYLINE_61_">
			<polyline fill="#FFFFFF" points="16.897,3.908 16.792,3.644 15.954,3.644 15.849,3.908 16.897,3.908 			"/>
		</g>
		<g id="LWPOLYLINE_60_">
			<polyline fill="#FFFFFF" points="20.685,3.996 20.554,4.262 21.517,4.262 21.517,3.996 20.685,3.996 			"/>
		</g>
		<g id="LWPOLYLINE_59_">
			<polyline fill="#FFFFFF" points="27.347,4.262 27.347,3.996 24.694,3.996 24.694,4.262 27.347,4.262 			"/>
		</g>
		<g id="LWPOLYLINE_58_">
			<polyline fill="#FFFFFF" points="24.43,4.262 24.43,3.996 21.782,3.996 21.782,4.262 24.43,4.262 			"/>
		</g>
		<g id="LWPOLYLINE_57_">
			<polyline fill="#FFFFFF" points="17.036,4.262 16.931,3.996 15.813,3.996 15.707,4.262 17.036,4.262 			"/>
		</g>
		<g id="LWPOLYLINE_56_">
			<polyline fill="#FFFFFF" points="20.512,4.348 20.385,4.614 21.517,4.614 21.517,4.348 20.512,4.348 			"/>
		</g>
		<g id="LWPOLYLINE_55_">
			<polyline fill="#FFFFFF" points="27.347,4.614 27.347,4.348 26.684,4.348 26.684,4.614 27.347,4.614 			"/>
		</g>
		<g id="LWPOLYLINE_54_">
			<polyline fill="#FFFFFF" points="25.358,4.614 25.358,4.348 24.694,4.348 24.694,4.614 25.358,4.614 			"/>
		</g>
		<g id="LWPOLYLINE_53_">
			<polyline fill="#FFFFFF" points="24.43,4.614 24.43,4.348 23.769,4.348 23.769,4.614 24.43,4.614 			"/>
		</g>
		<g id="LWPOLYLINE_52_">
			<polyline fill="#FFFFFF" points="19.293,4.614 19.167,4.348 18.162,4.348 18.162,4.614 19.293,4.614 			"/>
		</g>
		<g id="LWPOLYLINE_51_">
			<polyline fill="#FFFFFF" points="17.179,4.614 17.074,4.348 15.671,4.348 15.566,4.614 16.317,4.614 16.372,4.475 16.429,4.614 
				17.179,4.614 			"/>
		</g>
		<g id="LWPOLYLINE_50_">
			<polyline fill="#FFFFFF" points="27.347,4.968 27.347,4.702 26.684,4.702 26.684,4.968 27.347,4.968 			"/>
		</g>
		<g id="LWPOLYLINE_49_">
			<polyline fill="#FFFFFF" points="25.358,4.968 25.358,4.702 24.694,4.702 24.694,4.968 25.358,4.968 			"/>
		</g>
		<g id="LWPOLYLINE_48_">
			<polyline fill="#FFFFFF" points="24.43,4.968 24.43,4.702 23.769,4.702 23.769,4.968 24.43,4.968 			"/>
		</g>
		<g id="LWPOLYLINE_47_">
			<polyline fill="#FFFFFF" points="22.444,4.968 22.444,4.702 21.782,4.702 21.782,4.968 22.444,4.968 			"/>
		</g>
		<g id="LWPOLYLINE_46_">
			<polyline fill="#FFFFFF" points="21.517,4.968 21.517,4.702 20.343,4.702 20.211,4.968 21.517,4.968 			"/>
		</g>
		<g id="LWPOLYLINE_45_">
			<polyline fill="#FFFFFF" points="19.467,4.968 19.337,4.702 18.162,4.702 18.162,4.968 19.467,4.968 			"/>
		</g>
		<g id="LWPOLYLINE_44_">
			<polyline fill="#FFFFFF" points="17.319,4.968 17.214,4.702 16.464,4.702 16.57,4.968 17.319,4.968 			"/>
		</g>
		<g id="LWPOLYLINE_43_">
			<polyline fill="#FFFFFF" points="16.174,4.968 16.28,4.702 15.531,4.702 15.424,4.968 16.174,4.968 			"/>
		</g>
		<g id="LWPOLYLINE_42_">
			<polyline fill="#FFFFFF" points="24.694,5.057 24.694,5.321 25.358,5.321 25.358,5.057 24.694,5.057 			"/>
		</g>
		<g id="LWPOLYLINE_41_">
			<polyline fill="#FFFFFF" points="27.347,5.321 27.347,5.057 26.684,5.057 26.684,5.321 27.347,5.321 			"/>
		</g>
		<g id="LWPOLYLINE_40_">
			<polyline fill="#FFFFFF" points="24.43,5.321 24.43,5.057 23.769,5.057 23.769,5.321 24.43,5.321 			"/>
		</g>
		<g id="LWPOLYLINE_39_">
			<polyline fill="#FFFFFF" points="22.444,5.321 22.444,5.057 21.782,5.057 21.782,5.321 22.444,5.321 			"/>
		</g>
		<g id="LWPOLYLINE_38_">
			<polyline fill="#FFFFFF" points="20.854,5.321 21.517,5.321 21.517,5.057 20.169,5.057 20.042,5.321 20.793,5.321 20.854,5.192 
				20.854,5.321 			"/>
		</g>
		<g id="LWPOLYLINE_37_">
			<polyline fill="#FFFFFF" points="18.823,5.192 18.885,5.321 19.637,5.321 19.506,5.057 18.162,5.057 18.162,5.321 18.823,5.321 
				18.823,5.192 			"/>
		</g>
		<g id="LWPOLYLINE_36_">
			<polyline fill="#FFFFFF" points="17.459,5.321 17.356,5.057 16.608,5.057 16.713,5.321 17.459,5.321 			"/>
		</g>
		<g id="LWPOLYLINE_35_">
			<polyline fill="#FFFFFF" points="16.03,5.321 16.137,5.057 15.388,5.057 15.282,5.321 16.03,5.321 			"/>
		</g>
		<g id="LWPOLYLINE_34_">
			<polyline fill="#FFFFFF" points="19.999,5.411 19.87,5.675 20.62,5.675 20.75,5.411 19.999,5.411 			"/>
		</g>
		<g id="LWPOLYLINE_33_">
			<polyline fill="#FFFFFF" points="23.769,5.411 23.769,5.675 24.43,5.675 24.43,5.411 23.769,5.411 			"/>
		</g>
		<g id="LWPOLYLINE_32_">
			<polyline fill="#FFFFFF" points="27.347,5.675 27.347,5.411 26.684,5.411 26.684,5.675 27.347,5.675 			"/>
		</g>
		<g id="LWPOLYLINE_31_">
			<polyline fill="#FFFFFF" points="25.358,5.675 25.358,5.411 24.694,5.411 24.694,5.675 25.358,5.675 			"/>
		</g>
		<g id="LWPOLYLINE_30_">
			<polyline fill="#FFFFFF" points="22.444,5.675 22.444,5.411 21.782,5.411 21.782,5.675 22.444,5.675 			"/>
		</g>
		<g id="LWPOLYLINE_29_">
			<polyline fill="#FFFFFF" points="21.517,5.675 21.517,5.411 20.854,5.411 20.854,5.675 21.517,5.675 			"/>
		</g>
		<g id="LWPOLYLINE_28_">
			<polyline fill="#FFFFFF" points="19.809,5.675 19.68,5.411 18.93,5.411 19.057,5.675 19.809,5.675 			"/>
		</g>
		<g id="LWPOLYLINE_27_">
			<polyline fill="#FFFFFF" points="18.823,5.675 18.823,5.411 18.162,5.411 18.162,5.675 18.823,5.675 			"/>
		</g>
		<g id="LWPOLYLINE_26_">
			<polyline fill="#FFFFFF" points="17.602,5.675 17.495,5.411 15.248,5.411 15.143,5.675 17.602,5.675 			"/>
		</g>
		<g id="LWPOLYLINE_25_">
			<polyline fill="#FFFFFF" points="20.854,5.764 20.854,6.027 21.517,6.027 21.517,5.764 20.854,5.764 			"/>
		</g>
		<g id="LWPOLYLINE_24_">
			<polyline fill="#FFFFFF" points="23.769,5.764 23.769,6.027 24.43,6.027 24.43,5.764 23.769,5.764 			"/>
		</g>
		<g id="LWPOLYLINE_23_">
			<polyline fill="#FFFFFF" points="27.347,6.027 27.347,5.764 26.684,5.764 26.684,6.027 27.347,6.027 			"/>
		</g>
		<g id="LWPOLYLINE_22_">
			<polyline fill="#FFFFFF" points="25.358,6.027 25.358,5.764 24.694,5.764 24.694,6.027 25.358,6.027 			"/>
		</g>
		<g id="LWPOLYLINE_21_">
			<polyline fill="#FFFFFF" points="22.444,6.027 22.444,5.764 21.782,5.764 21.782,6.027 22.444,6.027 			"/>
		</g>
		<g id="LWPOLYLINE_20_">
			<polyline fill="#FFFFFF" points="20.451,6.027 20.58,5.764 19.102,5.764 19.232,6.027 20.451,6.027 			"/>
		</g>
		<g id="LWPOLYLINE_19_">
			<polyline fill="#FFFFFF" points="18.823,6.027 18.823,5.764 18.162,5.764 18.162,6.027 18.823,6.027 			"/>
		</g>
		<g id="LWPOLYLINE_18_">
			<polyline fill="#FFFFFF" points="17.742,6.027 17.638,5.764 15.106,5.764 14.998,6.027 17.742,6.027 			"/>
		</g>
		<g id="LWPOLYLINE_17_">
			<polyline fill="#FFFFFF" points="27.347,6.115 24.694,6.115 24.694,6.38 27.347,6.38 27.347,6.115 			"/>
		</g>
		<g id="LWPOLYLINE_16_">
			<polyline fill="#FFFFFF" points="24.43,6.38 24.43,6.115 21.782,6.115 21.782,6.38 24.43,6.38 			"/>
		</g>
		<g id="LWPOLYLINE_15_">
			<polyline fill="#FFFFFF" points="21.517,6.38 21.517,6.115 20.854,6.115 20.854,6.38 21.517,6.38 			"/>
		</g>
		<g id="LWPOLYLINE_14_">
			<polyline fill="#FFFFFF" points="20.278,6.38 20.405,6.115 19.272,6.115 19.399,6.38 20.278,6.38 			"/>
		</g>
		<g id="LWPOLYLINE_13_">
			<polyline fill="#FFFFFF" points="18.823,6.38 18.823,6.115 18.162,6.115 18.162,6.38 18.823,6.38 			"/>
		</g>
		<g id="LWPOLYLINE_12_">
			<polyline fill="#FFFFFF" points="17.885,6.38 17.777,6.115 17.029,6.115 17.133,6.38 17.885,6.38 			"/>
		</g>
		<g id="LWPOLYLINE_11_">
			<polyline fill="#FFFFFF" points="15.612,6.38 15.716,6.115 14.965,6.115 14.858,6.38 15.612,6.38 			"/>
		</g>
		<g id="LWPOLYLINE_10_">
			<polyline fill="#FFFFFF" points="20.854,6.467 20.854,6.733 21.517,6.733 21.517,6.467 20.854,6.467 			"/>
		</g>
		<g id="LWPOLYLINE_9_">
			<polyline fill="#FFFFFF" points="20.106,6.733 20.234,6.467 19.448,6.467 19.574,6.733 20.106,6.733 			"/>
		</g>
		<g id="LWPOLYLINE_8_">
			<polyline fill="#FFFFFF" points="18.823,6.733 18.823,6.467 18.162,6.467 18.162,6.733 18.823,6.733 			"/>
		</g>
		<g id="LWPOLYLINE_7_">
			<polyline fill="#FFFFFF" points="18.026,6.733 17.92,6.467 17.171,6.467 17.279,6.733 18.026,6.733 			"/>
		</g>
		<g id="LWPOLYLINE_6_">
			<polyline fill="#FFFFFF" points="15.466,6.733 15.571,6.467 14.822,6.467 14.717,6.733 15.466,6.733 			"/>
		</g>
		<g id="LWPOLYLINE_5_">
			<polyline fill="#FFFFFF" points="18.162,3.996 18.992,3.996 19.124,4.262 18.162,4.262 18.162,3.996 			"/>
		</g>
		<g id="LWPOLYLINE_4_">
			<polyline fill="#FFFFFF" points="21.782,4.348 22.444,4.348 22.444,4.614 21.782,4.614 21.782,4.348 			"/>
		</g>
		<g id="ELLIPSE_1_">
			<path fill="#FFFFFF" d="M15.69,3.161c0,0.12,0.309,0.214,0.685,0.214c0.38,0,0.688-0.094,0.688-0.214s-0.308-0.215-0.688-0.215
				C15.999,2.946,15.69,3.041,15.69,3.161L15.69,3.161"/>
		</g>
		<g id="LWPOLYLINE_3_">
			<g id="XMLID_1_">
				<g>
					<polygon fill="#FFFFFF" points="17.446,2.194 17.446,2.222 17.441,2.25 17.092,3.02 16.742,2.92 16.372,2.885 16.01,2.924 
						15.654,3.029 15.306,2.25 15.297,2.222 15.297,2.194 15.306,2.168 15.306,2.162 15.311,2.16 15.316,2.153 15.323,2.153 
						15.327,2.15 15.333,2.147 15.34,2.147 15.346,2.15 15.352,2.153 15.358,2.153 15.628,2.531 15.636,2.541 15.649,2.547 
						15.655,2.553 15.668,2.556 15.681,2.559 15.693,2.556 15.702,2.553 15.716,2.548 15.726,2.541 15.745,2.521 15.756,2.494 
						15.766,2.473 15.778,2.443 15.778,2.414 15.688,1.967 15.693,1.963 15.693,1.951 15.698,1.947 15.706,1.936 15.713,1.933 
						15.72,1.931 15.729,1.929 15.737,1.929 15.747,1.931 15.751,1.933 15.76,1.936 15.766,1.947 15.971,2.422 15.985,2.436 
						16,2.448 16.02,2.46 16.04,2.465 16.059,2.471 16.081,2.471 16.098,2.463 16.12,2.455 16.137,2.443 16.149,2.429 16.217,2.338 
						16.261,2.233 16.293,2.126 16.339,1.707 16.342,1.696 16.345,1.693 16.352,1.684 16.356,1.68 16.362,1.672 16.372,1.672 
						16.383,1.672 16.39,1.672 16.394,1.672 16.407,1.672 16.411,1.68 16.417,1.687 16.42,1.694 16.426,1.703 16.452,2.126 
						16.485,2.233 16.528,2.338 16.59,2.429 16.608,2.443 16.625,2.455 16.645,2.463 16.665,2.471 16.683,2.471 16.706,2.465 
						16.723,2.46 16.743,2.448 16.755,2.436 16.774,2.422 16.977,1.947 16.983,1.936 16.987,1.933 16.997,1.931 17.006,1.929 
						17.016,1.929 17.026,1.931 17.032,1.933 17.036,1.936 17.045,1.947 17.048,1.951 17.051,1.963 17.053,1.967 16.969,2.414 
						16.969,2.443 16.976,2.473 16.987,2.494 17,2.521 17.016,2.541 17.026,2.548 17.04,2.553 17.051,2.556 17.063,2.559 
						17.075,2.556 17.084,2.553 17.096,2.547 17.104,2.541 17.114,2.531 17.387,2.153 17.393,2.153 17.397,2.15 17.404,2.147 
						17.407,2.147 17.417,2.15 17.422,2.153 17.428,2.153 17.431,2.16 17.436,2.162 17.441,2.168 					"/>
				</g>
			</g>
		</g>
		<g id="LWPOLYLINE_2_">
			<polyline fill="#FFFFFF" points="27.308,6.467 24.694,6.467 24.694,6.733 26.913,6.733 26.985,6.73 27.055,6.712 27.122,6.683 
				27.182,6.644 27.234,6.595 27.276,6.535 27.308,6.467 			"/>
		</g>
		<g id="LWPOLYLINE_1_">
			<polygon fill="#FFFFFF" points="24.027,6.733 24.096,6.726 24.164,6.705 24.223,6.672 24.276,6.633 24.325,6.584 24.362,6.531 
				24.389,6.467 21.82,6.467 21.849,6.531 21.891,6.584 21.935,6.633 21.989,6.672 22.048,6.705 22.116,6.726 22.182,6.733 			"/>
		</g>
	</g>
</g>
</svg>
