<?xml version="1.0" encoding="utf-8"?>
<!-- Generator: Adobe Illustrator 14.0.0, SVG Export Plug-In . SVG Version: 6.00 Build 43363)  -->
<!DOCTYPE svg PUBLIC "-//W3C//DTD SVG 1.1//EN" "http://www.w3.org/Graphics/SVG/1.1/DTD/svg11.dtd">
<svg version="1.1" id="圖層_1" xmlns="http://www.w3.org/2000/svg" xmlns:xlink="http://www.w3.org/1999/xlink" x="0px" y="0px"
	 width="42.52px" height="13.182px" viewBox="0 0 42.52 13.182" enable-background="new 0 0 42.52 13.182" xml:space="preserve">
<g>
	<g>
		<g>
			<path fill="#009FE8" d="M19.236,13.178c0.033-0.608,0.049-1.059,0.049-1.348l0.22-0.261c0.026-0.034,0.257-0.325,0.679-0.883
				l1.223-1.599c0.144-0.188,0.308-0.417,0.498-0.686l-0.292-0.002l-0.293-0.01h-0.51c-0.39,0-0.799,0.019-1.228,0.051
				c0.019-0.317,0.031-0.662,0.031-1.035c0-0.072-0.003-0.171-0.01-0.294c0.702,0.009,1.438,0.011,2.224,0.011
				c0.809,0,1.512-0.002,2.1-0.011c-0.021,0.312-0.031,0.559-0.031,0.739L23.873,8.45l-0.207,0.243
				c-0.035,0.039-0.068,0.089-0.101,0.125l-2.313,3.046l0.508,0.004c0.121,0,0.295,0,0.523-0.004l1.014-0.023
				c0.08-0.002,0.211-0.01,0.408-0.024c-0.031,0.528-0.052,0.981-0.062,1.364c-0.787-0.006-1.498-0.008-2.135-0.008h-0.839
				l-0.952,0.004L19.236,13.178z"/>
			<path fill="#009FE8" d="M24.498,13.178l0.143-2.424l0.064-1.767l0.021-0.786c0-0.229,0.006-0.451,0.006-0.659l-0.006-0.428
				c0.39,0.008,0.68,0.01,0.867,0.01c0.148,0,0.41-0.002,0.783-0.01c-0.062,0.853-0.101,1.604-0.121,2.255h2.014
				c0.01-0.242,0.021-0.568,0.035-0.986c0.01-0.416,0.016-0.698,0.016-0.847c0-0.082,0-0.224-0.006-0.422l0.873,0.01
				c0.09,0,0.347-0.002,0.771-0.01c-0.09,1.521-0.142,2.656-0.166,3.396c-0.025,0.746-0.041,1.632-0.041,2.668l-0.801-0.006
				c-0.121,0-0.408,0-0.865,0.006c0.059-0.705,0.108-1.521,0.129-2.459h-2.01l-0.062,2.459l-0.856-0.006
				C25.18,13.173,24.916,13.175,24.498,13.178z"/>
			<path fill="#F4BF29" d="M30.828,8.079c0.016-0.354,0.024-0.635,0.024-0.842c0-0.06,0-0.135-0.006-0.237
				c0.299,0.01,0.549,0.01,0.746,0.01c0.277,0,0.523-0.006,0.73-0.01c-0.005,0.093-0.011,0.171-0.017,0.233l-0.021,0.551
				C32.28,7.866,32.28,7.966,32.28,8.079c-0.245-0.015-0.479-0.015-0.698-0.015C31.354,8.066,31.102,8.075,30.828,8.079z"/>
			<path fill="#009FE8" d="M30.598,13.178c0.033-0.358,0.062-0.655,0.08-0.891c0.016-0.234,0.029-0.533,0.045-0.896
				s0.033-0.767,0.047-1.207c0.01-0.44,0.021-0.953,0.027-1.535c0.318,0.004,0.574,0.007,0.768,0.007
				c0.179,0,0.424-0.005,0.752-0.007c-0.041,0.56-0.069,1.047-0.09,1.472c-0.021,0.424-0.031,0.873-0.035,1.352
				c-0.012,0.834-0.016,1.408-0.016,1.709c-0.295-0.006-0.547-0.008-0.758-0.008C31.205,13.173,30.936,13.175,30.598,13.178z"/>
		</g>
		<path fill="#A6A6A6" d="M18.416,0.019v13.159h-8.222V0.019H18.416z M11.22,1.66v4.425h2.521l2.209-4.424L11.22,1.66L11.22,1.66z
			 M15.383,6.085h2.01V2.071L15.383,6.085z M14.869,7.111l-2.211,4.424h4.733V7.111H14.869z M11.22,7.111v4.014l2.006-4.014H11.22z"
			/>
	</g>
</g>
</svg>
