<?xml version="1.0" encoding="utf-8"?>
<!-- Generator: Adobe Illustrator 14.0.0, SVG Export Plug-In . SVG Version: 6.00 Build 43363)  -->
<!DOCTYPE svg PUBLIC "-//W3C//DTD SVG 1.1//EN" "http://www.w3.org/Graphics/SVG/1.1/DTD/svg11.dtd">
<svg version="1.1" id="圖層_1" xmlns="http://www.w3.org/2000/svg" xmlns:xlink="http://www.w3.org/1999/xlink" x="0px" y="0px"
	 width="29.907px" height="8.058px" viewBox="0 0 29.907 8.058" enable-background="new 0 0 29.907 8.058" xml:space="preserve">
<g>
	<path fill="#DD2525" d="M6.148,4.203c0,0.688-0.085,1.274-0.256,1.763C5.721,6.455,5.475,6.854,5.155,7.16
		C4.839,7.471,4.45,7.695,3.993,7.841c-0.456,0.145-1,0.217-1.63,0.217h-1.7c-0.119,0-0.222-0.037-0.304-0.112
		C0.277,7.868,0.235,7.747,0.235,7.578v-6.53c0-0.169,0.042-0.292,0.124-0.366s0.185-0.112,0.304-0.112h1.826
		c0.635,0,1.173,0.077,1.614,0.233c0.442,0.156,0.816,0.387,1.116,0.693c0.304,0.307,0.533,0.687,0.689,1.138
		C6.068,3.086,6.148,3.608,6.148,4.203z M4.651,4.254c0-0.354-0.039-0.686-0.115-0.989C4.455,2.96,4.327,2.694,4.151,2.474
		c-0.172-0.225-0.396-0.4-0.67-0.525c-0.27-0.125-0.63-0.188-1.074-0.188h-0.73v5.094h0.753c0.396,0,0.729-0.055,1-0.163
		c0.273-0.107,0.5-0.271,0.681-0.49C4.29,5.984,4.426,5.714,4.515,5.39C4.605,5.065,4.651,4.687,4.651,4.254z"/>
	<path fill="#7F7F7F" d="M11.782,5.128c0,0.178-0.036,0.309-0.111,0.395c-0.075,0.083-0.178,0.128-0.313,0.128H8.375
		c0,0.218,0.023,0.42,0.073,0.6c0.048,0.177,0.126,0.331,0.235,0.456c0.11,0.127,0.247,0.222,0.418,0.285
		c0.169,0.066,0.375,0.1,0.612,0.1c0.243,0,0.454-0.018,0.641-0.054C10.538,7,10.694,6.958,10.828,6.915
		c0.137-0.044,0.245-0.087,0.336-0.122c0.087-0.037,0.16-0.056,0.214-0.056c0.033,0,0.06,0.009,0.081,0.022
		c0.021,0.011,0.04,0.036,0.057,0.07c0.012,0.035,0.024,0.085,0.031,0.149c0.005,0.063,0.007,0.141,0.007,0.238
		c0,0.085-0.002,0.159-0.006,0.218c-0.005,0.061-0.008,0.111-0.017,0.153c-0.007,0.042-0.021,0.079-0.032,0.106
		c-0.014,0.029-0.034,0.057-0.059,0.085c-0.023,0.027-0.09,0.063-0.194,0.11c-0.107,0.046-0.244,0.091-0.409,0.136
		c-0.166,0.044-0.354,0.083-0.565,0.116c-0.213,0.031-0.44,0.049-0.683,0.049c-0.436,0-0.817-0.059-1.146-0.174
		c-0.327-0.115-0.602-0.291-0.82-0.528C7.402,7.255,7.235,6.958,7.127,6.598C7.02,6.239,6.965,5.819,6.965,5.339
		c0-0.461,0.057-0.874,0.171-1.243C7.25,3.728,7.416,3.413,7.631,3.157c0.215-0.256,0.478-0.453,0.79-0.588
		C8.732,2.436,9.08,2.366,9.469,2.366c0.409,0,0.761,0.065,1.053,0.19c0.292,0.13,0.532,0.306,0.717,0.532
		c0.186,0.227,0.324,0.493,0.411,0.8c0.091,0.309,0.132,0.646,0.132,1.01V5.128z M10.442,4.711c0.01-0.408-0.066-0.73-0.234-0.962
		c-0.167-0.234-0.425-0.351-0.772-0.351c-0.176,0-0.328,0.033-0.461,0.104c-0.13,0.071-0.237,0.164-0.321,0.281
		C8.566,3.9,8.5,4.04,8.454,4.197C8.408,4.359,8.38,4.531,8.375,4.711H10.442z"/>
	<path fill="#7F7F7F" d="M16.374,6.401c0,0.295-0.049,0.552-0.155,0.777c-0.105,0.224-0.251,0.41-0.443,0.561
		c-0.191,0.151-0.415,0.265-0.674,0.339c-0.263,0.074-0.545,0.113-0.847,0.113c-0.183,0-0.362-0.015-0.524-0.044
		c-0.169-0.029-0.318-0.063-0.45-0.11c-0.132-0.044-0.242-0.088-0.329-0.135s-0.152-0.092-0.193-0.13
		c-0.041-0.041-0.069-0.104-0.096-0.191c-0.021-0.087-0.032-0.217-0.032-0.388c0-0.109,0.004-0.2,0.012-0.267
		c0.009-0.069,0.018-0.122,0.033-0.162c0.014-0.04,0.032-0.068,0.056-0.081c0.022-0.013,0.05-0.021,0.082-0.021
		c0.039,0,0.1,0.024,0.18,0.073c0.078,0.047,0.174,0.101,0.295,0.157c0.114,0.059,0.254,0.112,0.409,0.163
		c0.154,0.05,0.331,0.074,0.529,0.074c0.125,0,0.235-0.014,0.333-0.04c0.098-0.027,0.181-0.066,0.254-0.115
		c0.068-0.051,0.125-0.115,0.159-0.19c0.039-0.079,0.057-0.167,0.057-0.268c0-0.116-0.033-0.214-0.1-0.298
		c-0.071-0.083-0.16-0.154-0.272-0.218c-0.111-0.061-0.239-0.119-0.379-0.172c-0.139-0.057-0.287-0.116-0.433-0.18
		c-0.148-0.066-0.295-0.142-0.435-0.227c-0.142-0.084-0.27-0.189-0.381-0.313c-0.11-0.123-0.201-0.271-0.268-0.446
		c-0.07-0.172-0.103-0.382-0.103-0.624c0-0.248,0.046-0.474,0.135-0.682c0.094-0.206,0.227-0.38,0.399-0.528
		c0.169-0.146,0.381-0.262,0.626-0.341c0.249-0.082,0.524-0.124,0.833-0.124c0.157,0,0.308,0.015,0.449,0.036
		c0.145,0.023,0.276,0.053,0.393,0.088c0.119,0.035,0.217,0.071,0.298,0.111c0.082,0.041,0.139,0.075,0.173,0.104
		c0.037,0.03,0.062,0.059,0.075,0.088c0.016,0.03,0.023,0.063,0.034,0.104c0.007,0.04,0.012,0.09,0.021,0.149
		c0.003,0.062,0.005,0.136,0.005,0.225c0,0.105-0.002,0.188-0.005,0.256c-0.009,0.063-0.019,0.115-0.031,0.155
		c-0.01,0.037-0.028,0.065-0.049,0.077c-0.024,0.014-0.05,0.02-0.079,0.02c-0.032,0-0.083-0.02-0.151-0.062
		c-0.073-0.038-0.161-0.081-0.265-0.129c-0.103-0.044-0.226-0.089-0.36-0.129c-0.14-0.04-0.293-0.062-0.473-0.062
		c-0.125,0-0.232,0.014-0.324,0.04c-0.089,0.028-0.167,0.065-0.224,0.114c-0.06,0.052-0.105,0.111-0.132,0.178
		c-0.03,0.067-0.047,0.141-0.047,0.217c0,0.121,0.037,0.22,0.105,0.303c0.07,0.08,0.162,0.151,0.276,0.213
		c0.112,0.063,0.24,0.12,0.386,0.174c0.145,0.054,0.292,0.113,0.442,0.178c0.145,0.063,0.293,0.138,0.437,0.223
		c0.148,0.084,0.274,0.188,0.389,0.313c0.114,0.121,0.207,0.27,0.277,0.442C16.339,5.964,16.374,6.166,16.374,6.401z"/>
	<path fill="#7F7F7F" d="M21.125,7.04c0,0.098-0.004,0.183-0.011,0.251c-0.003,0.068-0.01,0.124-0.021,0.171
		c-0.01,0.047-0.019,0.084-0.032,0.113s-0.041,0.064-0.087,0.109c-0.041,0.045-0.118,0.098-0.224,0.162
		c-0.106,0.064-0.228,0.12-0.363,0.171c-0.135,0.051-0.284,0.092-0.44,0.122c-0.161,0.031-0.326,0.046-0.493,0.046
		c-0.381,0-0.716-0.061-1.006-0.184c-0.291-0.124-0.537-0.307-0.731-0.549c-0.2-0.241-0.349-0.535-0.449-0.883
		c-0.101-0.346-0.151-0.745-0.151-1.193c0-0.515,0.061-0.963,0.183-1.339c0.122-0.378,0.295-0.688,0.515-0.937
		c0.221-0.246,0.481-0.429,0.783-0.549c0.301-0.12,0.628-0.181,0.988-0.181c0.146,0,0.29,0.014,0.434,0.043
		c0.139,0.026,0.27,0.063,0.396,0.11c0.121,0.044,0.231,0.098,0.329,0.154c0.096,0.058,0.165,0.108,0.205,0.151
		c0.039,0.041,0.067,0.079,0.083,0.106c0.016,0.029,0.031,0.067,0.041,0.115c0.009,0.043,0.016,0.101,0.021,0.17
		c0.005,0.064,0.011,0.148,0.011,0.245c0,0.224-0.021,0.381-0.057,0.473c-0.036,0.089-0.084,0.135-0.142,0.135
		c-0.063,0-0.13-0.026-0.198-0.081c-0.071-0.054-0.153-0.114-0.249-0.18c-0.098-0.064-0.208-0.124-0.343-0.178
		c-0.13-0.055-0.289-0.084-0.47-0.084c-0.36,0-0.635,0.147-0.824,0.44c-0.192,0.29-0.287,0.717-0.287,1.279
		c0,0.278,0.024,0.524,0.07,0.737c0.05,0.211,0.118,0.39,0.214,0.53c0.092,0.146,0.21,0.251,0.348,0.321
		c0.144,0.072,0.308,0.107,0.497,0.107s0.354-0.03,0.491-0.09c0.137-0.059,0.254-0.125,0.36-0.2
		c0.102-0.072,0.189-0.139,0.258-0.198c0.069-0.061,0.128-0.09,0.176-0.09c0.032,0,0.06,0.01,0.081,0.029
		c0.021,0.02,0.04,0.056,0.054,0.106c0.012,0.053,0.023,0.119,0.028,0.199C21.122,6.808,21.125,6.911,21.125,7.04z"/>
	<path fill="#7F7F7F" d="M26.811,7.861c0,0.04-0.014,0.072-0.034,0.101c-0.021,0.03-0.058,0.054-0.108,0.075
		c-0.054,0.016-0.122,0.033-0.21,0.041c-0.093,0.01-0.202,0.015-0.335,0.015c-0.137,0-0.249-0.005-0.338-0.015
		c-0.091-0.008-0.16-0.025-0.212-0.041c-0.049-0.021-0.085-0.045-0.11-0.075c-0.021-0.028-0.034-0.061-0.034-0.101V4.914
		c0-0.249-0.014-0.446-0.052-0.589c-0.034-0.146-0.083-0.267-0.149-0.369c-0.067-0.103-0.152-0.181-0.257-0.238
		c-0.104-0.054-0.225-0.081-0.366-0.081c-0.173,0-0.354,0.067-0.532,0.202c-0.182,0.136-0.367,0.332-0.562,0.588v3.435
		c0,0.04-0.011,0.072-0.031,0.101c-0.023,0.03-0.06,0.054-0.112,0.075c-0.057,0.016-0.125,0.033-0.214,0.041
		c-0.085,0.01-0.196,0.015-0.334,0.015c-0.135,0-0.249-0.005-0.336-0.015c-0.089-0.008-0.161-0.025-0.212-0.041
		c-0.05-0.021-0.092-0.045-0.112-0.075c-0.022-0.028-0.034-0.061-0.034-0.101V0.249c0-0.038,0.012-0.073,0.034-0.104
		c0.021-0.029,0.063-0.058,0.112-0.078c0.051-0.02,0.123-0.037,0.212-0.05C22.571,0.007,22.685,0,22.82,0
		c0.138,0,0.249,0.007,0.334,0.017c0.089,0.013,0.157,0.03,0.214,0.05c0.053,0.021,0.089,0.049,0.112,0.078
		c0.021,0.031,0.031,0.066,0.031,0.104v2.853c0.24-0.246,0.48-0.431,0.729-0.551c0.247-0.123,0.507-0.185,0.772-0.185
		c0.337,0,0.616,0.06,0.845,0.175c0.229,0.116,0.413,0.274,0.555,0.476c0.144,0.2,0.246,0.436,0.306,0.701
		c0.063,0.271,0.094,0.595,0.094,0.979V7.861z"/>
	<path fill="#808080" d="M27.879,1.082c0-0.527,0.396-0.925,0.905-0.925c0.501,0,0.9,0.397,0.9,0.925c0,0.535-0.399,0.929-0.9,0.929
		C28.276,2.011,27.879,1.617,27.879,1.082 M28.785,2.194c0.605,0,1.122-0.47,1.122-1.112c0-0.638-0.517-1.108-1.122-1.108
		c-0.611,0-1.13,0.471-1.13,1.108C27.655,1.725,28.173,2.194,28.785,2.194 M28.547,1.169h0.227l0.335,0.556h0.22l-0.365-0.563
		c0.189-0.023,0.333-0.123,0.333-0.353c0-0.254-0.15-0.364-0.454-0.364h-0.488v1.28h0.193V1.169z M28.547,1.006V0.609h0.266
		c0.135,0,0.278,0.029,0.278,0.186c0,0.197-0.148,0.211-0.313,0.211H28.547z"/>
</g>
</svg>
