<?xml version="1.0" encoding="utf-8"?>
<!-- Generator: Adobe Illustrator 14.0.0, SVG Export Plug-In . SVG Version: 6.00 Build 43363)  -->
<!DOCTYPE svg PUBLIC "-//W3C//DTD SVG 1.1//EN" "http://www.w3.org/Graphics/SVG/1.1/DTD/svg11.dtd">
<svg version="1.1" id="圖層_1" xmlns="http://www.w3.org/2000/svg" xmlns:xlink="http://www.w3.org/1999/xlink" x="0px" y="0px"
	 width="36.759px" height="8.844px" viewBox="0 0 36.759 8.844" enable-background="new 0 0 36.759 8.844" xml:space="preserve">
<g>
	<path fill="#DD2525" d="M5.221,8.704c0,0.043-0.01,0.078-0.029,0.108C5.173,8.841,5.14,8.865,5.093,8.885
		c-0.046,0.019-0.109,0.033-0.189,0.04C4.824,8.933,4.726,8.937,4.609,8.937c-0.124,0-0.225-0.004-0.302-0.012
		c-0.078-0.007-0.141-0.021-0.189-0.04c-0.049-0.02-0.084-0.044-0.104-0.072c-0.021-0.03-0.032-0.065-0.032-0.108V8.128
		C3.714,8.415,3.434,8.639,3.141,8.797C2.848,8.956,2.522,9.036,2.166,9.036c-0.396,0-0.73-0.077-1.004-0.229
		c-0.274-0.154-0.496-0.36-0.67-0.621c-0.173-0.259-0.298-0.563-0.375-0.91C0.039,6.928,0,6.563,0,6.178
		c0-0.461,0.05-0.876,0.148-1.244c0.1-0.369,0.244-0.683,0.435-0.943c0.19-0.26,0.427-0.46,0.71-0.599
		c0.282-0.141,0.608-0.21,0.977-0.21c0.292,0,0.556,0.059,0.792,0.177C3.299,3.478,3.533,3.65,3.767,3.879V1.068
		c0-0.038,0.011-0.073,0.031-0.104c0.021-0.031,0.061-0.058,0.116-0.079c0.057-0.021,0.132-0.037,0.225-0.049
		s0.212-0.018,0.354-0.018c0.144,0,0.263,0.006,0.355,0.018s0.167,0.028,0.221,0.049c0.054,0.021,0.094,0.048,0.117,0.079
		S5.221,1.03,5.221,1.068V8.704z M3.767,5.236C3.557,4.972,3.355,4.771,3.164,4.63C2.972,4.491,2.771,4.42,2.562,4.42
		c-0.19,0-0.354,0.048-0.492,0.144C1.932,4.658,1.821,4.785,1.737,4.944C1.654,5.104,1.593,5.281,1.552,5.478
		C1.511,5.673,1.491,5.874,1.491,6.079c0,0.218,0.017,0.43,0.052,0.635c0.035,0.206,0.092,0.389,0.172,0.55
		c0.079,0.161,0.185,0.29,0.317,0.388C2.164,7.747,2.33,7.796,2.533,7.796c0.101,0,0.197-0.015,0.293-0.043
		C2.922,7.724,3.019,7.676,3.117,7.61c0.099-0.066,0.2-0.152,0.306-0.259c0.104-0.106,0.219-0.238,0.344-0.394V5.236z"/>
	<path fill="#7F7F7F" d="M11.245,6.644c0,0.396-0.074,0.744-0.222,1.042c-0.147,0.299-0.348,0.548-0.6,0.748
		c-0.252,0.199-0.548,0.35-0.885,0.451C9.202,8.985,8.84,9.036,8.456,9.036c-0.259,0-0.501-0.021-0.725-0.064
		c-0.223-0.043-0.419-0.094-0.59-0.154c-0.171-0.06-0.313-0.123-0.428-0.188C6.6,8.563,6.517,8.504,6.467,8.454
		C6.416,8.403,6.38,8.331,6.359,8.235C6.337,8.141,6.326,8.004,6.326,7.826c0-0.121,0.004-0.222,0.013-0.304
		c0.007-0.081,0.021-0.147,0.037-0.197c0.017-0.051,0.041-0.086,0.07-0.107c0.028-0.021,0.063-0.033,0.103-0.033
		c0.054,0,0.13,0.033,0.229,0.097c0.098,0.064,0.226,0.135,0.381,0.213c0.155,0.077,0.34,0.148,0.556,0.212
		C7.93,7.771,8.179,7.802,8.463,7.802c0.187,0,0.353-0.021,0.5-0.066s0.273-0.108,0.376-0.189C9.441,7.464,9.52,7.363,9.574,7.243
		c0.055-0.119,0.082-0.254,0.082-0.401c0-0.171-0.047-0.317-0.14-0.439C9.422,6.28,9.301,6.171,9.152,6.076
		c-0.15-0.095-0.319-0.184-0.51-0.268C8.453,5.725,8.257,5.637,8.056,5.544C7.854,5.451,7.657,5.346,7.468,5.227
		c-0.19-0.117-0.36-0.259-0.51-0.425C6.81,4.637,6.688,4.442,6.595,4.218c-0.094-0.226-0.141-0.495-0.141-0.81
		c0-0.36,0.067-0.678,0.202-0.951C6.789,2.183,6.97,1.956,7.197,1.776C7.424,1.595,7.691,1.46,8,1.371
		c0.308-0.089,0.636-0.134,0.98-0.134c0.179,0,0.356,0.014,0.536,0.041c0.178,0.027,0.345,0.064,0.5,0.11
		c0.155,0.047,0.293,0.099,0.412,0.158c0.122,0.058,0.2,0.105,0.239,0.145c0.039,0.038,0.065,0.072,0.078,0.099
		c0.014,0.027,0.026,0.063,0.035,0.108c0.01,0.044,0.017,0.101,0.021,0.169c0.005,0.067,0.006,0.151,0.006,0.253
		c0,0.112-0.003,0.207-0.008,0.285c-0.006,0.077-0.016,0.142-0.029,0.192c-0.014,0.05-0.033,0.087-0.058,0.109
		c-0.026,0.024-0.061,0.035-0.103,0.035c-0.043,0-0.111-0.027-0.204-0.081c-0.093-0.055-0.207-0.113-0.343-0.178
		C9.928,2.62,9.771,2.562,9.591,2.509C9.414,2.457,9.218,2.431,9.004,2.431c-0.167,0-0.313,0.021-0.437,0.062
		C8.442,2.533,8.34,2.588,8.256,2.661C8.172,2.732,8.11,2.818,8.069,2.919c-0.04,0.102-0.061,0.208-0.061,0.32
		c0,0.167,0.045,0.312,0.137,0.434c0.091,0.123,0.214,0.231,0.367,0.326c0.152,0.096,0.326,0.185,0.521,0.268
		c0.193,0.084,0.392,0.172,0.594,0.265c0.201,0.093,0.399,0.199,0.593,0.317c0.194,0.119,0.366,0.261,0.519,0.425
		c0.151,0.165,0.272,0.358,0.366,0.582C11.198,6.078,11.245,6.342,11.245,6.644"/>
	<path fill="#7F7F7F" d="M15.399,8.192c0,0.17-0.011,0.302-0.031,0.392c-0.022,0.092-0.05,0.155-0.086,0.192
		c-0.033,0.037-0.085,0.07-0.153,0.099c-0.068,0.03-0.147,0.055-0.238,0.076s-0.189,0.038-0.298,0.05
		c-0.105,0.012-0.214,0.018-0.322,0.018c-0.291,0-0.543-0.036-0.757-0.11c-0.213-0.074-0.39-0.188-0.529-0.341
		s-0.243-0.347-0.309-0.579c-0.065-0.233-0.098-0.508-0.098-0.826v-2.66h-0.623c-0.074,0-0.131-0.045-0.169-0.136
		c-0.039-0.092-0.059-0.244-0.059-0.458c0-0.111,0.005-0.207,0.014-0.285c0.011-0.077,0.025-0.138,0.045-0.183
		c0.019-0.045,0.042-0.076,0.072-0.096c0.029-0.02,0.063-0.029,0.102-0.029h0.618V2.157c0-0.039,0.01-0.074,0.031-0.104
		c0.021-0.032,0.06-0.058,0.116-0.079c0.056-0.021,0.132-0.036,0.227-0.047c0.095-0.009,0.213-0.015,0.353-0.015
		c0.144,0,0.263,0.006,0.357,0.015c0.095,0.011,0.17,0.025,0.225,0.047s0.093,0.047,0.116,0.079c0.023,0.03,0.035,0.065,0.035,0.104
		v1.158h1.129c0.039,0,0.073,0.01,0.102,0.029c0.029,0.02,0.054,0.051,0.073,0.096s0.033,0.105,0.043,0.183
		c0.011,0.078,0.015,0.174,0.015,0.285c0,0.214-0.02,0.366-0.058,0.458c-0.039,0.091-0.096,0.136-0.169,0.136h-1.135v2.439
		c0,0.283,0.045,0.495,0.134,0.637c0.089,0.141,0.247,0.212,0.477,0.212c0.078,0,0.147-0.006,0.209-0.02
		c0.063-0.014,0.118-0.029,0.167-0.047s0.089-0.033,0.122-0.046c0.033-0.014,0.063-0.021,0.09-0.021
		c0.023,0,0.046,0.007,0.066,0.021c0.022,0.013,0.039,0.04,0.05,0.081c0.012,0.041,0.022,0.096,0.032,0.165
		C15.396,7.994,15.399,8.084,15.399,8.192"/>
	<path fill="#7F7F7F" d="M20.882,8.722c0,0.054-0.02,0.097-0.059,0.128c-0.038,0.031-0.1,0.053-0.183,0.066
		c-0.085,0.014-0.207,0.021-0.369,0.021c-0.176,0-0.303-0.007-0.382-0.021s-0.136-0.035-0.169-0.066s-0.05-0.074-0.05-0.128V8.309
		c-0.213,0.229-0.456,0.407-0.73,0.535c-0.273,0.128-0.577,0.192-0.91,0.192c-0.275,0-0.529-0.036-0.76-0.107
		c-0.23-0.072-0.431-0.179-0.6-0.32c-0.168-0.142-0.3-0.317-0.393-0.527c-0.093-0.209-0.14-0.454-0.14-0.733
		c0-0.303,0.059-0.565,0.178-0.788c0.118-0.223,0.294-0.407,0.529-0.553s0.526-0.254,0.876-0.322c0.35-0.07,0.754-0.105,1.217-0.105
		h0.506V5.265c0-0.162-0.017-0.306-0.05-0.428s-0.088-0.224-0.163-0.306c-0.075-0.081-0.176-0.142-0.302-0.18
		c-0.126-0.04-0.283-0.059-0.47-0.059c-0.243,0-0.462,0.026-0.654,0.081c-0.191,0.055-0.361,0.114-0.509,0.182
		c-0.147,0.065-0.271,0.125-0.369,0.18s-0.18,0.081-0.242,0.081c-0.043,0-0.08-0.013-0.113-0.04s-0.061-0.066-0.081-0.117
		c-0.022-0.05-0.038-0.112-0.05-0.186c-0.012-0.074-0.017-0.155-0.017-0.244c0-0.12,0.008-0.216,0.028-0.286
		c0.02-0.069,0.056-0.132,0.11-0.188c0.054-0.057,0.149-0.119,0.286-0.187c0.135-0.067,0.293-0.131,0.476-0.189
		c0.183-0.058,0.382-0.105,0.598-0.142c0.215-0.038,0.437-0.056,0.665-0.056c0.408,0,0.757,0.039,1.046,0.119
		c0.289,0.079,0.526,0.201,0.712,0.366c0.187,0.165,0.323,0.377,0.408,0.638c0.085,0.26,0.128,0.568,0.128,0.926V8.722z
		 M19.444,6.498h-0.559c-0.236,0-0.439,0.018-0.605,0.053s-0.303,0.087-0.407,0.157s-0.182,0.154-0.23,0.254
		c-0.048,0.099-0.072,0.212-0.072,0.34c0,0.217,0.069,0.388,0.207,0.512C17.914,7.938,18.105,8,18.351,8
		c0.205,0,0.395-0.052,0.567-0.157c0.172-0.104,0.348-0.258,0.526-0.46V6.498z"/>
	<path fill="#7F7F7F" d="M27.301,8.704c0,0.039-0.013,0.072-0.035,0.103c-0.023,0.028-0.063,0.053-0.116,0.072
		c-0.055,0.02-0.129,0.034-0.225,0.043c-0.095,0.011-0.212,0.015-0.352,0.015c-0.144,0-0.263-0.004-0.358-0.015
		c-0.095-0.009-0.17-0.023-0.224-0.043c-0.055-0.02-0.094-0.044-0.116-0.072c-0.023-0.03-0.035-0.063-0.035-0.103V5.742
		c0-0.253-0.019-0.45-0.055-0.594c-0.038-0.144-0.091-0.267-0.16-0.37c-0.07-0.102-0.161-0.183-0.271-0.238
		c-0.11-0.056-0.24-0.084-0.388-0.084c-0.187,0-0.374,0.067-0.564,0.203c-0.189,0.136-0.388,0.334-0.594,0.594v3.451
		c0,0.039-0.012,0.072-0.035,0.103c-0.022,0.028-0.063,0.053-0.118,0.072c-0.057,0.02-0.132,0.034-0.226,0.043
		c-0.092,0.011-0.211,0.015-0.354,0.015s-0.262-0.004-0.355-0.015c-0.092-0.009-0.167-0.023-0.224-0.043
		c-0.056-0.02-0.096-0.044-0.119-0.072c-0.023-0.03-0.034-0.063-0.034-0.103v-5.19c0-0.04,0.009-0.073,0.029-0.103
		c0.019-0.029,0.054-0.053,0.104-0.072c0.052-0.021,0.116-0.034,0.195-0.044c0.08-0.01,0.18-0.015,0.3-0.015
		c0.125,0,0.228,0.005,0.309,0.015s0.145,0.023,0.189,0.044c0.045,0.02,0.076,0.043,0.096,0.072s0.029,0.063,0.029,0.103v0.599
		c0.287-0.311,0.578-0.543,0.876-0.698c0.297-0.155,0.606-0.232,0.928-0.232c0.354,0,0.651,0.058,0.894,0.174
		c0.242,0.117,0.438,0.274,0.588,0.475s0.257,0.434,0.322,0.701c0.066,0.268,0.1,0.59,0.1,0.966V8.704z"/>
	<path fill="#7F7F7F" d="M33.662,8.704c0,0.043-0.011,0.078-0.029,0.108c-0.02,0.028-0.053,0.053-0.1,0.072
		c-0.046,0.019-0.109,0.033-0.188,0.04c-0.08,0.008-0.178,0.012-0.295,0.012c-0.124,0-0.225-0.004-0.302-0.012
		c-0.078-0.007-0.141-0.021-0.189-0.04c-0.048-0.02-0.083-0.044-0.104-0.072c-0.021-0.03-0.032-0.065-0.032-0.108V8.128
		c-0.268,0.287-0.548,0.511-0.841,0.669c-0.293,0.159-0.618,0.239-0.975,0.239c-0.396,0-0.73-0.077-1.004-0.229
		c-0.273-0.154-0.496-0.36-0.67-0.621c-0.172-0.259-0.298-0.563-0.375-0.91c-0.078-0.348-0.116-0.713-0.116-1.098
		c0-0.461,0.05-0.876,0.148-1.244c0.099-0.369,0.243-0.683,0.434-0.943c0.19-0.26,0.427-0.46,0.71-0.599
		c0.283-0.141,0.609-0.21,0.978-0.21c0.291,0,0.555,0.059,0.791,0.177c0.237,0.119,0.472,0.292,0.705,0.521V1.068
		c0-0.038,0.01-0.073,0.031-0.104c0.022-0.031,0.061-0.058,0.117-0.079c0.057-0.021,0.131-0.037,0.224-0.049
		s0.212-0.018,0.354-0.018c0.144,0,0.263,0.006,0.355,0.018s0.167,0.028,0.221,0.049c0.055,0.021,0.093,0.048,0.117,0.079
		c0.022,0.031,0.035,0.066,0.035,0.104V8.704z M32.207,5.236c-0.21-0.265-0.41-0.466-0.603-0.606
		c-0.192-0.139-0.394-0.21-0.603-0.21c-0.19,0-0.354,0.048-0.491,0.144c-0.139,0.095-0.248,0.222-0.332,0.381
		s-0.146,0.337-0.187,0.533c-0.04,0.195-0.061,0.396-0.061,0.602c0,0.218,0.017,0.43,0.052,0.635
		c0.035,0.206,0.092,0.389,0.172,0.55s0.186,0.29,0.317,0.388c0.131,0.096,0.298,0.145,0.5,0.145c0.102,0,0.199-0.015,0.294-0.043
		c0.096-0.029,0.192-0.077,0.291-0.143c0.099-0.066,0.201-0.152,0.306-0.259s0.219-0.238,0.344-0.394V5.236z"/>
	<path fill="#808080" d="M34.73,1.927c0-0.527,0.396-0.925,0.904-0.925c0.503,0,0.901,0.397,0.901,0.925
		c0,0.535-0.398,0.929-0.901,0.929C35.127,2.855,34.73,2.462,34.73,1.927 M35.635,3.039c0.605,0,1.124-0.47,1.124-1.112
		c0-0.638-0.519-1.108-1.124-1.108c-0.611,0-1.129,0.471-1.129,1.108C34.506,2.569,35.023,3.039,35.635,3.039 M35.398,2.014h0.226
		l0.336,0.556h0.219l-0.364-0.563c0.188-0.023,0.332-0.123,0.332-0.353c0-0.254-0.15-0.364-0.454-0.364h-0.487v1.28h0.193V2.014z
		 M35.398,1.851V1.454h0.266c0.135,0,0.278,0.029,0.278,0.186c0,0.197-0.149,0.211-0.313,0.211H35.398z"/>
</g>
</svg>
