<?xml version="1.0" encoding="utf-8"?>
<!-- Generator: Adobe Illustrator 14.0.0, SVG Export Plug-In . SVG Version: 6.00 Build 43363)  -->
<!DOCTYPE svg PUBLIC "-//W3C//DTD SVG 1.1//EN" "http://www.w3.org/Graphics/SVG/1.1/DTD/svg11.dtd">
<svg version="1.1" id="圖層_1" xmlns="http://www.w3.org/2000/svg" xmlns:xlink="http://www.w3.org/1999/xlink" x="0px" y="0px"
	 width="26.577px" height="10.947px" viewBox="0 0 26.577 10.947" enable-background="new 0 0 26.577 10.947" xml:space="preserve">
<g>
	<g id="LWPOLYLINE_325_">
		<polyline points="12.914,4.445 12.645,5.002 14.308,5.002 14.308,4.445 12.914,4.445 		"/>
	</g>
	<g id="LWPOLYLINE_324_">
		<polyline points="26.494,5.002 20.995,5.002 20.995,4.445 25.664,4.445 25.816,4.452 25.964,4.492 26.104,4.55 26.231,4.633 
			26.337,4.739 26.428,4.862 26.494,5.002 		"/>
	</g>
	<g id="LWPOLYLINE_323_">
		<polygon points="19.59,4.445 19.737,4.464 19.877,4.509 20.004,4.574 20.115,4.653 20.218,4.756 20.296,4.875 20.354,5.002 
			14.945,5.002 15.007,4.875 15.097,4.756 15.188,4.653 15.303,4.574 15.426,4.509 15.57,4.464 15.71,4.445 		"/>
	</g>
	<g id="LWPOLYLINE_322_">
		<polyline points="8.906,5.002 8.639,4.445 7.249,4.445 7.249,5.002 8.906,5.002 		"/>
	</g>
	<g id="LWPOLYLINE_321_">
		<polyline points="4.587,5.002 4.365,4.445 2.602,4.445 2.382,5.002 4.587,5.002 		"/>
	</g>
	<g id="LWPOLYLINE_320_">
		<polyline points="12.559,5.188 12.283,5.746 14.308,5.746 14.308,5.188 12.559,5.188 		"/>
	</g>
	<g id="LWPOLYLINE_319_">
		<polyline points="26.577,5.746 26.577,5.188 20.995,5.188 20.995,5.746 26.577,5.746 		"/>
	</g>
	<g id="LWPOLYLINE_318_">
		<polyline points="20.44,5.746 20.44,5.188 14.867,5.188 14.867,5.746 20.44,5.746 		"/>
	</g>
	<g id="LWPOLYLINE_317_">
		<polyline points="4.879,5.746 4.659,5.188 2.306,5.188 2.082,5.746 4.879,5.746 		"/>
	</g>
	<g id="LWPOLYLINE_316_">
		<polyline points="12.194,5.927 11.927,6.487 14.308,6.487 14.308,5.927 12.194,5.927 		"/>
	</g>
	<g id="LWPOLYLINE_315_">
		<polyline points="26.577,6.487 26.577,5.927 25.183,5.927 25.183,6.487 26.577,6.487 		"/>
	</g>
	<g id="LWPOLYLINE_314_">
		<polyline points="22.392,6.487 22.392,5.927 20.995,5.927 20.995,6.487 22.392,6.487 		"/>
	</g>
	<g id="LWPOLYLINE_313_">
		<polyline points="20.44,6.487 20.44,5.927 19.047,5.927 19.047,6.487 20.44,6.487 		"/>
	</g>
	<g id="LWPOLYLINE_312_">
		<polyline points="9.63,6.487 9.363,5.927 7.249,5.927 7.249,6.487 9.63,6.487 		"/>
	</g>
	<g id="LWPOLYLINE_311_">
		<polyline points="5.181,6.487 4.959,5.927 2.008,5.927 1.786,6.487 3.366,6.487 3.481,6.194 3.603,6.487 5.181,6.487 		"/>
	</g>
	<g id="LWPOLYLINE_310_">
		<polyline points="26.577,7.231 26.577,6.673 25.183,6.673 25.183,7.231 26.577,7.231 		"/>
	</g>
	<g id="LWPOLYLINE_309_">
		<polyline points="22.392,7.231 22.392,6.673 20.995,6.673 20.995,7.231 22.392,7.231 		"/>
	</g>
	<g id="LWPOLYLINE_308_">
		<polyline points="20.44,7.231 20.44,6.673 19.047,6.673 19.047,7.231 20.44,7.231 		"/>
	</g>
	<g id="LWPOLYLINE_307_">
		<polyline points="16.26,7.231 16.26,6.673 14.867,6.673 14.867,7.231 16.26,7.231 		"/>
	</g>
	<g id="LWPOLYLINE_306_">
		<polyline points="14.308,7.231 14.308,6.673 11.839,6.673 11.562,7.231 14.308,7.231 		"/>
	</g>
	<g id="LWPOLYLINE_305_">
		<polyline points="9.995,7.231 9.722,6.673 7.249,6.673 7.249,7.231 9.995,7.231 		"/>
	</g>
	<g id="LWPOLYLINE_304_">
		<polyline points="5.475,7.231 5.254,6.673 3.677,6.673 3.898,7.231 5.475,7.231 		"/>
	</g>
	<g id="LWPOLYLINE_303_">
		<polyline points="3.066,7.231 3.289,6.673 1.712,6.673 1.488,7.231 3.066,7.231 		"/>
	</g>
	<g id="LWPOLYLINE_302_">
		<polyline points="20.995,7.419 20.995,7.976 22.392,7.976 22.392,7.419 20.995,7.419 		"/>
	</g>
	<g id="LWPOLYLINE_301_">
		<polyline points="26.577,7.976 26.577,7.419 25.183,7.419 25.183,7.976 26.577,7.976 		"/>
	</g>
	<g id="LWPOLYLINE_300_">
		<polyline points="20.44,7.976 20.44,7.419 19.047,7.419 19.047,7.976 20.44,7.976 		"/>
	</g>
	<g id="LWPOLYLINE_299_">
		<polyline points="16.26,7.976 16.26,7.419 14.867,7.419 14.867,7.976 16.26,7.976 		"/>
	</g>
	<g id="LWPOLYLINE_298_">
		<polyline points="12.914,7.976 14.308,7.976 14.308,7.419 11.473,7.419 11.206,7.976 12.787,7.976 12.914,7.704 12.914,7.976 		
			"/>
	</g>
	<g id="LWPOLYLINE_297_">
		<polyline points="8.639,7.704 8.771,7.976 10.353,7.976 10.078,7.419 7.249,7.419 7.249,7.976 8.639,7.976 8.639,7.704 		"/>
	</g>
	<g id="LWPOLYLINE_296_">
		<polyline points="5.771,7.976 5.553,7.419 3.979,7.419 4.201,7.976 5.771,7.976 		"/>
	</g>
	<g id="LWPOLYLINE_295_">
		<polyline points="2.762,7.976 2.988,7.419 1.412,7.419 1.188,7.976 2.762,7.976 		"/>
	</g>
	<g id="LWPOLYLINE_294_">
		<polyline points="11.114,8.164 10.843,8.72 12.42,8.72 12.694,8.164 11.114,8.164 		"/>
	</g>
	<g id="LWPOLYLINE_293_">
		<polyline points="19.047,8.164 19.047,8.72 20.44,8.72 20.44,8.164 19.047,8.164 		"/>
	</g>
	<g id="LWPOLYLINE_292_">
		<polyline points="26.577,8.72 26.577,8.164 25.183,8.164 25.183,8.72 26.577,8.72 		"/>
	</g>
	<g id="LWPOLYLINE_291_">
		<polyline points="22.392,8.72 22.392,8.164 20.995,8.164 20.995,8.72 22.392,8.72 		"/>
	</g>
	<g id="LWPOLYLINE_290_">
		<polyline points="16.26,8.72 16.26,8.164 14.867,8.164 14.867,8.72 16.26,8.72 		"/>
	</g>
	<g id="LWPOLYLINE_289_">
		<polyline points="14.308,8.72 14.308,8.164 12.914,8.164 12.914,8.72 14.308,8.72 		"/>
	</g>
	<g id="LWPOLYLINE_288_">
		<polyline points="10.715,8.72 10.443,8.164 8.866,8.164 9.133,8.72 10.715,8.72 		"/>
	</g>
	<g id="LWPOLYLINE_287_">
		<polyline points="8.639,8.72 8.639,8.164 7.249,8.164 7.249,8.72 8.639,8.72 		"/>
	</g>
	<g id="LWPOLYLINE_286_">
		<polyline points="6.071,8.72 5.845,8.164 1.116,8.164 0.896,8.72 6.071,8.72 		"/>
	</g>
	<g id="LWPOLYLINE_285_">
		<polyline points="12.914,8.906 12.914,9.461 14.308,9.461 14.308,8.906 12.914,8.906 		"/>
	</g>
	<g id="LWPOLYLINE_284_">
		<polyline points="19.047,8.906 19.047,9.461 20.44,9.461 20.44,8.906 19.047,8.906 		"/>
	</g>
	<g id="LWPOLYLINE_283_">
		<polyline points="26.577,9.461 26.577,8.906 25.183,8.906 25.183,9.461 26.577,9.461 		"/>
	</g>
	<g id="LWPOLYLINE_282_">
		<polyline points="22.392,9.461 22.392,8.906 20.995,8.906 20.995,9.461 22.392,9.461 		"/>
	</g>
	<g id="LWPOLYLINE_281_">
		<polyline points="16.26,9.461 16.26,8.906 14.867,8.906 14.867,9.461 16.26,9.461 		"/>
	</g>
	<g id="LWPOLYLINE_280_">
		<polyline points="12.065,9.461 12.336,8.906 9.228,8.906 9.5,9.461 12.065,9.461 		"/>
	</g>
	<g id="LWPOLYLINE_279_">
		<polyline points="8.639,9.461 8.639,8.906 7.249,8.906 7.249,9.461 8.639,9.461 		"/>
	</g>
	<g id="LWPOLYLINE_278_">
		<polyline points="6.365,9.461 6.147,8.906 0.818,8.906 0.59,9.461 6.365,9.461 		"/>
	</g>
	<g id="LWPOLYLINE_277_">
		<polyline points="26.577,9.646 20.995,9.646 20.995,10.203 26.577,10.203 26.577,9.646 		"/>
	</g>
	<g id="LWPOLYLINE_276_">
		<polyline points="20.44,10.203 20.44,9.646 14.867,9.646 14.867,10.203 20.44,10.203 		"/>
	</g>
	<g id="LWPOLYLINE_275_">
		<polyline points="14.308,10.203 14.308,9.646 12.914,9.646 12.914,10.203 14.308,10.203 		"/>
	</g>
	<g id="LWPOLYLINE_274_">
		<polyline points="11.701,10.203 11.968,9.646 9.585,9.646 9.852,10.203 11.701,10.203 		"/>
	</g>
	<g id="LWPOLYLINE_273_">
		<polyline points="8.639,10.203 8.639,9.646 7.249,9.646 7.249,10.203 8.639,10.203 		"/>
	</g>
	<g id="LWPOLYLINE_272_">
		<polyline points="6.667,10.203 6.439,9.646 4.864,9.646 5.084,10.203 6.667,10.203 		"/>
	</g>
	<g id="LWPOLYLINE_271_">
		<polyline points="1.882,10.203 2.103,9.646 0.522,9.646 0.296,10.203 1.882,10.203 		"/>
	</g>
	<g id="LWPOLYLINE_270_">
		<polyline points="12.914,10.387 12.914,10.947 14.308,10.947 14.308,10.387 12.914,10.387 		"/>
	</g>
	<g id="LWPOLYLINE_269_">
		<polyline points="11.339,10.947 11.609,10.387 9.954,10.387 10.22,10.947 11.339,10.947 		"/>
	</g>
	<g id="LWPOLYLINE_268_">
		<polyline points="8.639,10.947 8.639,10.387 7.249,10.387 7.249,10.947 8.639,10.947 		"/>
	</g>
	<g id="LWPOLYLINE_267_">
		<polyline points="6.963,10.947 6.741,10.387 5.165,10.387 5.39,10.947 6.963,10.947 		"/>
	</g>
	<g id="LWPOLYLINE_266_">
		<polyline points="1.577,10.947 1.796,10.387 0.22,10.387 0,10.947 1.577,10.947 		"/>
	</g>
	<g id="LWPOLYLINE_265_">
		<polyline points="7.249,5.188 8.995,5.188 9.272,5.746 7.249,5.746 7.249,5.188 		"/>
	</g>
	<g id="LWPOLYLINE_264_">
		<polyline points="14.867,5.927 16.26,5.927 16.26,6.487 14.867,6.487 14.867,5.927 		"/>
	</g>
	<g id="ELLIPSE_5_">
		<path d="M2.047,3.431c0,0.252,0.649,0.449,1.44,0.449c0.799,0,1.447-0.197,1.447-0.449c0-0.254-0.648-0.452-1.447-0.452
			C2.696,2.979,2.047,3.177,2.047,3.431L2.047,3.431"/>
	</g>
	<g id="LWPOLYLINE_263_">
		<g id="XMLID_5_">
			<g>
				<polygon points="5.742,1.396 5.742,1.453 5.731,1.513 4.998,3.132 4.26,2.923 3.481,2.849 2.721,2.931 1.971,3.153 1.24,1.513 
					1.221,1.453 1.221,1.396 1.24,1.34 1.24,1.328 1.25,1.323 1.26,1.309 1.274,1.309 1.282,1.303 1.297,1.297 1.312,1.297 
					1.323,1.303 1.336,1.309 1.348,1.309 1.917,2.104 1.934,2.125 1.96,2.138 1.973,2.149 2.001,2.156 2.028,2.162 2.053,2.156 
					2.072,2.149 2.103,2.14 2.123,2.125 2.162,2.082 2.187,2.026 2.207,1.981 2.232,1.92 2.232,1.857 2.042,0.916 2.053,0.909 
					2.053,0.884 2.063,0.876 2.08,0.851 2.096,0.845 2.111,0.841 2.129,0.836 2.146,0.836 2.167,0.841 2.177,0.845 2.195,0.851 
					2.207,0.876 2.639,1.875 2.667,1.903 2.701,1.931 2.741,1.955 2.782,1.965 2.823,1.978 2.869,1.978 2.906,1.961 2.951,1.943 
					2.988,1.92 3.013,1.889 3.157,1.697 3.249,1.478 3.316,1.252 3.414,0.37 3.42,0.348 3.426,0.342 3.44,0.321 3.449,0.313 
					3.461,0.296 3.481,0.296 3.506,0.296 3.521,0.296 3.529,0.296 3.556,0.296 3.563,0.313 3.576,0.327 3.584,0.343 3.596,0.362 
					3.65,1.252 3.719,1.478 3.81,1.697 3.942,1.889 3.979,1.92 4.016,1.943 4.056,1.961 4.098,1.978 4.137,1.978 4.185,1.965 
					4.221,1.955 4.262,1.931 4.289,1.903 4.328,1.875 4.755,0.876 4.768,0.851 4.776,0.845 4.796,0.841 4.817,0.836 4.838,0.836 
					4.858,0.841 4.871,0.845 4.879,0.851 4.899,0.876 4.905,0.884 4.911,0.909 4.916,0.916 4.739,1.857 4.739,1.92 4.753,1.981 
					4.776,2.026 4.803,2.082 4.838,2.125 4.858,2.14 4.887,2.149 4.911,2.156 4.936,2.162 4.961,2.156 4.981,2.149 5.006,2.138 
					5.022,2.125 5.043,2.104 5.619,1.309 5.631,1.309 5.639,1.303 5.654,1.297 5.66,1.297 5.68,1.303 5.692,1.309 5.705,1.309 
					5.711,1.323 5.721,1.328 5.731,1.34 				"/>
			</g>
		</g>
	</g>
	<g id="LWPOLYLINE_262_">
		<polyline points="26.494,10.387 20.995,10.387 20.995,10.947 25.664,10.947 25.816,10.941 25.964,10.901 26.104,10.84 
			26.231,10.759 26.337,10.655 26.428,10.529 26.494,10.387 		"/>
	</g>
	<g id="LWPOLYLINE_261_">
		<polygon points="19.59,10.947 19.737,10.931 19.877,10.888 20.004,10.817 20.115,10.735 20.218,10.633 20.296,10.522 
			20.354,10.387 14.945,10.387 15.007,10.522 15.097,10.633 15.188,10.735 15.303,10.817 15.426,10.888 15.57,10.931 15.71,10.947 
					"/>
	</g>
</g>
</svg>
