<?xml version="1.0" encoding="utf-8"?>
<!-- Generator: Adobe Illustrator 14.0.0, SVG Export Plug-In . SVG Version: 6.00 Build 43363)  -->
<!DOCTYPE svg PUBLIC "-//W3C//DTD SVG 1.1//EN" "http://www.w3.org/Graphics/SVG/1.1/DTD/svg11.dtd">
<svg version="1.1" id="圖層_1" xmlns="http://www.w3.org/2000/svg" xmlns:xlink="http://www.w3.org/1999/xlink" x="0px" y="0px"
	 width="122.951px" height="28.346px" viewBox="0 0 122.951 28.346" enable-background="new 0 0 122.951 28.346"
	 xml:space="preserve">
<g>
	<path d="M116.292,27.758c-0.033-2.648-0.054-5.279-0.095-7.917c-0.039-2.628-0.039-5.28-0.039-7.908
		c-0.902-0.015-1.814-0.021-2.711-0.038c0-1.264,0-2.51,0-3.768c3.155,0.006,6.319,0.006,9.504,0.006c0,1.311,0,2.595,0,3.877
		c-0.892-0.003-1.806-0.021-2.69-0.03c0,2.67,0.029,5.354,0.059,8.021c0.039,2.66,0.074,5.351,0.089,8.023
		C119.046,27.936,117.667,27.85,116.292,27.758 M100.004,26.566c-0.051-3.081-0.098-6.147-0.119-9.223
		c-0.026-3.066-0.009-6.138-0.009-9.219c1.542,0,3.096,0.006,4.646,0.006c0.329,1.279,0.685,2.551,1.039,3.83
		c0.35,1.278,0.711,2.566,1.083,3.853c0.264,0.861,0.498,1.731,0.72,2.655c0.236,0.914,0.479,1.889,0.704,2.912
		c-0.136-0.962-0.254-1.927-0.308-2.877c-0.08-0.956-0.121-2.057-0.121-3.312c0-1.172,0-2.347,0-3.525c0-1.172,0-2.341,0-3.534
		c1.335,0.012,2.663,0.012,4.001,0.012c0,3.22-0.003,6.437,0.012,9.657c0.045,3.214,0.095,6.438,0.143,9.654
		c-1.504-0.109-2.995-0.216-4.46-0.328c-0.424-1.4-0.838-2.776-1.264-4.155c-0.415-1.371-0.806-2.744-1.223-4.117
		c-0.261-0.867-0.497-1.746-0.717-2.655c-0.222-0.905-0.408-1.855-0.592-2.847c0.122,1.4,0.195,2.723,0.261,3.969
		c0.077,1.246,0.157,2.397,0.16,3.469c0.015,1.01,0.029,2.03,0.035,3.04c0,0.997,0.021,2.024,0.032,3.039
		C102.679,26.77,101.341,26.661,100.004,26.566z M93.045,26.069c-0.029-2.995-0.092-5.99-0.115-8.977c-0.029-2.999,0-5.988,0-8.977
		c1.37,0,2.747,0.003,4.123,0.003c0,3.04-0.012,6.07,0.015,9.119c0.032,3.037,0.071,6.076,0.118,9.11
		C95.816,26.255,94.411,26.164,93.045,26.069z M79.425,13.182c0-1.764,0.462-3.093,1.367-3.983c0.909-0.885,2.268-1.338,4.073-1.338
		c1.829,0,3.179,0.456,4.084,1.361c0.899,0.909,1.376,2.297,1.376,4.114c0,1.226-0.018,2.445,0,3.667
		c0.012,1.21,0.042,2.438,0.054,3.652c0.029,1.82-0.436,3.182-1.317,4.046c-0.905,0.867-2.27,1.236-4.096,1.136
		c-1.794-0.098-3.138-0.598-4.067-1.536c-0.926-0.938-1.408-2.278-1.423-4.045c-0.012-1.179-0.033-2.348-0.045-3.537
		C79.417,15.544,79.425,14.36,79.425,13.182z M83.595,12.587c0,1.415,0,2.827,0.003,4.227c0.039,1.399,0.039,2.809,0.057,4.221
		c0.018,0.564,0.127,0.979,0.319,1.239c0.214,0.261,0.527,0.4,0.992,0.418c0.438,0.026,0.764-0.086,0.949-0.341
		c0.205-0.254,0.294-0.654,0.287-1.225c-0.023-1.409-0.038-2.842-0.047-4.251c-0.023-1.414-0.023-2.835-0.023-4.252
		c0-0.571-0.104-1-0.302-1.255c-0.205-0.258-0.545-0.388-0.978-0.391c-0.438,0-0.754,0.115-0.965,0.37
		C83.693,11.617,83.595,12.028,83.595,12.587z M70.626,15.349c0.077,0.006,0.136,0.024,0.213,0.027c0.074,0,0.181,0,0.332,0
		c0.719,0.009,1.219-0.119,1.526-0.361c0.312-0.257,0.471-0.669,0.471-1.228c0-0.337,0-0.669,0-1c0-0.607-0.156-1.03-0.479-1.278
		c-0.305-0.246-0.861-0.367-1.66-0.367c-0.15,0-0.267,0-0.399,0C70.626,12.54,70.626,13.937,70.626,15.349z M66.592,25.151
		c-0.038-2.838-0.071-5.683-0.086-8.518c-0.018-2.838,0-5.686,0-8.53c1.959,0,3.904,0,5.878,0c1.66,0,2.889,0.367,3.709,1.08
		c0.84,0.713,1.228,1.803,1.228,3.262c0,0.56,0,1.113,0,1.672c0,1.4-0.379,2.468-1.139,3.208c-0.731,0.746-1.817,1.104-3.227,1.095
		c-0.784-0.009-1.536-0.009-2.3-0.012c0.021,1.128,0.036,2.247,0.051,3.383c0.009,1.113,0,2.238,0.018,3.38
		C69.366,25.145,67.968,25.148,66.592,25.151z M54.881,25.474c-0.026-2.897-0.05-5.789-0.065-8.693c-0.015-2.894,0-5.786,0-8.683
		c3.066,0,6.153-0.003,9.249-0.003c0,1.095,0,2.199,0,3.312c-1.717,0.006-3.421,0.006-5.121,0.021c0,1.148,0,2.279,0,3.421
		c1.51-0.024,3.013-0.047,4.523-0.047c0,1.089,0.009,2.172,0.009,3.268c-1.504,0.021-2.99,0.035-4.508,0.068
		c0.018,1.281,0.018,2.563,0.033,3.856c1.761-0.054,3.522-0.077,5.274-0.107c0.021,1.093,0.021,2.196,0.035,3.301
		C61.176,25.254,58.027,25.358,54.881,25.474z M52.226,20.439c0.015,1.8-0.447,3.164-1.347,4.111
		c-0.896,0.968-2.24,1.485-4.063,1.599c-1.806,0.095-3.158-0.272-4.096-1.173c-0.906-0.891-1.371-2.258-1.379-4.11
		c-0.026-1.234-0.032-2.472-0.032-3.709c-0.012-1.243,0-2.474,0-3.717c0-1.844,0.441-3.238,1.361-4.17
		c0.923-0.932,2.273-1.397,4.069-1.397c1.817,0,3.182,0.453,4.087,1.341c0.903,0.894,1.361,2.247,1.361,4.04
		c0,0.453,0,0.896,0,1.358c-1.403,0.023-2.8,0.047-4.188,0.077c0-0.669,0-1.347,0-2.021c0-0.568-0.098-0.989-0.308-1.249
		c-0.201-0.261-0.524-0.391-0.968-0.379c-0.429,0-0.74,0.133-0.938,0.394c-0.205,0.272-0.299,0.695-0.299,1.275
		c0,1.433-0.012,2.874,0,4.321c0.009,1.433,0.027,2.874,0.027,4.321c0.003,0.586,0.095,0.988,0.316,1.249
		c0.208,0.254,0.498,0.373,0.947,0.346c0.45-0.026,0.77-0.168,0.974-0.435c0.187-0.27,0.299-0.684,0.296-1.267
		c-0.015-0.806-0.029-1.622-0.029-2.43c1.403-0.051,2.791-0.077,4.188-0.131C52.226,19.276,52.226,19.853,52.226,20.439z
		 M26.915,27.092c-0.03-3.166-0.044-6.318-0.047-9.477c-0.006-3.161,0-6.322,0-9.489c1.533,0,3.078,0,4.635,0
		c0.353,1.258,0.699,2.522,1.048,3.768c0.349,1.261,0.719,2.516,1.095,3.756c0.249,0.819,0.473,1.666,0.695,2.539
		c0.237,0.882,0.453,1.803,0.66,2.762c-0.125-0.909-0.216-1.829-0.267-2.756c-0.056-0.923-0.104-1.995-0.104-3.211
		c0-1.146,0-2.279,0-3.421c0-1.151,0-2.288,0-3.437c1.332,0,2.676,0,4.007,0c0,3.04-0.003,6.08,0,9.122
		c0.021,3.037,0.047,6.073,0.059,9.116c-1.503,0.086-2.974,0.178-4.472,0.27c-0.417-1.309-0.799-2.607-1.205-3.916
		c-0.397-1.309-0.814-2.64-1.205-3.948c-0.264-0.835-0.498-1.702-0.708-2.584c-0.213-0.902-0.408-1.838-0.583-2.814
		c0.115,1.385,0.207,2.705,0.275,3.954c0.065,1.237,0.104,2.38,0.104,3.448c0,1.015,0.021,2.03,0.021,3.039
		c0,1.007,0,2.027,0.009,3.037C29.582,26.921,28.241,27.003,26.915,27.092z M13.339,13.916c0-1.998,0.474-3.525,1.382-4.537
		c0.912-1.018,2.27-1.506,4.087-1.506s3.179,0.488,4.079,1.465c0.885,0.989,1.343,2.451,1.343,4.422
		c0,1.305,0.006,2.628,0.024,3.934c0,1.296-0.018,2.616,0,3.922c0,1.956-0.447,3.466-1.344,4.51
		c-0.909,1.039-2.252,1.613-4.076,1.708c-1.796,0.095-3.172-0.34-4.099-1.326c-0.911-0.988-1.376-2.479-1.376-4.501
		c0-1.347-0.009-2.693-0.021-4.028C13.339,16.613,13.339,15.269,13.339,13.916z M17.539,13.156c0,1.58,0,3.152,0,4.715
		c0,1.583,0.015,3.164,0.015,4.729c0,0.633,0.095,1.08,0.296,1.361c0.195,0.275,0.515,0.394,0.968,0.385
		c0.453-0.026,0.752-0.166,0.971-0.468c0.201-0.29,0.293-0.761,0.293-1.376c-0.015-1.565-0.021-3.132-0.021-4.691s0-3.125,0-4.694
		c0-0.625-0.098-1.081-0.308-1.371c-0.201-0.281-0.518-0.426-0.977-0.417c-0.417,0-0.758,0.151-0.941,0.441
		C17.643,12.052,17.539,12.522,17.539,13.156z M10.906,22.058c0,2.036-0.459,3.578-1.355,4.626c-0.891,1.071-2.264,1.619-4.082,1.66
		c-1.785,0.036-3.173-0.474-4.102-1.512C0.461,25.805,0,24.269,0,22.227c0-1.376,0-2.74,0-4.105c0-1.37,0-2.746,0-4.102
		c0-2.048,0.47-3.587,1.367-4.623C2.291,8.373,3.652,7.858,5.46,7.858c1.826,0,3.199,0.509,4.09,1.515
		c0.896,1.006,1.338,2.542,1.338,4.561c0,0.512,0,1.033,0,1.542c-1.379,0.015-2.773,0.036-4.17,0.044c0-0.752,0-1.5,0-2.267
		c0-0.633-0.098-1.107-0.311-1.406c-0.208-0.284-0.527-0.435-0.971-0.435c-0.426,0.006-0.74,0.154-0.947,0.444
		c-0.198,0.302-0.308,0.772-0.308,1.412c0,1.613,0,3.229,0,4.839c0,1.61,0,3.218,0,4.824c0,0.657,0.11,1.116,0.308,1.406
		c0.207,0.29,0.521,0.429,0.971,0.414c0.444-0.006,0.755-0.142,0.968-0.453c0.192-0.29,0.29-0.76,0.29-1.417
		c0-0.897,0-1.814,0-2.724c1.397-0.006,2.791-0.047,4.188-0.067C10.906,20.748,10.906,21.404,10.906,22.058z"/>
	<path d="M95.36,0c1.779,0,3.212,1.394,3.212,3.125c0,1.719-1.433,3.125-3.212,3.125c-1.775,0-3.211-1.406-3.211-3.125
		C92.149,1.394,93.584,0,95.36,0z"/>
</g>
</svg>
