<?xml version="1.0" encoding="utf-8"?>
<!-- Generator: Adobe Illustrator 14.0.0, SVG Export Plug-In . SVG Version: 6.00 Build 43363)  -->
<!DOCTYPE svg PUBLIC "-//W3C//DTD SVG 1.1//EN" "http://www.w3.org/Graphics/SVG/1.1/DTD/svg11.dtd">
<svg version="1.1" id="圖層_1" xmlns="http://www.w3.org/2000/svg" xmlns:xlink="http://www.w3.org/1999/xlink" x="0px" y="0px"
	 width="23.833px" height="14.172px" viewBox="0 0 23.833 14.172" enable-background="new 0 0 23.833 14.172" xml:space="preserve">
<g>
	<g>
		<g>
			<path fill="#2B84B8" d="M9.74,14.172c0.034-0.658,0.051-1.142,0.051-1.454l0.233-0.277c0.031-0.038,0.277-0.354,0.732-0.952
				l1.317-1.716c0.154-0.207,0.331-0.453,0.536-0.742l-0.314-0.003L11.984,9.02H11.43c-0.417,0-0.857,0.019-1.323,0.054
				c0.024-0.343,0.036-0.715,0.036-1.117c0-0.076-0.002-0.181-0.008-0.312c0.754,0.007,1.548,0.01,2.392,0.01
				c0.874,0,1.627-0.005,2.258-0.01c-0.016,0.335-0.03,0.599-0.033,0.793l-0.019,0.641L14.51,9.342
				c-0.04,0.044-0.075,0.094-0.112,0.138l-2.484,3.276l0.544,0.006c0.131,0,0.317-0.002,0.563-0.006l1.094-0.027
				c0.083-0.004,0.227-0.011,0.434-0.024c-0.029,0.567-0.049,1.057-0.062,1.47c-0.844-0.009-1.609-0.01-2.297-0.01h-0.905
				l-1.022,0.004L9.74,14.172z"/>
			<path fill="#2B84B8" d="M15.4,14.172l0.154-2.61l0.071-1.903l0.019-0.846c0.005-0.246,0.007-0.484,0.007-0.708l-0.002-0.459
				c0.415,0.006,0.727,0.009,0.932,0.009c0.162,0,0.44-0.004,0.844-0.009c-0.064,0.915-0.105,1.723-0.125,2.426h2.163
				c0.01-0.264,0.024-0.615,0.036-1.063c0.012-0.446,0.016-0.752,0.016-0.914c0-0.085-0.001-0.238-0.005-0.45l0.938,0.01
				c0.098,0,0.375-0.005,0.831-0.01c-0.092,1.639-0.152,2.856-0.178,3.655c-0.027,0.799-0.041,1.754-0.041,2.871l-0.866-0.01
				c-0.131,0-0.439,0.003-0.93,0.01c0.066-0.762,0.114-1.641,0.136-2.648h-2.161l-0.067,2.648l-0.919-0.01
				C16.134,14.162,15.85,14.165,15.4,14.172z"/>
			<path fill="#D8AE3C" d="M22.22,8.678c0.016-0.379,0.024-0.681,0.024-0.899c0-0.063,0-0.15-0.003-0.259
				c0.321,0.007,0.588,0.01,0.805,0.01c0.3,0,0.562-0.004,0.788-0.01c-0.008,0.101-0.014,0.183-0.017,0.25l-0.024,0.593
				c-0.003,0.088-0.005,0.194-0.005,0.315c-0.265-0.008-0.516-0.01-0.754-0.01C22.783,8.668,22.514,8.671,22.22,8.678z"/>
			<path fill="#2B84B8" d="M21.971,14.172c0.036-0.389,0.065-0.709,0.083-0.963c0.019-0.25,0.036-0.572,0.052-0.964
				c0.018-0.393,0.035-0.822,0.046-1.3c0.013-0.475,0.024-1.026,0.035-1.654c0.341,0.006,0.616,0.011,0.823,0.011
				c0.189,0,0.458-0.006,0.808-0.011c-0.046,0.604-0.077,1.132-0.096,1.585c-0.021,0.456-0.034,0.94-0.039,1.452
				c-0.012,0.902-0.015,1.519-0.015,1.846c-0.317-0.009-0.589-0.01-0.813-0.01C22.628,14.162,22.334,14.165,21.971,14.172z"/>
		</g>
		<path fill="#808082" d="M8.858,0v14.172H0V0H8.858z M1.107,1.771v4.761h2.714l2.377-4.761H1.107z M5.59,6.531h2.161v-4.32
			L5.59,6.531z M5.037,7.639l-2.378,4.761h5.092V7.639H5.037z M1.107,7.639v4.319l2.16-4.319H1.107z"/>
	</g>
</g>
</svg>
