<?xml version="1.0" encoding="utf-8"?>
<!-- Generator: Adobe Illustrator 14.0.0, SVG Export Plug-In . SVG Version: 6.00 Build 43363)  -->
<!DOCTYPE svg PUBLIC "-//W3C//DTD SVG 1.1//EN" "http://www.w3.org/Graphics/SVG/1.1/DTD/svg11.dtd">
<svg version="1.1" id="圖層_1" xmlns="http://www.w3.org/2000/svg" xmlns:xlink="http://www.w3.org/1999/xlink" x="0px" y="0px"
	 width="141.732px" height="141.732px" viewBox="0 0 141.732 141.732" enable-background="new 0 0 141.732 141.732"
	 xml:space="preserve">
<rect x="-0.005" y="0" fill="none" stroke="#333333" stroke-width="0.2" width="141.737" height="141.732"/>
<g>
	<path fill="#E60000" d="M45.11,74.278c0,2.28-0.281,4.227-0.846,5.848c-0.568,1.617-1.384,2.941-2.445,3.955
		c-1.047,1.033-2.339,1.781-3.854,2.26c-1.51,0.484-3.312,0.72-5.41,0.72h-5.632c-0.396,0-0.742-0.123-1.01-0.373
		c-0.271-0.25-0.41-0.657-0.41-1.218V63.812c0-0.563,0.141-0.972,0.41-1.22c0.268-0.243,0.611-0.37,1.01-0.37h6.058
		c2.1,0,3.892,0.255,5.354,0.772c1.467,0.519,2.706,1.281,3.7,2.299c1.01,1.02,1.775,2.281,2.286,3.775
		C44.849,70.565,45.11,72.305,45.11,74.278z M40.15,74.442c0-1.169-0.133-2.271-0.378-3.279c-0.271-1.01-0.696-1.894-1.281-2.621
		c-0.574-0.747-1.313-1.329-2.222-1.746c-0.896-0.415-2.09-0.62-3.563-0.62h-2.424v16.896h2.498c1.313,0,2.414-0.181,3.313-0.541
		c0.909-0.354,1.664-0.904,2.262-1.623c0.601-0.724,1.047-1.621,1.345-2.699C39.996,77.137,40.15,75.878,40.15,74.442z"/>
	<path fill="#8C8C8C" d="M63.798,77.346c0,0.584-0.115,1.021-0.365,1.308c-0.249,0.271-0.584,0.426-1.036,0.426H52.5
		c0,0.723,0.08,1.387,0.25,1.988c0.154,0.584,0.415,1.096,0.776,1.51c0.367,0.42,0.816,0.738,1.388,0.947
		c0.563,0.223,1.244,0.327,2.031,0.327c0.808,0,1.504-0.054,2.126-0.175c0.601-0.122,1.117-0.262,1.563-0.409
		c0.457-0.146,0.813-0.286,1.116-0.397c0.287-0.127,0.537-0.187,0.707-0.187c0.111,0,0.197,0.03,0.271,0.073
		c0.067,0.031,0.133,0.117,0.189,0.232c0.037,0.112,0.074,0.276,0.103,0.496c0.017,0.2,0.021,0.467,0.021,0.791
		c0,0.28-0.005,0.525-0.016,0.723c-0.019,0.197-0.032,0.367-0.061,0.506c-0.021,0.14-0.067,0.261-0.104,0.355
		c-0.043,0.096-0.111,0.188-0.197,0.282c-0.079,0.091-0.297,0.207-0.643,0.354c-0.354,0.16-0.811,0.31-1.355,0.457
		c-0.554,0.147-1.17,0.277-1.877,0.389c-0.702,0.105-1.462,0.158-2.26,0.158c-1.451,0-2.717-0.194-3.802-0.578
		c-1.084-0.379-1.999-0.963-2.729-1.75c-0.729-0.773-1.281-1.76-1.638-2.955c-0.353-1.189-0.537-2.577-0.537-4.18
		c0-1.524,0.191-2.896,0.563-4.119c0.383-1.224,0.931-2.271,1.643-3.115c0.713-0.852,1.59-1.503,2.621-1.951
		c1.031-0.44,2.186-0.676,3.478-0.676c1.355,0,2.521,0.219,3.492,0.637c0.968,0.428,1.768,1.014,2.377,1.766
		c0.616,0.752,1.079,1.637,1.361,2.655c0.303,1.021,0.436,2.142,0.436,3.349v0.763H63.798z M59.358,75.958
		c0.032-1.354-0.218-2.418-0.781-3.188c-0.553-0.778-1.409-1.161-2.563-1.161c-0.574,0-1.085,0.107-1.526,0.341
		c-0.431,0.24-0.792,0.55-1.068,0.938c-0.279,0.389-0.505,0.851-0.651,1.37c-0.154,0.537-0.245,1.111-0.269,1.701L59.358,75.958
		L59.358,75.958z"/>
	<path fill="#8C8C8C" d="M79.035,81.567c0,0.982-0.165,1.834-0.516,2.577c-0.354,0.744-0.835,1.36-1.475,1.86
		c-0.639,0.494-1.377,0.877-2.231,1.121c-0.877,0.25-1.81,0.377-2.813,0.377c-0.604,0-1.201-0.053-1.736-0.143
		c-0.561-0.097-1.055-0.213-1.494-0.373c-0.438-0.145-0.797-0.287-1.097-0.441c-0.28-0.157-0.5-0.303-0.638-0.43
		c-0.134-0.14-0.229-0.353-0.313-0.64c-0.068-0.286-0.106-0.718-0.106-1.284c0-0.361,0.011-0.66,0.038-0.884
		c0.031-0.233,0.058-0.403,0.111-0.537c0.042-0.14,0.104-0.224,0.181-0.271c0.08-0.043,0.17-0.067,0.271-0.067
		c0.135,0,0.329,0.084,0.603,0.243c0.255,0.154,0.574,0.33,0.979,0.521c0.377,0.194,0.841,0.371,1.355,0.541
		c0.505,0.166,1.095,0.244,1.754,0.244c0.415,0,0.782-0.041,1.105-0.134c0.328-0.091,0.602-0.218,0.841-0.377
		c0.224-0.171,0.414-0.39,0.529-0.634c0.128-0.266,0.188-0.553,0.188-0.893c0-0.383-0.112-0.707-0.33-0.984
		c-0.239-0.274-0.537-0.516-0.898-0.723c-0.377-0.201-0.803-0.395-1.26-0.568c-0.463-0.189-0.957-0.389-1.436-0.596
		c-0.494-0.224-0.983-0.474-1.44-0.756c-0.474-0.281-0.896-0.627-1.266-1.035c-0.367-0.41-0.675-0.898-0.89-1.479
		c-0.232-0.567-0.341-1.267-0.341-2.067c0-0.824,0.149-1.57,0.447-2.263c0.313-0.685,0.749-1.265,1.323-1.752
		c0.563-0.485,1.266-0.872,2.079-1.131c0.822-0.272,1.736-0.417,2.759-0.417c0.524,0,1.024,0.046,1.494,0.125
		c0.479,0.076,0.915,0.177,1.298,0.292c0.396,0.117,0.718,0.233,0.988,0.366c0.271,0.138,0.463,0.245,0.579,0.344
		c0.115,0.1,0.206,0.196,0.248,0.292c0.05,0.103,0.075,0.211,0.112,0.348c0.021,0.133,0.037,0.298,0.069,0.497
		c0.01,0.201,0.01,0.447,0.01,0.743c0,0.35,0,0.621-0.01,0.853c-0.032,0.209-0.064,0.379-0.106,0.51
		c-0.031,0.119-0.091,0.222-0.165,0.258c-0.08,0.044-0.158,0.069-0.266,0.069c-0.096,0-0.271-0.069-0.495-0.208
		c-0.249-0.125-0.536-0.269-0.877-0.425c-0.346-0.149-0.749-0.298-1.201-0.436c-0.463-0.13-0.974-0.201-1.563-0.201
		c-0.414,0-0.771,0.046-1.074,0.132c-0.297,0.096-0.553,0.218-0.744,0.383c-0.202,0.172-0.351,0.369-0.436,0.59
		c-0.104,0.224-0.154,0.463-0.154,0.718c0,0.403,0.117,0.729,0.346,1.006c0.233,0.267,0.542,0.5,0.92,0.706
		c0.372,0.201,0.797,0.395,1.275,0.574c0.478,0.182,0.968,0.377,1.468,0.59c0.483,0.207,0.973,0.457,1.446,0.738
		c0.499,0.283,0.914,0.629,1.292,1.037c0.383,0.403,0.688,0.895,0.919,1.469C78.918,80.116,79.035,80.786,79.035,81.567z"/>
	<path fill="#8C8C8C" d="M94.799,83.687c0,0.317-0.017,0.603-0.036,0.83c-0.012,0.231-0.031,0.414-0.068,0.567
		c-0.032,0.154-0.061,0.275-0.106,0.377c-0.043,0.09-0.133,0.207-0.287,0.361c-0.144,0.149-0.397,0.324-0.742,0.537
		c-0.354,0.207-0.757,0.396-1.202,0.563c-0.446,0.177-0.946,0.311-1.462,0.408c-0.537,0.103-1.084,0.154-1.64,0.154
		c-1.265,0-2.376-0.207-3.339-0.615c-0.962-0.41-1.779-1.012-2.424-1.818c-0.665-0.799-1.159-1.775-1.488-2.926
		c-0.335-1.151-0.506-2.477-0.506-3.959c0-1.707,0.208-3.194,0.606-4.438c0.409-1.253,0.981-2.283,1.707-3.107
		c0.731-0.814,1.604-1.425,2.6-1.816c0.999-0.398,2.084-0.603,3.28-0.603c0.479,0,0.962,0.048,1.436,0.141
		c0.462,0.089,0.895,0.207,1.318,0.37c0.396,0.142,0.766,0.321,1.09,0.507c0.318,0.191,0.548,0.365,0.681,0.507
		c0.127,0.136,0.225,0.261,0.276,0.352c0.053,0.096,0.101,0.224,0.133,0.383c0.032,0.139,0.054,0.335,0.069,0.563
		c0.016,0.213,0.037,0.491,0.037,0.811c0,0.742-0.069,1.27-0.188,1.571c-0.122,0.298-0.279,0.445-0.473,0.445
		c-0.213,0-0.431-0.084-0.654-0.267c-0.244-0.181-0.516-0.383-0.835-0.601c-0.316-0.219-0.686-0.409-1.132-0.587
		c-0.431-0.184-0.957-0.279-1.558-0.279c-1.196,0-2.105,0.488-2.733,1.462c-0.643,0.962-0.951,2.376-0.951,4.243
		c0,0.924,0.08,1.742,0.229,2.438c0.165,0.707,0.396,1.298,0.712,1.762c0.304,0.482,0.697,0.834,1.152,1.066
		c0.475,0.244,1.021,0.361,1.645,0.361c0.633,0,1.181-0.101,1.638-0.303c0.452-0.191,0.84-0.414,1.19-0.664
		c0.341-0.234,0.628-0.464,0.854-0.654c0.229-0.207,0.427-0.297,0.585-0.297c0.106,0,0.196,0.024,0.268,0.09
		c0.067,0.068,0.138,0.187,0.181,0.354c0.043,0.183,0.074,0.397,0.096,0.666C94.782,82.917,94.799,83.259,94.799,83.687z"/>
	<path fill="#8C8C8C" d="M113.65,86.411c0,0.133-0.042,0.238-0.111,0.328c-0.067,0.102-0.189,0.182-0.359,0.25
		c-0.178,0.055-0.399,0.116-0.691,0.139c-0.309,0.037-0.67,0.054-1.111,0.054c-0.452,0-0.823-0.017-1.122-0.054
		c-0.303-0.021-0.529-0.084-0.699-0.139c-0.165-0.068-0.287-0.148-0.367-0.25c-0.069-0.09-0.117-0.195-0.117-0.328v-9.777
		c0-0.823-0.042-1.479-0.17-1.95c-0.111-0.489-0.276-0.89-0.494-1.224c-0.224-0.346-0.505-0.602-0.856-0.793
		c-0.335-0.178-0.742-0.268-1.212-0.268c-0.566,0-1.17,0.221-1.76,0.667c-0.604,0.451-1.223,1.101-1.866,1.955v11.39
		c0,0.133-0.037,0.238-0.104,0.328c-0.074,0.102-0.196,0.182-0.366,0.25c-0.191,0.055-0.415,0.116-0.713,0.139
		c-0.281,0.037-0.653,0.054-1.111,0.054c-0.438,0-0.822-0.017-1.108-0.054c-0.3-0.021-0.532-0.084-0.702-0.139
		c-0.165-0.068-0.304-0.148-0.372-0.25c-0.074-0.09-0.117-0.195-0.117-0.328V61.159c0-0.124,0.043-0.238,0.117-0.346
		c0.068-0.094,0.207-0.19,0.372-0.258c0.17-0.068,0.402-0.129,0.702-0.167c0.286-0.033,0.67-0.058,1.108-0.058
		c0.458,0,0.83,0.022,1.111,0.058c0.298,0.038,0.521,0.099,0.713,0.167c0.17,0.065,0.292,0.164,0.366,0.258
		c0.067,0.105,0.104,0.222,0.104,0.346v9.464c0.799-0.814,1.598-1.427,2.419-1.826c0.819-0.406,1.677-0.615,2.56-0.615
		c1.116,0,2.047,0.2,2.802,0.582c0.766,0.389,1.372,0.911,1.845,1.577c0.476,0.665,0.813,1.447,1.013,2.326
		c0.207,0.898,0.308,1.974,0.308,3.248v10.496H113.65z"/>
	<path fill="#8C8C8C" d="M117.196,63.922c0-1.747,1.319-3.063,2.999-3.063c1.664,0,2.993,1.313,2.993,3.063
		c0,1.778-1.329,3.083-2.993,3.083C118.515,67.005,117.196,65.7,117.196,63.922 M120.195,67.614c2.015,0,3.727-1.556,3.727-3.692
		c0-2.115-1.712-3.674-3.727-3.674c-2.021,0-3.743,1.559-3.743,3.674C116.452,66.059,118.175,67.614,120.195,67.614 M119.414,64.209
		h0.749l1.117,1.852h0.728l-1.212-1.875c0.622-0.075,1.105-0.405,1.105-1.17c0-0.841-0.505-1.209-1.51-1.209h-1.621v4.254h0.644
		V64.209z M119.414,63.672v-1.313h0.882c0.447,0,0.92,0.094,0.92,0.609c0,0.657-0.487,0.702-1.034,0.702L119.414,63.672
		L119.414,63.672z"/>
</g>
</svg>
