<?xml version="1.0" encoding="utf-8"?>
<!-- Generator: Adobe Illustrator 14.0.0, SVG Export Plug-In . SVG Version: 6.00 Build 43363)  -->
<!DOCTYPE svg PUBLIC "-//W3C//DTD SVG 1.1//EN" "http://www.w3.org/Graphics/SVG/1.1/DTD/svg11.dtd">
<svg version="1.1" id="圖層_1" xmlns="http://www.w3.org/2000/svg" xmlns:xlink="http://www.w3.org/1999/xlink" x="0px" y="0px"
	 width="141.732px" height="141.732px" viewBox="0 0 141.732 141.732" enable-background="new 0 0 141.732 141.732"
	 xml:space="preserve">
<rect x="-0.006" y="0" fill="none" stroke="#333333" stroke-width="0.2" width="141.738" height="141.732"/>
<g>
	<g>
		<g>
			<path fill="#009FE8" d="M62.492,94.271c0.127-2.529,0.194-4.393,0.194-5.592l0.896-1.064c0.117-0.148,1.063-1.361,2.818-3.662
				l5.065-6.604c0.592-0.793,1.27-1.744,2.059-2.855l-1.209-0.01l-1.199-0.027h-2.129c-1.6,0-3.296,0.07-5.085,0.203
				c0.09-1.318,0.135-2.75,0.135-4.297c0-0.292-0.008-0.695-0.029-1.195c2.897,0.023,5.958,0.037,9.204,0.037
				c3.357,0,6.259-0.02,8.684-0.037c-0.064,1.286-0.115,2.301-0.128,3.047l-0.075,2.469l-0.855,1.014
				c-0.152,0.172-0.292,0.363-0.43,0.527L70.85,88.828l2.092,0.021c0.502,0,1.223-0.008,2.172-0.021l4.205-0.105
				c0.314-0.018,0.872-0.041,1.67-0.098c-0.115,2.188-0.189,4.068-0.242,5.658c-3.246-0.037-6.189-0.037-8.834-0.037h-3.479
				l-3.938,0.01L62.492,94.271z"/>
			<path fill="#009FE8" d="M84.263,94.271l0.591-10.037l0.271-7.32L85.2,73.66c0.016-0.947,0.026-1.867,0.026-2.723l-0.013-1.77
				c1.603,0.021,2.799,0.035,3.586,0.035c0.625,0,1.693-0.016,3.246-0.035c-0.242,3.523-0.399,6.627-0.477,9.334h8.314
				c0.042-1.016,0.094-2.371,0.139-4.09c0.051-1.717,0.063-2.891,0.063-3.514c0-0.329-0.006-0.92-0.02-1.732l3.604,0.037
				c0.377,0,1.445-0.02,3.197-0.037c-0.354,6.299-0.582,10.984-0.688,14.059c-0.104,3.07-0.154,6.745-0.154,11.047l-3.331-0.041
				c-0.502,0-1.688,0.016-3.575,0.041c0.255-2.936,0.438-6.313,0.526-10.191H91.33l-0.255,10.191l-3.539-0.041
				C87.084,94.234,85.991,94.246,84.263,94.271z"/>
			<path fill="#F4BF29" d="M110.489,73.138c0.059-1.457,0.094-2.615,0.094-3.455c0-0.248,0-0.58-0.011-0.997
				c1.231,0.024,2.26,0.037,3.095,0.037c1.15,0,2.155-0.019,3.027-0.037c-0.029,0.386-0.053,0.702-0.066,0.96l-0.09,2.279
				c-0.017,0.342-0.02,0.748-0.02,1.213c-1.02-0.025-1.982-0.037-2.905-0.037C112.659,73.101,111.622,73.113,110.489,73.138z"/>
			<path fill="#009FE8" d="M109.536,94.271c0.135-1.494,0.246-2.729,0.318-3.699c0.07-0.963,0.139-2.201,0.199-3.711
				c0.07-1.51,0.136-3.164,0.182-4.998c0.047-1.828,0.087-3.949,0.133-6.363c1.313,0.021,2.368,0.043,3.162,0.043
				c0.729,0,1.764-0.021,3.111-0.043c-0.178,2.322-0.293,4.354-0.367,6.1c-0.082,1.754-0.136,3.613-0.152,5.582
				c-0.045,3.473-0.058,5.844-0.058,7.104c-1.218-0.037-2.265-0.037-3.126-0.037C112.063,94.234,110.93,94.246,109.536,94.271z"/>
		</g>
		<path fill="#8C8C8C" d="M59.095,39.76v54.512H25.027V39.76H59.095z M29.283,46.572v18.313h10.439l9.142-18.313H29.283z
			 M46.527,64.885h8.31V48.265L46.527,64.885z M44.4,69.143l-9.149,18.313h19.586V69.143H44.4z M29.283,69.143V85.76l8.304-16.614
			L29.283,69.143L29.283,69.143z"/>
	</g>
</g>
</svg>
