<?xml version="1.0" encoding="utf-8"?>
<!-- Generator: Adobe Illustrator 14.0.0, SVG Export Plug-In . SVG Version: 6.00 Build 43363)  -->
<!DOCTYPE svg PUBLIC "-//W3C//DTD SVG 1.1//EN" "http://www.w3.org/Graphics/SVG/1.1/DTD/svg11.dtd">
<svg version="1.1" id="圖層_1" xmlns="http://www.w3.org/2000/svg" xmlns:xlink="http://www.w3.org/1999/xlink" x="0px" y="0px"
	 width="141.732px" height="141.732px" viewBox="0 0 141.732 141.732" enable-background="new 0 0 141.732 141.732"
	 xml:space="preserve">
<rect x="-0.005" y="0" fill="none" stroke="#333333" stroke-width="0.2" width="141.737" height="141.732"/>
<g>
	<path fill="#E60000" d="M31.226,86.41c0,0.137-0.032,0.254-0.106,0.354c-0.054,0.097-0.165,0.17-0.324,0.239
		c-0.147,0.061-0.359,0.111-0.622,0.138c-0.271,0.026-0.596,0.032-0.979,0.032c-0.409,0-0.75-0.006-1.005-0.032
		c-0.255-0.024-0.468-0.077-0.622-0.138c-0.165-0.069-0.281-0.145-0.346-0.239c-0.074-0.103-0.106-0.22-0.106-0.354v-1.914
		c-0.888,0.957-1.828,1.688-2.796,2.217c-0.968,0.531-2.042,0.791-3.229,0.791c-1.316,0-2.419-0.248-3.326-0.76
		c-0.909-0.51-1.647-1.191-2.229-2.058c-0.568-0.86-0.981-1.866-1.238-3.021c-0.261-1.153-0.389-2.36-0.389-3.643
		c0-1.525,0.165-2.908,0.495-4.132c0.324-1.218,0.803-2.261,1.435-3.117c0.635-0.869,1.42-1.534,2.361-1.988
		c0.93-0.471,2.01-0.699,3.237-0.699c0.968,0,1.84,0.196,2.626,0.587c0.781,0.396,1.563,0.97,2.34,1.729v-9.316
		c0-0.131,0.026-0.25,0.101-0.354c0.069-0.103,0.197-0.191,0.385-0.268c0.189-0.063,0.437-0.116,0.742-0.156
		c0.311-0.036,0.708-0.062,1.183-0.062c0.474,0,0.866,0.023,1.181,0.062c0.308,0.04,0.547,0.095,0.729,0.156
		c0.182,0.074,0.313,0.165,0.394,0.268c0.075,0.104,0.112,0.224,0.112,0.354L31.226,86.41L31.226,86.41z M26.404,74.904
		c-0.702-0.884-1.372-1.547-1.999-2.016c-0.638-0.457-1.308-0.689-1.999-0.689c-0.638,0-1.181,0.155-1.632,0.479
		c-0.458,0.31-0.824,0.732-1.103,1.255c-0.28,0.536-0.482,1.12-0.615,1.771c-0.14,0.647-0.202,1.317-0.202,1.992
		c0,0.729,0.059,1.432,0.17,2.104c0.123,0.688,0.309,1.293,0.567,1.824c0.268,0.543,0.617,0.974,1.055,1.291
		c0.436,0.313,0.994,0.476,1.664,0.476c0.329,0,0.657-0.037,0.973-0.14c0.319-0.102,0.638-0.256,0.963-0.473
		c0.329-0.227,0.659-0.507,1.017-0.857c0.352-0.354,0.729-0.797,1.144-1.307L26.404,74.904L26.404,74.904z"/>
	<path fill="#8C8C8C" d="M51.2,79.566c0,1.318-0.239,2.479-0.733,3.457c-0.482,0.993-1.152,1.82-1.981,2.48
		c-0.845,0.664-1.818,1.158-2.939,1.5c-1.109,0.334-2.321,0.498-3.589,0.498c-0.854,0-1.664-0.067-2.408-0.207
		c-0.732-0.143-1.388-0.317-1.957-0.516c-0.558-0.195-1.034-0.408-1.413-0.621c-0.384-0.226-0.653-0.416-0.817-0.586
		c-0.165-0.164-0.293-0.404-0.354-0.724c-0.085-0.313-0.114-0.771-0.114-1.354c0-0.404,0.016-0.734,0.037-1.01
		c0.024-0.271,0.077-0.49,0.127-0.654c0.054-0.17,0.139-0.287,0.232-0.354c0.09-0.073,0.202-0.106,0.34-0.106
		c0.183,0,0.428,0.106,0.763,0.313c0.317,0.218,0.749,0.444,1.26,0.707c0.516,0.261,1.133,0.5,1.84,0.707
		c0.723,0.206,1.547,0.313,2.488,0.313c0.622,0,1.164-0.063,1.657-0.211c0.488-0.154,0.908-0.363,1.25-0.64
		c0.346-0.271,0.602-0.603,0.78-1c0.183-0.394,0.271-0.841,0.271-1.327c0-0.57-0.159-1.055-0.468-1.464
		c-0.313-0.397-0.714-0.767-1.201-1.084c-0.505-0.31-1.068-0.603-1.696-0.884c-0.627-0.28-1.281-0.566-1.945-0.877
		c-0.67-0.303-1.322-0.653-1.944-1.059c-0.635-0.383-1.196-0.851-1.69-1.408c-0.489-0.548-0.903-1.188-1.212-1.934
		s-0.463-1.642-0.463-2.684c0-1.2,0.213-2.254,0.676-3.154c0.438-0.91,1.036-1.658,1.786-2.258c0.749-0.601,1.643-1.053,2.669-1.346
		c1.01-0.3,2.1-0.449,3.243-0.449c0.601,0,1.186,0.05,1.78,0.141c0.585,0.094,1.146,0.219,1.657,0.366
		c0.513,0.158,0.975,0.325,1.366,0.522c0.409,0.191,0.665,0.355,0.792,0.48c0.133,0.129,0.226,0.24,0.261,0.326
		c0.05,0.095,0.093,0.214,0.122,0.358c0.032,0.146,0.056,0.335,0.061,0.563c0.021,0.227,0.032,0.504,0.032,0.841
		c0,0.377-0.019,0.683-0.032,0.941c-0.021,0.256-0.054,0.475-0.098,0.645c-0.053,0.159-0.109,0.284-0.194,0.355
		c-0.08,0.084-0.197,0.119-0.341,0.119c-0.14,0-0.372-0.09-0.677-0.271c-0.309-0.183-0.681-0.372-1.133-0.584
		c-0.452-0.218-0.968-0.407-1.566-0.582c-0.592-0.172-1.244-0.264-1.945-0.264c-0.553,0-1.037,0.07-1.446,0.205
		c-0.42,0.141-0.755,0.319-1.037,0.563c-0.274,0.229-0.487,0.519-0.615,0.854c-0.134,0.334-0.208,0.688-0.208,1.06
		c0,0.556,0.148,1.035,0.458,1.438c0.304,0.406,0.707,0.771,1.218,1.079c0.506,0.319,1.08,0.619,1.729,0.891
		c0.639,0.276,1.292,0.573,1.967,0.878c0.671,0.31,1.329,0.665,1.963,1.049c0.653,0.402,1.219,0.871,1.724,1.42
		c0.5,0.547,0.909,1.186,1.217,1.93C51.052,77.695,51.2,78.568,51.2,79.566"/>
	<path fill="#8C8C8C" d="M64.98,84.709c0,0.563-0.032,0.998-0.103,1.297c-0.072,0.311-0.165,0.517-0.28,0.638
		c-0.117,0.129-0.287,0.233-0.512,0.33c-0.229,0.103-0.487,0.183-0.793,0.25c-0.297,0.073-0.632,0.129-0.986,0.166
		c-0.348,0.041-0.707,0.063-1.068,0.063c-0.968,0-1.803-0.117-2.51-0.371c-0.707-0.246-1.292-0.617-1.762-1.127
		c-0.455-0.512-0.803-1.147-1.021-1.926c-0.219-0.768-0.324-1.688-0.324-2.732v-8.826H53.56c-0.25,0-0.433-0.149-0.563-0.453
		c-0.127-0.302-0.196-0.807-0.196-1.519c0-0.37,0.018-0.688,0.05-0.943c0.037-0.256,0.079-0.457,0.146-0.607
		c0.061-0.146,0.146-0.248,0.239-0.314c0.096-0.063,0.213-0.101,0.341-0.101h2.047V64.69c0-0.129,0.031-0.24,0.105-0.342
		c0.067-0.107,0.195-0.19,0.383-0.27c0.182-0.065,0.437-0.114,0.755-0.151c0.314-0.022,0.702-0.05,1.165-0.05
		c0.479,0,0.877,0.025,1.19,0.05c0.309,0.037,0.563,0.086,0.742,0.151c0.183,0.077,0.306,0.16,0.385,0.27
		c0.073,0.102,0.123,0.213,0.123,0.342v3.841h3.74c0.128,0,0.239,0.037,0.335,0.101c0.093,0.066,0.178,0.168,0.239,0.314
		c0.069,0.15,0.117,0.354,0.146,0.606c0.035,0.256,0.048,0.574,0.048,0.944c0,0.712-0.063,1.217-0.191,1.519
		c-0.127,0.304-0.313,0.453-0.563,0.453h-3.753v8.092c0,0.938,0.144,1.646,0.438,2.11c0.293,0.463,0.813,0.701,1.579,0.701
		c0.256,0,0.489-0.021,0.691-0.067c0.213-0.044,0.396-0.091,0.559-0.153c0.154-0.054,0.292-0.105,0.403-0.148
		c0.11-0.043,0.202-0.069,0.293-0.069c0.08,0,0.159,0.026,0.224,0.069c0.074,0.043,0.127,0.133,0.159,0.267
		c0.042,0.14,0.085,0.317,0.111,0.548C64.969,84.049,64.98,84.351,64.98,84.709"/>
	<path fill="#8C8C8C" d="M83.168,86.463c0,0.181-0.066,0.318-0.194,0.427c-0.13,0.11-0.33,0.177-0.611,0.218
		c-0.276,0.049-0.681,0.068-1.212,0.068c-0.591,0-1.011-0.021-1.271-0.068c-0.266-0.041-0.45-0.105-0.563-0.218
		c-0.105-0.106-0.164-0.246-0.164-0.427v-1.366c-0.707,0.756-1.51,1.353-2.419,1.776s-1.92,0.631-3.021,0.631
		c-0.919,0-1.76-0.114-2.52-0.35c-0.768-0.24-1.438-0.597-1.999-1.068c-0.548-0.469-0.983-1.053-1.297-1.744
		c-0.311-0.696-0.458-1.506-0.458-2.436c0-1,0.189-1.877,0.585-2.615c0.396-0.733,0.979-1.346,1.76-1.834
		c0.781-0.479,1.749-0.836,2.903-1.063c1.156-0.231,2.498-0.351,4.035-0.351h1.675V75c0-0.541-0.048-1.016-0.165-1.419
		c-0.111-0.404-0.282-0.739-0.537-1.016c-0.25-0.271-0.579-0.469-1-0.603c-0.414-0.123-0.94-0.186-1.56-0.186
		c-0.808,0-1.541,0.082-2.18,0.266c-0.627,0.181-1.188,0.38-1.675,0.605c-0.494,0.213-0.909,0.409-1.233,0.596
		c-0.329,0.176-0.59,0.266-0.803,0.266c-0.144,0-0.26-0.043-0.372-0.133c-0.117-0.09-0.196-0.218-0.271-0.389
		c-0.069-0.164-0.128-0.377-0.165-0.616c-0.037-0.241-0.056-0.513-0.056-0.812c0-0.395,0.027-0.719,0.093-0.94
		c0.063-0.232,0.189-0.444,0.365-0.632c0.183-0.188,0.494-0.393,0.951-0.62c0.446-0.218,0.975-0.432,1.574-0.624
		c0.604-0.188,1.271-0.35,1.988-0.469c0.712-0.134,1.45-0.188,2.211-0.188c1.346,0,2.499,0.128,3.461,0.396
		c0.957,0.262,1.744,0.668,2.359,1.213c0.616,0.547,1.073,1.254,1.36,2.119c0.276,0.859,0.42,1.881,0.42,3.07v11.575h0.004V86.463z
		 M78.394,79.094h-1.855c-0.782,0-1.446,0.055-2.005,0.177c-0.548,0.11-0.999,0.28-1.345,0.517c-0.353,0.233-0.606,0.51-0.771,0.84
		c-0.151,0.33-0.231,0.707-0.231,1.127c0,0.72,0.224,1.293,0.689,1.701c0.44,0.41,1.09,0.617,1.895,0.617
		c0.681,0,1.308-0.177,1.887-0.521c0.569-0.346,1.148-0.854,1.739-1.523L78.394,79.094L78.394,79.094z"/>
	<path fill="#8C8C8C" d="M104.45,86.41c0,0.127-0.037,0.231-0.111,0.334c-0.072,0.096-0.213,0.176-0.383,0.244
		c-0.181,0.063-0.431,0.112-0.744,0.139c-0.317,0.043-0.707,0.049-1.165,0.049c-0.481,0-0.872-0.006-1.188-0.049
		c-0.319-0.024-0.563-0.074-0.75-0.139c-0.183-0.068-0.311-0.148-0.383-0.244c-0.074-0.103-0.111-0.207-0.111-0.334v-9.826
		c0-0.834-0.059-1.498-0.188-1.973c-0.12-0.474-0.303-0.881-0.524-1.223c-0.233-0.342-0.536-0.605-0.903-0.792
		c-0.367-0.185-0.787-0.281-1.287-0.281c-0.609,0-1.236,0.229-1.876,0.675c-0.622,0.453-1.274,1.11-1.962,1.967V86.41
		c0,0.127-0.037,0.231-0.117,0.334c-0.067,0.096-0.201,0.176-0.394,0.244c-0.188,0.063-0.425,0.112-0.749,0.139
		c-0.304,0.043-0.691,0.049-1.17,0.049c-0.479,0-0.872-0.006-1.183-0.049c-0.303-0.024-0.547-0.074-0.742-0.139
		c-0.183-0.068-0.319-0.148-0.396-0.244c-0.079-0.103-0.109-0.207-0.109-0.334V69.195c0-0.138,0.03-0.25,0.096-0.342
		c0.063-0.102,0.181-0.18,0.346-0.24c0.17-0.07,0.377-0.117,0.646-0.146c0.266-0.033,0.601-0.047,0.999-0.047
		c0.407,0,0.75,0.014,1.021,0.047c0.271,0.027,0.479,0.074,0.628,0.146c0.154,0.063,0.25,0.141,0.318,0.24
		c0.063,0.092,0.096,0.204,0.096,0.342v1.984c0.957-1.027,1.914-1.809,2.908-2.32c0.981-0.518,2.005-0.771,3.078-0.771
		c1.176,0,2.159,0.191,2.962,0.574c0.803,0.391,1.456,0.915,1.951,1.573c0.487,0.67,0.851,1.439,1.063,2.329
		c0.225,0.888,0.329,1.955,0.329,3.199L104.45,86.41L104.45,86.41z"/>
	<path fill="#8C8C8C" d="M125.552,86.41c0,0.137-0.035,0.254-0.096,0.354c-0.067,0.097-0.176,0.17-0.33,0.239
		c-0.152,0.061-0.359,0.111-0.627,0.138c-0.261,0.026-0.591,0.032-0.974,0.032c-0.414,0-0.755-0.006-1.01-0.032
		c-0.257-0.024-0.465-0.077-0.622-0.138c-0.165-0.069-0.276-0.145-0.348-0.239c-0.072-0.103-0.109-0.22-0.109-0.354v-1.914
		c-0.89,0.957-1.818,1.688-2.786,2.217c-0.975,0.531-2.052,0.791-3.232,0.791c-1.313,0-2.424-0.248-3.328-0.76
		c-0.907-0.51-1.646-1.191-2.222-2.058c-0.574-0.86-0.984-1.866-1.239-3.021c-0.266-1.153-0.394-2.36-0.394-3.643
		c0-1.525,0.165-2.908,0.495-4.132c0.324-1.218,0.808-2.261,1.435-3.117c0.633-0.869,1.42-1.534,2.353-1.988
		c0.949-0.471,2.023-0.699,3.248-0.699c0.968,0,1.84,0.196,2.619,0.587c0.787,0.396,1.568,0.97,2.341,1.729v-9.316
		c0-0.131,0.035-0.25,0.11-0.354c0.063-0.103,0.191-0.191,0.383-0.268c0.196-0.063,0.438-0.116,0.744-0.156
		c0.311-0.036,0.696-0.062,1.182-0.062c0.463,0,0.865,0.023,1.17,0.062c0.309,0.04,0.548,0.095,0.731,0.156
		c0.184,0.074,0.311,0.165,0.391,0.268c0.072,0.104,0.115,0.224,0.115,0.354V86.41z M120.723,74.904
		c-0.69-0.884-1.36-1.547-1.993-2.016c-0.64-0.457-1.31-0.689-1.999-0.689c-0.64,0-1.17,0.155-1.627,0.479
		c-0.463,0.31-0.818,0.732-1.105,1.255c-0.274,0.536-0.482,1.12-0.617,1.771c-0.133,0.647-0.2,1.317-0.2,1.992
		c0,0.729,0.054,1.432,0.17,2.104c0.115,0.688,0.304,1.293,0.572,1.824c0.271,0.543,0.606,0.974,1.055,1.291
		c0.437,0.313,0.987,0.476,1.657,0.476c0.337,0,0.659-0.037,0.979-0.14c0.313-0.102,0.627-0.256,0.951-0.473
		c0.341-0.227,0.67-0.507,1.021-0.857c0.348-0.354,0.726-0.797,1.14-1.307v-5.71L120.723,74.904L120.723,74.904z"/>
	<path fill="#8C8C8C" d="M129.092,63.927c0-1.748,1.313-3.065,3.006-3.065c1.67,0,2.986,1.317,2.986,3.065
		c0,1.776-1.316,3.083-2.986,3.083C130.405,67.01,129.092,65.705,129.092,63.927 M132.095,67.615c2.016,0,3.728-1.558,3.728-3.688
		c0-2.115-1.712-3.679-3.728-3.679c-2.03,0-3.748,1.563-3.748,3.679C128.347,66.058,130.065,67.615,132.095,67.615 M131.314,64.216
		h0.744l1.109,1.844h0.729l-1.207-1.862c0.622-0.083,1.096-0.416,1.096-1.173c0-0.844-0.489-1.211-1.505-1.211h-1.616v4.246h0.648
		L131.314,64.216L131.314,64.216z M131.314,63.676V62.36h0.872c0.452,0,0.931,0.099,0.931,0.619c0,0.649-0.506,0.694-1.037,0.694
		L131.314,63.676L131.314,63.676z"/>
</g>
</svg>
