<?xml version="1.0" encoding="utf-8"?>
<!-- Generator: Adobe Illustrator 14.0.0, SVG Export Plug-In . SVG Version: 6.00 Build 43363)  -->
<!DOCTYPE svg PUBLIC "-//W3C//DTD SVG 1.1//EN" "http://www.w3.org/Graphics/SVG/1.1/DTD/svg11.dtd">
<svg version="1.1" id="圖層_1" xmlns="http://www.w3.org/2000/svg" xmlns:xlink="http://www.w3.org/1999/xlink" x="0px" y="0px"
	 width="141.732px" height="141.732px" viewBox="0 0 141.732 141.732" enable-background="new 0 0 141.732 141.732"
	 xml:space="preserve">
<rect x="-0.006" y="0" fill="none" stroke="#333333" stroke-width="0.2" width="141.738" height="141.732"/>
<g>
	<g id="LWPOLYLINE_65_">
		<polyline points="69.425,62.496 68.388,64.635 74.787,64.635 74.787,62.496 69.425,62.496 		"/>
	</g>
	<g id="LWPOLYLINE_64_">
		<polyline points="121.657,64.635 100.51,64.635 100.51,62.496 118.465,62.496 119.052,62.521 119.624,62.676 120.155,62.896 
			120.644,63.216 121.056,63.625 121.401,64.097 121.657,64.635 		"/>
	</g>
	<g id="LWPOLYLINE_63_">
		<polygon points="95.101,62.496 95.673,62.567 96.207,62.74 96.694,62.992 97.122,63.295 97.52,63.689 97.821,64.148 
			98.038,64.635 77.237,64.635 77.477,64.148 77.823,63.689 78.169,63.295 78.612,62.992 79.085,62.74 79.641,62.567 80.182,62.496 
					"/>
	</g>
	<g id="LWPOLYLINE_62_">
		<polyline points="54.007,64.635 52.981,62.496 47.633,62.496 47.633,64.635 54.007,64.635 		"/>
	</g>
	<g id="LWPOLYLINE_61_">
		<polyline points="37.396,64.635 36.54,62.496 29.756,62.496 28.913,64.635 37.396,64.635 		"/>
	</g>
	<g id="LWPOLYLINE_60_">
		<polyline points="68.056,65.35 66.998,67.498 74.787,67.498 74.787,65.35 68.056,65.35 		"/>
	</g>
	<g id="LWPOLYLINE_59_">
		<polyline points="121.973,67.498 121.973,65.35 100.51,65.35 100.51,67.498 121.973,67.498 		"/>
	</g>
	<g id="LWPOLYLINE_58_">
		<polyline points="98.376,67.498 98.376,65.35 76.937,65.35 76.937,67.498 98.376,67.498 		"/>
	</g>
	<g id="LWPOLYLINE_57_">
		<polyline points="38.515,67.498 37.67,65.35 28.621,65.35 27.757,67.498 38.515,67.498 		"/>
	</g>
	<g id="LWPOLYLINE_56_">
		<polyline points="66.66,68.195 65.629,70.347 74.787,70.347 74.787,68.195 66.66,68.195 		"/>
	</g>
	<g id="LWPOLYLINE_55_">
		<polyline points="121.973,70.347 121.973,68.195 116.617,68.195 116.617,70.347 121.973,70.347 		"/>
	</g>
	<g id="LWPOLYLINE_54_">
		<polyline points="105.884,70.347 105.884,68.195 100.51,68.195 100.51,70.347 105.884,70.347 		"/>
	</g>
	<g id="LWPOLYLINE_53_">
		<polyline points="98.376,70.347 98.376,68.195 93.014,68.195 93.014,70.347 98.376,70.347 		"/>
	</g>
	<g id="LWPOLYLINE_52_">
		<polyline points="56.796,70.347 55.767,68.195 47.633,68.195 47.633,70.347 56.796,70.347 		"/>
	</g>
	<g id="LWPOLYLINE_51_">
		<polyline points="39.679,70.347 38.823,68.195 27.473,68.195 26.619,70.347 32.701,70.347 33.145,69.223 33.611,70.347 
			39.679,70.347 		"/>
	</g>
	<g id="LWPOLYLINE_50_">
		<polyline points="121.973,73.213 121.973,71.066 116.617,71.066 116.617,73.213 121.973,73.213 		"/>
	</g>
	<g id="LWPOLYLINE_49_">
		<polyline points="105.884,73.213 105.884,71.066 100.51,71.066 100.51,73.213 105.884,73.213 		"/>
	</g>
	<g id="LWPOLYLINE_48_">
		<polyline points="98.376,73.213 98.376,71.066 93.014,71.066 93.014,73.213 98.376,73.213 		"/>
	</g>
	<g id="LWPOLYLINE_47_">
		<polyline points="82.294,73.213 82.294,71.066 76.937,71.066 76.937,73.213 82.294,73.213 		"/>
	</g>
	<g id="LWPOLYLINE_46_">
		<polyline points="74.787,73.213 74.787,71.066 65.292,71.066 64.226,73.213 74.787,73.213 		"/>
	</g>
	<g id="LWPOLYLINE_45_">
		<polyline points="58.199,73.213 57.149,71.066 47.633,71.066 47.633,73.213 58.199,73.213 		"/>
	</g>
	<g id="LWPOLYLINE_44_">
		<polyline points="40.806,73.213 39.961,71.066 33.895,71.066 34.746,73.213 40.806,73.213 		"/>
	</g>
	<g id="LWPOLYLINE_43_">
		<polyline points="31.545,73.213 32.401,71.066 26.338,71.066 25.474,73.213 31.545,73.213 		"/>
	</g>
	<g id="LWPOLYLINE_42_">
		<polyline points="100.51,73.931 100.51,76.074 105.884,76.074 105.884,73.931 100.51,73.931 		"/>
	</g>
	<g id="LWPOLYLINE_41_">
		<polyline points="121.973,76.074 121.973,73.931 116.617,73.931 116.617,76.074 121.973,76.074 		"/>
	</g>
	<g id="LWPOLYLINE_40_">
		<polyline points="98.376,76.074 98.376,73.931 93.014,73.931 93.014,76.074 98.376,76.074 		"/>
	</g>
	<g id="LWPOLYLINE_39_">
		<polyline points="82.294,76.074 82.294,73.931 76.937,73.931 76.937,76.074 82.294,76.074 		"/>
	</g>
	<g id="LWPOLYLINE_38_">
		<polyline points="69.425,76.074 74.787,76.074 74.787,73.931 63.88,73.931 62.859,76.074 68.936,76.074 69.425,75.031 
			69.425,76.074 		"/>
	</g>
	<g id="LWPOLYLINE_37_">
		<polyline points="52.981,75.031 53.489,76.074 59.576,76.074 58.516,73.931 47.633,73.931 47.633,76.074 52.981,76.074 
			52.981,75.031 		"/>
	</g>
	<g id="LWPOLYLINE_36_">
		<polyline points="41.949,76.074 41.112,73.931 35.052,73.931 35.91,76.074 41.949,76.074 		"/>
	</g>
	<g id="LWPOLYLINE_35_">
		<polyline points="30.373,76.074 31.245,73.931 25.181,73.931 24.318,76.074 30.373,76.074 		"/>
	</g>
	<g id="LWPOLYLINE_34_">
		<polyline points="62.498,76.797 61.461,78.933 67.525,78.933 68.582,76.797 62.498,76.797 		"/>
	</g>
	<g id="LWPOLYLINE_33_">
		<polyline points="93.014,76.797 93.014,78.933 98.376,78.933 98.376,76.797 93.014,76.797 		"/>
	</g>
	<g id="LWPOLYLINE_32_">
		<polyline points="121.973,78.933 121.973,76.797 116.617,76.797 116.617,78.933 121.973,78.933 		"/>
	</g>
	<g id="LWPOLYLINE_31_">
		<polyline points="105.884,78.933 105.884,76.797 100.51,76.797 100.51,78.933 105.884,78.933 		"/>
	</g>
	<g id="LWPOLYLINE_30_">
		<polyline points="82.294,78.933 82.294,76.797 76.937,76.797 76.937,78.933 82.294,78.933 		"/>
	</g>
	<g id="LWPOLYLINE_29_">
		<polyline points="74.787,78.933 74.787,76.797 69.425,76.797 69.425,78.933 74.787,78.933 		"/>
	</g>
	<g id="LWPOLYLINE_28_">
		<polyline points="60.964,78.933 59.922,76.797 53.85,76.797 54.879,78.933 60.964,78.933 		"/>
	</g>
	<g id="LWPOLYLINE_27_">
		<polyline points="52.981,78.933 52.981,76.797 47.633,76.797 47.633,78.933 52.981,78.933 		"/>
	</g>
	<g id="LWPOLYLINE_26_">
		<polyline points="43.103,78.933 42.234,76.797 24.044,76.797 23.198,78.933 43.103,78.933 		"/>
	</g>
	<g id="LWPOLYLINE_25_">
		<polyline points="69.425,79.652 69.425,81.789 74.787,81.789 74.787,79.652 69.425,79.652 		"/>
	</g>
	<g id="LWPOLYLINE_24_">
		<polyline points="93.014,79.652 93.014,81.789 98.376,81.789 98.376,79.652 93.014,79.652 		"/>
	</g>
	<g id="LWPOLYLINE_23_">
		<polyline points="121.973,81.789 121.973,79.652 116.617,79.652 116.617,81.789 121.973,81.789 		"/>
	</g>
	<g id="LWPOLYLINE_22_">
		<polyline points="105.884,81.789 105.884,79.652 100.51,79.652 100.51,81.789 105.884,81.789 		"/>
	</g>
	<g id="LWPOLYLINE_21_">
		<polyline points="82.294,81.789 82.294,79.652 76.937,79.652 76.937,81.789 82.294,81.789 		"/>
	</g>
	<g id="LWPOLYLINE_20_">
		<polyline points="66.163,81.789 67.2,79.652 55.249,79.652 56.293,81.789 66.163,81.789 		"/>
	</g>
	<g id="LWPOLYLINE_19_">
		<polyline points="52.981,81.789 52.981,79.652 47.633,79.652 47.633,81.789 52.981,81.789 		"/>
	</g>
	<g id="LWPOLYLINE_18_">
		<polyline points="44.233,81.789 43.396,79.652 22.898,79.652 22.021,81.789 44.233,81.789 		"/>
	</g>
	<g id="LWPOLYLINE_17_">
		<polyline points="121.973,82.502 100.51,82.502 100.51,84.644 121.973,84.644 121.973,82.502 		"/>
	</g>
	<g id="LWPOLYLINE_16_">
		<polyline points="98.376,84.644 98.376,82.502 76.937,82.502 76.937,84.644 98.376,84.644 		"/>
	</g>
	<g id="LWPOLYLINE_15_">
		<polyline points="74.787,84.644 74.787,82.502 69.425,82.502 69.425,84.644 74.787,84.644 		"/>
	</g>
	<g id="LWPOLYLINE_14_">
		<polyline points="64.76,84.644 65.789,82.502 56.623,82.502 57.644,84.644 64.76,84.644 		"/>
	</g>
	<g id="LWPOLYLINE_13_">
		<polyline points="52.981,84.644 52.981,82.502 47.633,82.502 47.633,84.644 52.981,84.644 		"/>
	</g>
	<g id="LWPOLYLINE_12_">
		<polyline points="45.395,84.644 44.517,82.502 38.462,82.502 39.307,84.644 45.395,84.644 		"/>
	</g>
	<g id="LWPOLYLINE_11_">
		<polyline points="26.991,84.644 27.84,82.502 21.76,82.502 20.891,84.644 26.991,84.644 		"/>
	</g>
	<g id="LWPOLYLINE_10_">
		<polyline points="69.425,85.351 69.425,87.504 74.787,87.504 74.787,85.351 69.425,85.351 		"/>
	</g>
	<g id="LWPOLYLINE_9_">
		<polyline points="63.37,87.504 64.406,85.351 58.043,85.351 59.063,87.504 63.37,87.504 		"/>
	</g>
	<g id="LWPOLYLINE_8_">
		<polyline points="52.981,87.504 52.981,85.351 47.633,85.351 47.633,87.504 52.981,87.504 		"/>
	</g>
	<g id="LWPOLYLINE_7_">
		<polyline points="46.532,87.504 45.679,85.351 39.615,85.351 40.485,87.504 46.532,87.504 		"/>
	</g>
	<g id="LWPOLYLINE_6_">
		<polyline points="25.817,87.504 26.662,85.351 20.598,85.351 19.751,87.504 25.817,87.504 		"/>
	</g>
	<g id="LWPOLYLINE_5_">
		<polyline points="47.633,65.35 54.353,65.35 55.422,67.498 47.633,67.498 47.633,65.35 		"/>
	</g>
	<g id="LWPOLYLINE_4_">
		<polyline points="76.937,68.195 82.294,68.195 82.294,70.347 76.937,70.347 76.937,68.195 		"/>
	</g>
	<g id="ELLIPSE_1_">
		<path d="M27.621,58.594c0,0.968,2.501,1.728,5.545,1.728c3.073,0,5.566-0.76,5.566-1.728c0-0.979-2.494-1.738-5.566-1.738
			C30.123,56.854,27.621,57.615,27.621,58.594L27.621,58.594"/>
	</g>
	<g id="LWPOLYLINE_3_">
		<g id="XMLID_1_">
			<g>
				<polygon points="41.835,50.764 41.835,50.985 41.798,51.217 38.975,57.441 36.138,56.638 33.145,56.355 30.213,56.668 
					27.329,57.527 24.519,51.217 24.445,50.985 24.445,50.764 24.519,50.549 24.519,50.507 24.557,50.485 24.599,50.429 
					24.655,50.429 24.684,50.408 24.738,50.385 24.799,50.385 24.844,50.408 24.889,50.429 24.937,50.429 27.127,53.492 
					27.191,53.572 27.292,53.619 27.337,53.664 27.449,53.691 27.552,53.713 27.646,53.691 27.72,53.664 27.84,53.627 
					27.917,53.572 28.066,53.404 28.164,53.191 28.239,53.018 28.337,52.782 28.337,52.54 27.608,48.92 27.646,48.892 
					27.646,48.797 27.685,48.765 27.749,48.67 27.813,48.646 27.871,48.63 27.938,48.611 28.004,48.611 28.084,48.63 28.127,48.646 
					28.193,48.67 28.239,48.765 29.903,52.609 30.011,52.719 30.139,52.822 30.296,52.918 30.455,52.955 30.612,53.003 
					30.785,53.003 30.928,52.939 31.101,52.873 31.245,52.782 31.341,52.662 31.893,51.926 32.25,51.081 32.505,50.211 
					32.882,46.82 32.904,46.734 32.927,46.711 32.986,46.634 33.018,46.599 33.06,46.535 33.145,46.535 33.233,46.535 
					33.294,46.535 33.323,46.535 33.43,46.535 33.456,46.599 33.504,46.654 33.539,46.716 33.584,46.791 33.791,50.211 
					34.057,51.081 34.406,51.926 34.913,52.662 35.052,52.782 35.195,52.873 35.352,52.939 35.514,53.003 35.66,53.003 
					35.849,52.955 35.987,52.918 36.147,52.822 36.248,52.719 36.396,52.609 38.042,48.765 38.093,48.67 38.122,48.646 
					38.201,48.63 38.284,48.611 38.358,48.611 38.441,48.63 38.486,48.646 38.515,48.67 38.597,48.765 38.621,48.797 38.643,48.892 
					38.658,48.92 37.978,52.54 37.978,52.782 38.034,53.018 38.122,53.191 38.225,53.404 38.358,53.572 38.441,53.627 
					38.547,53.664 38.643,53.691 38.739,53.713 38.831,53.691 38.914,53.664 39.004,53.619 39.071,53.572 39.148,53.492 
					41.362,50.429 41.407,50.429 41.442,50.408 41.498,50.385 41.522,50.385 41.599,50.408 41.644,50.429 41.695,50.429 
					41.716,50.485 41.758,50.507 41.798,50.549 				"/>
			</g>
		</g>
	</g>
	<g id="LWPOLYLINE_2_">
		<polyline points="121.657,85.351 100.51,85.351 100.51,87.504 118.465,87.504 119.052,87.482 119.624,87.328 120.155,87.09 
			120.644,86.781 121.056,86.383 121.401,85.898 121.657,85.351 		"/>
	</g>
	<g id="LWPOLYLINE_1_">
		<polygon points="95.101,87.504 95.673,87.439 96.207,87.275 96.694,87.004 97.122,86.691 97.52,86.297 97.821,85.871 
			98.038,85.351 77.237,85.351 77.477,85.871 77.823,86.297 78.169,86.691 78.612,87.004 79.085,87.275 79.641,87.439 
			80.182,87.504 		"/>
	</g>
</g>
</svg>
